<?xml version="1.0" encoding="utf-8"?>
<!-- Generator: Adobe Illustrator 22.1.0, SVG Export Plug-In . SVG Version: 6.00 Build 0)  -->
<svg version="1.1"
	 id="svg2" xmlns:cc="http://creativecommons.org/ns#" xmlns:dc="http://purl.org/dc/elements/1.1/" xmlns:rdf="http://www.w3.org/1999/02/22-rdf-syntax-ns#" xmlns:svg="http://www.w3.org/2000/svg"
	 xmlns="http://www.w3.org/2000/svg" xmlns:xlink="http://www.w3.org/1999/xlink" x="0px" y="0px" viewBox="0 0 30 30"
	 style="enable-background:new 0 0 30 30;" xml:space="preserve">

<path d="M25.2,8.3c-0.5-2.2-1.6-4.1-3.3-5.6c-1.7-1.5-3.8-2.5-6.1-2.6c-1.3-0.1-2.6,0-3.9,0.4c-4.3,1.3-7.4,5.4-7.5,9.9
	c0,1.3,0.2,2.7,0.6,4c0.5,1.9,1.3,3.6,2.2,5.3c1,1.8,2,3.4,3.2,5c1.3,1.8,2.8,3.6,4.4,5.2c0,0,0.1,0.1,0.1,0.1
	c0-0.1,0.1-0.1,0.1-0.2c1.3-1.3,2.5-2.7,3.6-4.2c1.8-2.3,3.4-4.7,4.6-7.3c1-2.1,1.7-4.2,2-6.5C25.5,10.7,25.5,9.4,25.2,8.3z
	 M13.2,11.9l0.3-1.4c0-0.1,0.1-0.1,0.2-0.1l0.4,0.1c0.1,0,0.1,0.1,0.1,0.2l-0.3,1.4c0,0.1-0.1,0.1-0.2,0.1l-0.4-0.1
	C13.2,12.1,13.2,12,13.2,11.9z M15.5,15.8c-0.2,0-0.3-0.1-0.3-0.3l-0.6-2.4L14,15.5c0,0.1-0.2,0.2-0.3,0.2c-0.2,0-0.3-0.1-0.3-0.3
	c0,0,0,0,0-0.1l1-4.3c0,0,0.1-0.4,0.5-0.4c0,0,0.4,0,0.5,0.4l0.2,0.8l0.7,0.2c0.1,0,0.2,0.1,0.2,0.2c0,0.1-0.1,0.2-0.2,0.2
	c0,0,0,0,0,0l-0.8-0.2c0,0-0.1,0-0.2-0.2l0-0.2L15,12.2l0.8,3.2c0,0,0,0,0,0.1C15.8,15.6,15.6,15.8,15.5,15.8z M14.5,10.1
	c0-0.3,0.2-0.5,0.5-0.5c0.3,0,0.5,0.2,0.5,0.5c0,0.3-0.2,0.5-0.5,0.5C14.7,10.6,14.5,10.4,14.5,10.1z M17,11.3l-0.8,4.4
	c0,0.1-0.1,0.1-0.1,0.1c-0.1,0-0.1,0-0.1-0.1c0,0,0,0,0,0l0.8-4.4c0-0.1,0.1-0.1,0.1-0.1C17,11.2,17,11.2,17,11.3L17,11.3z M19.8,10
	l-1-0.4v6.2h-1V9.1L15,7.9l-2.7,1.2v6.7h-1V9.5l-1,0.4V8.6L15,6.2l4.8,2.4V10z"/>
</svg>
