<?xml version="1.0" encoding="utf-8"?>
<!-- Generator: Adobe Illustrator 22.1.0, SVG Export Plug-In . SVG Version: 6.00 Build 0)  -->
<svg version="1.1"
	 id="svg2" xmlns:cc="http://creativecommons.org/ns#" xmlns:dc="http://purl.org/dc/elements/1.1/" xmlns:rdf="http://www.w3.org/1999/02/22-rdf-syntax-ns#" xmlns:svg="http://www.w3.org/2000/svg"
	 xmlns="http://www.w3.org/2000/svg" xmlns:xlink="http://www.w3.org/1999/xlink" x="0px" y="0px" viewBox="0 0 30 30"
	 style="enable-background:new 0 0 30 30;" xml:space="preserve">

<g>
	<path d="M13.5,9.7H12c0,0,0,0-0.1,0c-0.2,0-0.6,0.2-0.6,0.8c0,0.8,0.8,0.8,0.8,0.8h1.5c0,0,0.8,0,0.8-0.8S13.5,9.7,13.5,9.7z"/>
	<path d="M16.1,9.7h-0.4c0,0-0.8,0-0.8,0.8s0.8,0.8,0.8,0.8h0.4c0,0,0.8,0,0.8-0.8S16.1,9.7,16.1,9.7z"/>
	<path d="M25.2,8.3c-0.5-2.2-1.6-4.1-3.3-5.6c-1.7-1.5-3.8-2.5-6.1-2.6c-1.3-0.1-2.6,0-3.9,0.4c-4.3,1.3-7.4,5.4-7.5,9.9
		c0,1.3,0.2,2.7,0.6,4c0.5,1.9,1.3,3.6,2.2,5.3c1,1.8,2,3.4,3.2,5c1.3,1.8,2.8,3.6,4.4,5.2c0,0,0.1,0.1,0.1,0.1
		c0-0.1,0.1-0.1,0.1-0.2c1.3-1.3,2.5-2.7,3.6-4.2c1.8-2.3,3.4-4.7,4.6-7.3c1-2.1,1.7-4.2,2-6.5C25.5,10.7,25.5,9.4,25.2,8.3z
		 M13.9,15.8c-0.6,0-1.1-0.5-1.1-1.1c0-0.6,0.5-1.1,1.1-1.1c0.6,0,1.1,0.5,1.1,1.1C15,15.3,14.5,15.8,13.9,15.8z M15.7,14.3
		c-0.2-0.9-0.9-1.5-1.8-1.5c-0.9,0-1.7,0.7-1.8,1.5h-0.8c-0.8,0-1.5-0.8-1.5-1.5v-3c0-0.8,0.8-1.5,1.5-1.5h5.7
		c0.7,0,1.5,0.8,1.5,1.5v3.8h1.1c0.8,0,0.8,0.8,0.8,0.8H15.7z"/>
</g>
</svg>
