<?xml version="1.0" encoding="utf-8"?>
<!-- Generator: Adobe Illustrator 22.1.0, SVG Export Plug-In . SVG Version: 6.00 Build 0)  -->
<svg version="1.1"
	 id="svg2" xmlns:cc="http://creativecommons.org/ns#" xmlns:dc="http://purl.org/dc/elements/1.1/" xmlns:rdf="http://www.w3.org/1999/02/22-rdf-syntax-ns#" xmlns:svg="http://www.w3.org/2000/svg"
	 xmlns="http://www.w3.org/2000/svg" xmlns:xlink="http://www.w3.org/1999/xlink" x="0px" y="0px" viewBox="0 0 30 30"
	 style="enable-background:new 0 0 30 30;" xml:space="preserve">
<path d="M25.2,8.1C24.8,5.9,23.6,4,22,2.6c-1.7-1.5-3.8-2.5-6.1-2.6c-1.3-0.1-2.6,0-3.9,0.4c-4.3,1.3-7.4,5.4-7.5,9.9
	c0,1.3,0.2,2.7,0.6,4c0.5,1.9,1.3,3.6,2.2,5.3c1,1.8,2,3.4,3.2,5c1.3,1.8,2.8,3.6,4.4,5.2c0,0,0.1,0.1,0.1,0.1
	c0-0.1,0.1-0.1,0.1-0.2c1.3-1.3,2.5-2.7,3.6-4.2c1.8-2.3,3.4-4.7,4.6-7.3c1-2.1,1.7-4.2,2-6.5C25.5,10.5,25.5,9.3,25.2,8.1z
	 M12.1,10.6h1.7c0.4,0,0.9,0.4,0.9,0.9h-2.6V10.6z M11.1,10.2c0.4,0,0.6,0.3,0.6,0.6s-0.3,0.6-0.6,0.6c-0.4,0-0.6-0.3-0.6-0.6
	S10.7,10.2,11.1,10.2z M19.3,8.7v4.5h-1.7v-2.8h-1.1v2.8h-1v0h-0.2h-0.2v0h-0.3v-0.8H10v0.2v0.6H9.6v-0.6v-0.2v-0.4v-1.7V10
	c0-0.1,0.1-0.2,0.2-0.2S10,9.8,10,10v0.2v1.7h4.9V8.7h-1.1l3.4-2.3l3.4,2.3H19.3z"/>
</svg>
