<?xml version="1.0" encoding="utf-8"?>
<!-- Generator: Adobe Illustrator 22.1.0, SVG Export Plug-In . SVG Version: 6.00 Build 0)  -->
<svg version="1.1"
	 id="svg2" xmlns:cc="http://creativecommons.org/ns#" xmlns:dc="http://purl.org/dc/elements/1.1/" xmlns:rdf="http://www.w3.org/1999/02/22-rdf-syntax-ns#" xmlns:svg="http://www.w3.org/2000/svg"
	 xmlns="http://www.w3.org/2000/svg" xmlns:xlink="http://www.w3.org/1999/xlink" x="0px" y="0px" viewBox="0 0 30 30"
	 style="enable-background:new 0 0 30 30;" xml:space="preserve">

<g>
	<circle cx="17" cy="13.7" r="0.5"/>
	<circle cx="13" cy="13.7" r="0.5"/>
	<polygon points="16.4,11 13.6,11 13.2,12.4 16.8,12.4 	"/>
	<path d="M25.2,8.3c-0.5-2.2-1.6-4.1-3.3-5.6c-1.7-1.5-3.8-2.5-6.1-2.6c-1.3-0.1-2.6,0-3.9,0.4c-4.3,1.3-7.4,5.4-7.5,9.9
		c0,1.3,0.2,2.7,0.6,4c0.5,1.9,1.3,3.6,2.2,5.3c1,1.8,2,3.4,3.2,5c1.3,1.8,2.8,3.6,4.4,5.2c0,0,0.1,0.1,0.1,0.1
		c0-0.1,0.1-0.1,0.1-0.2c1.3-1.3,2.5-2.7,3.6-4.2c1.8-2.3,3.4-4.7,4.6-7.3c1-2.1,1.7-4.2,2-6.5C25.5,10.7,25.5,9.4,25.2,8.3z
		 M14.3,6.9H17c0.7,0,1.4,0.7,1.4,1.4h-4.1V6.9z M12.6,6.3c0.6,0,1,0.5,1,1c0,0.6-0.5,1-1,1s-1-0.5-1-1C11.6,6.7,12.1,6.3,12.6,6.3z
		 M18.4,15.1h-0.7c0,0,0,0.7-0.7,0.7s-0.7-0.7-0.7-0.7h-2.7c0,0,0,0.7-0.7,0.7s-0.7-0.7-0.7-0.7h-0.7v-2c0-0.4,0.4-0.7,0.7-0.7
		l0.7-2H17l0.7,2c0.4,0,0.7,0.3,0.7,0.7V15.1z M19.8,7.6v2.7h-0.7V9.6h-8.1v0.7h-0.7V6.9V6.6c0-0.2,0.2-0.3,0.3-0.3
		c0.2,0,0.3,0.2,0.3,0.3v0.3v2h8.1V7.6V7.3c0-0.2,0.2-0.3,0.3-0.3c0.2,0,0.3,0.2,0.3,0.3V7.6z"/>
</g>
</svg>
