<?xml version="1.0" encoding="utf-8"?>
<!-- Generator: Adobe Illustrator 22.1.0, SVG Export Plug-In . SVG Version: 6.00 Build 0)  -->
<svg version="1.1" id="Layer_1" xmlns="http://www.w3.org/2000/svg" xmlns:xlink="http://www.w3.org/1999/xlink" x="0px" y="0px"
	 viewBox="0 0 30 30" style="enable-background:new 0 0 30 30;" xml:space="preserve">

<g>
	<path d="M13.5,10.2c-0.4,0-0.8,0.4-0.8,0.8v3h1.5v-3C14.2,10.6,13.9,10.2,13.5,10.2z"/>
	<path d="M16.5,10.2c-0.4,0-0.8,0.4-0.8,0.8v3h1.5v-3C17.3,10.6,16.9,10.2,16.5,10.2z"/>
	<path d="M25.2,8.3c-0.5-2.2-1.6-4.1-3.3-5.6c-1.7-1.5-3.8-2.5-6.1-2.6c-1.3-0.1-2.6,0-3.9,0.4c-4.3,1.3-7.4,5.4-7.5,9.9
		c0,1.3,0.2,2.7,0.6,4c0.5,1.9,1.3,3.6,2.2,5.3c1,1.8,2,3.4,3.2,5c1.3,1.8,2.8,3.6,4.4,5.2c0,0,0.1,0.1,0.1,0.1
		c0-0.1,0.1-0.1,0.1-0.2c1.3-1.3,2.5-2.7,3.6-4.2c1.8-2.3,3.4-4.7,4.6-7.3c1-2.1,1.7-4.2,2-6.5C25.5,10.7,25.5,9.4,25.2,8.3z
		 M10.5,8L15,6.5L19.5,8v0.8h-9V8z M9.7,15.5l0.8-1.5h0.8v-3.8h-0.8V9.5h9v0.8h-0.8V14h0.8l0.8,1.5H9.7z"/>
</g>
</svg>
