<?xml version="1.0" encoding="utf-8"?>
<!-- Generator: Adobe Illustrator 22.1.0, SVG Export Plug-In . SVG Version: 6.00 Build 0)  -->
<svg version="1.1"
	 id="svg2" xmlns:cc="http://creativecommons.org/ns#" xmlns:dc="http://purl.org/dc/elements/1.1/" xmlns:rdf="http://www.w3.org/1999/02/22-rdf-syntax-ns#" xmlns:svg="http://www.w3.org/2000/svg"
	 xmlns="http://www.w3.org/2000/svg" xmlns:xlink="http://www.w3.org/1999/xlink" x="0px" y="0px" viewBox="0 0 30 30"
	 style="enable-background:new 0 0 30 30;" xml:space="preserve">

<g>
	<path d="M15,13.9c0,0-0.7,0-0.7,0.7v0.7h1.4v-0.7C15.7,13.9,15,13.9,15,13.9z"/>
	<path d="M25.2,8.3c-0.5-2.2-1.6-4.1-3.3-5.6c-1.7-1.5-3.8-2.5-6.1-2.6c-1.3-0.1-2.6,0-3.9,0.4c-4.3,1.3-7.4,5.4-7.5,9.9
		c0,1.3,0.2,2.7,0.6,4c0.5,1.9,1.3,3.6,2.2,5.3c1,1.8,2,3.4,3.2,5c1.3,1.8,2.8,3.6,4.4,5.2c0,0,0.1,0.1,0.1,0.1
		c0-0.1,0.1-0.1,0.1-0.2c1.3-1.3,2.5-2.7,3.6-4.2c1.8-2.3,3.4-4.7,4.6-7.3c1-2.1,1.7-4.2,2-6.5C25.5,10.7,25.5,9.4,25.2,8.3z M20,11
		l-1.1-0.5V16h-1.1v-5.9l-1.1-0.5c0,2.1,0,4.3,0,6.4h-3.6c0-1.2,0-2.4,0-3.6h2.5V9.2L15,8.9l-2.9,1.2V16h-1.1v-5.5L10,11V9.6l5-2.5
		l0.7,0.4V6h1.1c0,0.7,0,1.3,0,2L20,9.6V11z"/>
</g>
</svg>
