<?xml version="1.0" encoding="utf-8"?>
<!-- Generator: Adobe Illustrator 22.1.0, SVG Export Plug-In . SVG Version: 6.00 Build 0)  -->
<svg version="1.1" id="Layer_1" xmlns="http://www.w3.org/2000/svg" xmlns:xlink="http://www.w3.org/1999/xlink" x="0px" y="0px"
	 viewBox="0 0 30 30" style="enable-background:new 0 0 30 30;" xml:space="preserve">
<path d="M25.2,8.3c-0.5-2.2-1.6-4.1-3.3-5.6c-1.7-1.5-3.8-2.5-6.1-2.6c-1.3-0.1-2.6,0-3.9,0.4c-4.3,1.3-7.4,5.4-7.5,9.9
	c0,1.3,0.2,2.7,0.6,4c0.5,1.9,1.3,3.6,2.2,5.3c1,1.8,2,3.4,3.2,5c1.3,1.8,2.8,3.6,4.4,5.2c0,0,0.1,0.1,0.1,0.1
	c0-0.1,0.1-0.1,0.1-0.2c1.3-1.3,2.5-2.7,3.6-4.2c1.8-2.3,3.4-4.7,4.6-7.3c1-2.1,1.7-4.2,2-6.5C25.5,10.7,25.5,9.4,25.2,8.3z
	 M15.8,6.4l0.8,0.8l-0.8,0.8L15,7.2L15.8,6.4z M17.3,7.6c0.3,0.4,0.8,1.1,0.8,1.1s-2.6,1.8-3.8-1.5C14.2,7.2,15.5,9.3,17.3,7.6z
	 M18.1,15.6c-2.3,0-2.3-1.5-2.3-2.3c0.5,1.3,2.3,1.5,3.1,0.8s0.8-3-0.4-3.1c-0.9,0-1.2,0.9-1.9,1.5c-0.5,0.4-1.1,0.4-1.5,0
	c0,1.5-0.8,3.1-2.3,3.1c-0.4,0-3.1,0-3.1-3.1c1.1,1.9,3.9,1.8,4.3,0.8c0.2-0.5-0.3-1.3-1.3-1.1c0-0.4,0-1.1,0-1.1
	c0.8,0,1.3-0.3,1.3-0.7s-0.6-0.8-1.3-0.8c0,0-1.1,0-1.5,0.8c-0.3-0.5-0.5-1.1-0.8-1.5c0.9-0.7,2.8-0.9,3.8,0c0.8,0.7,0.9,2,0,2.7
	c0.2,0.2,0.5,0.4,0.8,0.4c0.8,0,0.9-0.5,1.1-0.8c0.5-0.6,0.4-1,1.3-1.2c1.1-0.3,2,0,2.6,1.2C20.8,13,20.3,15.6,18.1,15.6z"/>
</svg>
