<?xml version="1.0" encoding="utf-8"?>
<!-- Generator: Adobe Illustrator 22.1.0, SVG Export Plug-In . SVG Version: 6.00 Build 0)  -->
<svg version="1.1"
	 id="svg4" xmlns:cc="http://creativecommons.org/ns#" xmlns:dc="http://purl.org/dc/elements/1.1/" xmlns:rdf="http://www.w3.org/1999/02/22-rdf-syntax-ns#" xmlns:svg="http://www.w3.org/2000/svg"
	 xmlns="http://www.w3.org/2000/svg" xmlns:xlink="http://www.w3.org/1999/xlink" x="0px" y="0px" viewBox="0 0 30 30"
	 style="enable-background:new 0 0 30 30;" xml:space="preserve">
<g>
	<polygon points="15,16.5 15.9,15 14.1,15 	"/>
	<polygon points="11.1,14.3 12.9,14.3 12,12.8 	"/>
	<polygon points="12.9,9.7 11.1,9.7 12,11.2 	"/>
	<polygon points="15,7.5 14.1,9 15.9,9 	"/>
	<polygon points="17.1,14.3 18.9,14.3 18,12.8 	"/>
	<path d="M25.2,8.3c-0.5-2.2-1.6-4.1-3.3-5.6c-1.7-1.5-3.8-2.5-6.1-2.6c-1.3-0.1-2.6,0-3.9,0.4c-4.3,1.3-7.4,5.4-7.5,9.9
		c0,1.3,0.2,2.7,0.6,4c0.5,1.9,1.3,3.6,2.2,5.3c1,1.8,2,3.4,3.2,5c1.3,1.8,2.8,3.6,4.4,5.2c0,0,0.1,0.1,0.1,0.1
		c0-0.1,0.1-0.1,0.1-0.2c1.3-1.3,2.5-2.7,3.6-4.2c1.8-2.3,3.4-4.7,4.6-7.3c1-2.1,1.7-4.2,2-6.5C25.5,10.7,25.5,9.4,25.2,8.3z
		 M20.1,15h-3.4L15,18l-1.7-3H9.9l1.7-3L9.9,9h3.4L15,6l1.7,3h3.4l-1.7,3L20.1,15z"/>
	<polygon points="17.1,9.7 18,11.2 18.9,9.7 	"/>
	<polygon points="16.3,9.7 13.7,9.7 12.4,12 13.7,14.3 16.3,14.3 17.6,12 	"/>
</g>
</svg>
