<?xml version="1.0" encoding="utf-8"?>
<!-- Generator: Adobe Illustrator 22.1.0, SVG Export Plug-In . SVG Version: 6.00 Build 0)  -->
<svg version="1.1" id="Layer_1" xmlns="http://www.w3.org/2000/svg" xmlns:xlink="http://www.w3.org/1999/xlink" x="0px" y="0px"
	 viewBox="0 0 30 30" style="enable-background:new 0 0 30 30;" xml:space="preserve">
<path d="M25.2,8.3c-0.5-2.2-1.6-4.1-3.3-5.6c-1.7-1.5-3.8-2.5-6.1-2.6c-1.3-0.1-2.6,0-3.9,0.4c-4.3,1.3-7.4,5.4-7.5,9.9
	c0,1.3,0.2,2.7,0.6,4c0.5,1.9,1.3,3.6,2.2,5.3c1,1.8,2,3.4,3.2,5c1.3,1.8,2.8,3.6,4.4,5.2c0,0,0.1,0.1,0.1,0.1
	c0-0.1,0.1-0.1,0.1-0.2c1.3-1.3,2.5-2.7,3.6-4.2c1.8-2.3,3.4-4.7,4.6-7.3c1-2.1,1.7-4.2,2-6.5C25.5,10.7,25.5,9.4,25.2,8.3z
	 M14.3,16.4c-2.5,0-4.4-1.9-4.4-4.4s1.9-4.4,4.4-4.4c1.4,0,2.8,0.5,3.7,1.5c-0.5-0.4-1.5-0.7-2.2-0.7c-1.9,0-3.7,1.8-3.7,3.7
	s1.8,3.7,3.7,3.7c0.7,0,1.7-0.4,2.2-0.7C17.1,15.9,15.7,16.4,14.3,16.4z M19.4,14.2l-1.8-1.1l-1.8,1.1l0.7-1.8L15,11.3h1.8l0.7-1.5
	l0.7,1.5h1.8l-1.5,1.1L19.4,14.2z"/>
</svg>
