<?xml version="1.0" encoding="utf-8"?>
<!-- Generator: Adobe Illustrator 22.1.0, SVG Export Plug-In . SVG Version: 6.00 Build 0)  -->
<svg version="1.1" id="Layer_1" xmlns="http://www.w3.org/2000/svg" xmlns:xlink="http://www.w3.org/1999/xlink" x="0px" y="0px"
	 viewBox="0 0 30 30" style="enable-background:new 0 0 30 30;" xml:space="preserve">
<g>
	<path d="M16.3,9.8c0,0-0.2-0.1-0.2-0.3h-0.6v0.6h0.6C16.1,9.9,16.3,9.8,16.3,9.8z"/>
	<path d="M13.7,9.8c0,0,0.2,0.1,0.2,0.3h0.6V9.5c0,0-0.6,0-0.6,0C13.9,9.7,13.7,9.8,13.7,9.8z"/>
	<path d="M25.2,8.3c-0.5-2.2-1.6-4.1-3.3-5.6c-1.7-1.5-3.8-2.5-6.1-2.6c-1.3-0.1-2.6,0-3.9,0.4c-4.3,1.3-7.4,5.4-7.5,9.9
		c0,1.3,0.2,2.7,0.6,4c0.5,1.9,1.3,3.6,2.2,5.3c1,1.8,2,3.4,3.2,5c1.3,1.8,2.8,3.6,4.4,5.2c0,0,0.1,0.1,0.1,0.1
		c0-0.1,0.1-0.1,0.1-0.2c1.3-1.3,2.5-2.7,3.6-4.2c1.8-2.3,3.4-4.7,4.6-7.3c1-2.1,1.7-4.2,2-6.5C25.5,10.7,25.5,9.4,25.2,8.3z
		 M18.8,8.8c-0.3,0.2-0.6,0.2-0.6,0.3c0,0,0,0.3-0.3,0.3h-0.8c0,0.2-0.2,0.3-0.2,0.3s0.2,0.1,0.2,0.3h0.8c0.1,0,0.3,0,0.3,0.3
		s0,0.6,0,0.6c0,0.2-0.2,0.3-0.3,0.3c-0.2,0-0.8,0-0.8,0V12h0.5c0,0.3-0.2,0.4-0.5,0.6c0,0.2,0,3.5,0,3.5c0,0.4-0.9,0.4-0.9,0v-4.7
		h-2.2v4.7c0,0.5-0.9,0.4-0.9,0c0,0,0-3.3,0-3.5c-0.3-0.2-0.5-0.4-0.5-0.6h0.5v-0.6c0,0-0.6,0-0.8,0s-0.3-0.2-0.3-0.3
		c0,0,0-0.3,0-0.6c0-0.2,0-0.3,0.3-0.3h0.8c0-0.2,0.2-0.3,0.2-0.3s-0.2-0.1-0.2-0.3h-0.8c-0.3,0-0.4-0.3-0.4-0.3
		c0-0.2-0.3-0.1-0.5-0.3s-0.6-0.6-0.6-1.3c3.2,0.6,5,0.6,8.8,0C19.4,8.2,19,8.6,18.8,8.8z"/>
</g>
</svg>
