<?xml version="1.0" encoding="utf-8"?>
<!-- Generator: Adobe Illustrator 22.1.0, SVG Export Plug-In . SVG Version: 6.00 Build 0)  -->
<svg version="1.1" id="Layer_1" xmlns="http://www.w3.org/2000/svg" xmlns:xlink="http://www.w3.org/1999/xlink" x="0px" y="0px"
	 viewBox="0 0 30 30" style="enable-background:new 0 0 30 30;" xml:space="preserve">
<g>
	<path d="M25.2,8.3c-0.5-2.2-1.6-4.1-3.3-5.6c-1.7-1.5-3.8-2.5-6.1-2.6c-1.3-0.1-2.6,0-3.9,0.4c-4.3,1.3-7.4,5.4-7.5,9.9
		c0,1.3,0.2,2.7,0.6,4c0.5,1.9,1.3,3.6,2.2,5.3c1,1.8,2,3.4,3.2,5c1.3,1.8,2.8,3.6,4.4,5.2c0,0,0.1,0.1,0.1,0.1
		c0-0.1,0.1-0.1,0.1-0.2c1.3-1.3,2.5-2.7,3.6-4.2c1.8-2.3,3.4-4.7,4.6-7.3c1-2.1,1.7-4.2,2-6.5C25.5,10.7,25.5,9.4,25.2,8.3z
		 M13.2,15.3c-0.2,0-0.4-0.2-0.4-0.4c0-0.2,0.2-0.4,0.4-0.4s0.4,0.2,0.4,0.4C13.6,15.1,13.4,15.3,13.2,15.3z M16.8,15.3
		c-0.2,0-0.4-0.2-0.4-0.4c0-0.2,0.2-0.4,0.4-0.4s0.4,0.2,0.4,0.4C17.1,15.1,17,15.3,16.8,15.3z M17.1,13.9l-0.7-0.7l-0.9,0.5
		c0.4,0.2,0.9,0.6,0.9,0.6l-0.4,0.4l-0.7-0.4v0.5c0.2,0.1,0.4,0.3,0.4,0.6c0,0.4-0.3,0.7-0.7,0.7c-0.4,0-0.7-0.3-0.7-0.7
		c0-0.3,0.2-0.5,0.4-0.6v-0.5l-0.8,0.4l-0.4-0.4c0,0,0.5-0.3,0.9-0.6l-0.9-0.5l-0.7,0.7c0-0.7-2.1-1.4-2.1-3.6
		c0-1.9,1.4-3.2,2.8-3.6c-1.8,1.1-2.2,3.6-0.7,5c0.4,0.4,1.1,0.9,1.8,1.4v-0.3l-0.4-0.4c0.1-0.3,0.1-0.6,0.1-0.8
		c-0.9-0.3-1.5-1.1-1.5-2c0-1,0.6-1.8,1.5-2c0-0.3,0-0.5-0.1-0.8L15,6l0.7,0.7c0,0.3-0.1,0.6-0.1,0.8c0.9,0.3,1.5,1.1,1.5,2
		c0,1-0.7,1.8-1.5,2c0,0.3,0.1,0.5,0.1,0.8l-0.4,0.4v0.3c0.7-0.4,1.4-1,1.8-1.4c1.5-1.4,1.1-3.9-0.7-5c1.4,0.4,2.9,1.6,2.9,3.6
		C19.3,12.4,17.1,13.1,17.1,13.9z"/>
	<path d="M14.4,8.3c-0.5,0.2-0.9,0.7-0.9,1.3c0,0.6,0.4,1.1,0.9,1.3C14.6,10,14.5,9.2,14.4,8.3C14.4,8.3,14.4,8.3,14.4,8.3z"/>
	<path d="M16.4,9.6c0-0.6-0.4-1.1-0.9-1.3c-0.1,0.9-0.1,1.8,0,2.7C16,10.7,16.4,10.2,16.4,9.6z"/>
</g>
</svg>
