<?xml version="1.0" encoding="utf-8"?>
<!-- Generator: Adobe Illustrator 22.1.0, SVG Export Plug-In . SVG Version: 6.00 Build 0)  -->
<svg version="1.1"
	 id="svg2" xmlns:cc="http://creativecommons.org/ns#" xmlns:dc="http://purl.org/dc/elements/1.1/" xmlns:rdf="http://www.w3.org/1999/02/22-rdf-syntax-ns#" xmlns:svg="http://www.w3.org/2000/svg"
	 xmlns="http://www.w3.org/2000/svg" xmlns:xlink="http://www.w3.org/1999/xlink" x="0px" y="0px" viewBox="0 0 30 30"
	 style="enable-background:new 0 0 30 30;" xml:space="preserve">

<g>
	<path d="M13.6,6.8L13.6,6.8c-0.6,0-1,0.5-1,1c0,0.6,0.5,1,1,1l0,0c0.6,0,1-0.5,1-1l0,0C14.7,7.2,14.2,6.8,13.6,6.8z"/>
	<path d="M17.6,7.8c0-0.6-0.5-1-1-1c-0.6,0-1,0.5-1,1l0,0c0,0.6,0.5,1,1,1l0,0C17.1,8.8,17.6,8.4,17.6,7.8z"/>
	<path d="M11.9,9.1L11.9,9.1c-0.6,0-1,0.5-1,1c0,0.6,0.5,1,1,1c0.6,0,1-0.5,1-1l0,0C12.9,9.6,12.5,9.1,11.9,9.1z"/>
	<path d="M25.3,8.3c-0.5-2.2-1.6-4.1-3.3-5.6c-1.7-1.5-3.8-2.5-6.1-2.6c-1.3-0.1-2.6,0-3.9,0.4c-4.3,1.3-7.4,5.4-7.5,9.9
		c0,1.3,0.2,2.7,0.6,4c0.5,1.9,1.3,3.6,2.2,5.3c1,1.8,2,3.4,3.2,5c1.3,1.8,2.8,3.6,4.4,5.2L15,30c0-0.1,0.1-0.1,0.1-0.2
		c1.3-1.3,2.5-2.7,3.6-4.2c1.8-2.3,3.4-4.7,4.6-7.3c1-2.1,1.7-4.2,2-6.5C25.6,10.7,25.6,9.4,25.3,8.3z M17.4,13.3h-1
		c-0.5,0-0.9,0.4-0.9,0.9c0,0.2,0.1,0.4,0.2,0.6c0.1,0.2,0.2,0.4,0.2,0.6c0,0.5-0.4,0.9-0.9,0.9c-2.9,0-5.2-2.3-5.2-5.2
		s2.3-5.2,5.2-5.2s5.2,2.1,5.2,4.6C20.3,12,19,13.3,17.4,13.3z"/>
	<path d="M18.3,9.1c-0.6,0-1,0.5-1,1c0,0.6,0.5,1,1,1c0.6,0,1-0.5,1-1l0,0C19.3,9.6,18.9,9.1,18.3,9.1L18.3,9.1z"/>
</g>
</svg>
