<?xml version="1.0" encoding="utf-8"?>
<!-- Generator: Adobe Illustrator 22.1.0, SVG Export Plug-In . SVG Version: 6.00 Build 0)  -->
<svg version="1.1"
	 id="svg2" xmlns:cc="http://creativecommons.org/ns#" xmlns:dc="http://purl.org/dc/elements/1.1/" xmlns:rdf="http://www.w3.org/1999/02/22-rdf-syntax-ns#" xmlns:svg="http://www.w3.org/2000/svg"
	 xmlns="http://www.w3.org/2000/svg" xmlns:xlink="http://www.w3.org/1999/xlink" x="0px" y="0px" viewBox="0 0 30 30"
	 style="enable-background:new 0 0 30 30;" xml:space="preserve">

<path d="M25.3,8.3c-0.5-2.2-1.6-4.1-3.3-5.6c-1.7-1.5-3.8-2.5-6.1-2.6c-1.3-0.1-2.6,0-3.9,0.4c-4.3,1.3-7.4,5.4-7.5,9.9
	c0,1.3,0.2,2.7,0.6,4c0.5,1.9,1.3,3.6,2.2,5.3c1,1.8,2,3.4,3.2,5c1.3,1.8,2.8,3.6,4.4,5.2L15,30c0-0.1,0.1-0.1,0.1-0.2
	c1.3-1.3,2.5-2.7,3.6-4.2c1.8-2.3,3.4-4.7,4.6-7.3c1-2.1,1.7-4.2,2-6.5C25.6,10.7,25.6,9.4,25.3,8.3z M18.5,12.9
	c0,0-0.1,0.1-0.1,0.2V16l-1.6-1.9c-0.2,0.1-0.5,0.2-0.8,0.2l-0.9,2.5l-1.2-2.5c-0.2,0-0.3-0.1-0.5-0.1l-1.6,2.6l-0.3-3.2l-2.1,1.6
	l1.1-2.8l0,0l-0.1-0.1c-0.1-0.1,3,0.9,5.7,0.5l3.2-1.4c0,0.1-0.1,0.3-0.2,0.5l1.5,2.6L18.5,12.9z M15.5,8.7c-1.2-0.1-1.5,0.1-2,0.4
	C12.6,10,12.3,11,11.1,11c-0.5,0-1.1-0.3-1.6-0.3c0-0.8,0.8-1.6,1.6-2.4c0.8-0.8,1.6-1.2,2.4-1.2c0.8,0,1.6,0,2.4,0.4
	c2,0.8,3.5,2.2,4.8,3.5C19.1,10,16.7,9,15.5,8.7z"/>
</svg>
