<?xml version="1.0" encoding="utf-8"?>
<!-- Generator: Adobe Illustrator 22.1.0, SVG Export Plug-In . SVG Version: 6.00 Build 0)  -->
<svg version="1.1"
	 id="svg2" xmlns:cc="http://creativecommons.org/ns#" xmlns:dc="http://purl.org/dc/elements/1.1/" xmlns:rdf="http://www.w3.org/1999/02/22-rdf-syntax-ns#" xmlns:svg="http://www.w3.org/2000/svg"
	 xmlns="http://www.w3.org/2000/svg" xmlns:xlink="http://www.w3.org/1999/xlink" x="0px" y="0px" viewBox="0 0 30 30"
	 style="enable-background:new 0 0 30 30;" xml:space="preserve">

<g>
	<path d="M20,11.5c0-0.4-0.4-0.8-0.8-0.8s-0.8,0.4-0.8,0.8l0,0c0,0.4,0.4,0.8,0.8,0.8S20,11.9,20,11.5z"/>
	<path d="M17.4,6.9h-4.5c-0.5,0-0.9,0.4-0.9,0.9v1.4h6.3V7.8C18.3,7.3,17.9,6.9,17.4,6.9z"/>
	<path d="M11,10.6c-0.4,0-0.8,0.4-0.8,0.8l0,0c0,0.4,0.4,0.8,0.8,0.8c0.4,0,0.8-0.4,0.8-0.8S11.5,10.6,11,10.6z"/>
	<path d="M25.3,8.3c-0.5-2.2-1.6-4.1-3.3-5.6c-1.7-1.5-3.8-2.5-6.1-2.6c-1.3-0.1-2.6,0-3.9,0.4c-4.3,1.3-7.4,5.4-7.5,9.9
		c0,1.3,0.2,2.7,0.6,4c0.5,1.9,1.3,3.6,2.2,5.3c1,1.8,2,3.4,3.2,5c1.3,1.8,2.8,3.6,4.4,5.2L15,30c0-0.1,0.1-0.1,0.1-0.2
		c1.3-1.3,2.5-2.7,3.6-4.2c1.8-2.3,3.4-4.7,4.6-7.3c1-2.1,1.7-4.2,2-6.5C25.6,10.7,25.6,9.4,25.3,8.3z M21.4,13.3
		c0,0.6-0.4,1.1-0.9,1.3v1.9h-1.8v-1.8h-7.2v1.8H9.7v-1.9c-0.5-0.2-0.9-0.7-0.9-1.3v-2.7c0-0.7,0.6-1.4,1.4-1.4h0.5V6.9
		c0-0.7,0.6-1.4,1.4-1.4h6.3c0.7,0,1.4,0.6,1.4,1.4v2.3h0.3c0.7,0,1.4,0.6,1.4,1.4v2.7H21.4z"/>
</g>
</svg>
