<?xml version="1.0" encoding="utf-8"?>
<!-- Generator: Adobe Illustrator 22.1.0, SVG Export Plug-In . SVG Version: 6.00 Build 0)  -->
<svg version="1.1"
	 id="svg3800" xmlns:cc="http://creativecommons.org/ns#" xmlns:dc="http://purl.org/dc/elements/1.1/" xmlns:rdf="http://www.w3.org/1999/02/22-rdf-syntax-ns#" xmlns:svg="http://www.w3.org/2000/svg"
	 xmlns="http://www.w3.org/2000/svg" xmlns:xlink="http://www.w3.org/1999/xlink" x="0px" y="0px" viewBox="0 0 30 30"
	 style="enable-background:new 0 0 30 30;" xml:space="preserve">
<g>
	<polygon points="16.8,11 13.4,11 12.9,12.7 17.3,12.7 	"/>
	<path d="M17.6,13.7c-0.3,0-0.6,0.3-0.6,0.6s0.3,0.6,0.6,0.6s0.6-0.3,0.6-0.6S18,13.7,17.6,13.7z"/>
	<path d="M12.6,13.7c-0.3,0-0.6,0.3-0.6,0.6s0.3,0.6,0.6,0.6s0.6-0.3,0.6-0.6S12.9,13.7,12.6,13.7z"/>
	<path d="M25.3,8.3c-0.5-2.2-1.6-4.1-3.3-5.6c-1.7-1.5-3.8-2.5-6.1-2.6c-1.3-0.1-2.6,0-3.9,0.4c-4.3,1.3-7.4,5.4-7.5,9.9
		c0,1.3,0.2,2.7,0.6,4c0.5,1.9,1.3,3.6,2.2,5.3c1,1.8,2,3.4,3.2,5c1.3,1.8,2.8,3.6,4.4,5.2L15,30c0-0.1,0.1-0.1,0.1-0.2
		c1.3-1.3,2.5-2.7,3.6-4.2c1.8-2.3,3.4-4.7,4.6-7.3c1-2.1,1.7-4.2,2-6.5C25.6,10.7,25.6,9.4,25.3,8.3z M19.3,16h-0.8
		c0,0,0,0.8-0.8,0.8S16.8,16,16.8,16h-3.3c0,0,0,0.8-0.8,0.8S11.8,16,11.8,16H11v-2.5c0-0.5,0.4-0.8,0.8-0.8l0.8-2.5h5l0.8,2.5
		c0.5,0,0.8,0.4,0.8,0.8V16H19.3z M18.4,8.5c-0.6,0-1.2-0.3-1.5-0.8H13c-0.3,0.5-0.8,0.8-1.5,0.8c-0.6,0-1.1-0.3-1.5-0.8h2l0.5-0.8
		L12.1,6h-2c0.3-0.5,0.9-0.8,1.5-0.8s1.2,0.3,1.5,0.8H17c0.3-0.5,0.8-0.8,1.5-0.8c0.9,0,1.7,0.7,1.7,1.7C20.1,7.7,19.3,8.5,18.4,8.5
		z"/>
	<polygon points="17.9,6 17.4,6.8 17.9,7.7 18.9,7.7 19.4,6.8 18.9,6 	"/>
</g>
</svg>
