<?xml version="1.0" encoding="utf-8"?>
<!-- Generator: Adobe Illustrator 22.1.0, SVG Export Plug-In . SVG Version: 6.00 Build 0)  -->
<svg version="1.1"
	 id="svg2" xmlns:cc="http://creativecommons.org/ns#" xmlns:dc="http://purl.org/dc/elements/1.1/" xmlns:rdf="http://www.w3.org/1999/02/22-rdf-syntax-ns#" xmlns:svg="http://www.w3.org/2000/svg"
	 xmlns="http://www.w3.org/2000/svg" xmlns:xlink="http://www.w3.org/1999/xlink" x="0px" y="0px" viewBox="0 0 30 30"
	 style="enable-background:new 0 0 30 30;" xml:space="preserve">
<g>
	<polygon points="14.4,8.9 15.8,9.6 15.8,8.9 14.4,8.1 13,8.9 11.5,8.1 11.5,8.9 13,9.6 	"/>
	<polygon points="14.4,14.6 15.8,15.3 15.8,14.6 14.4,13.9 13,14.6 11.5,13.9 11.5,14.6 13,15.3 	"/>
	<polygon points="14.4,12.7 15.8,13.4 15.8,12.7 14.4,12 13,12.7 11.5,12 11.5,12.7 13,13.4 	"/>
	<polygon points="14.4,10.8 15.8,11.5 15.8,10.8 14.4,10 13,10.8 11.5,10 11.5,10.8 13,11.5 	"/>
	<circle cx="18.7" cy="14.6" r="0.7"/>
	<path d="M25.3,8.3c-0.5-2.2-1.6-4.1-3.3-5.6c-1.7-1.5-3.8-2.5-6.1-2.6c-1.3-0.1-2.6,0-3.9,0.4c-4.3,1.3-7.4,5.4-7.5,9.9
		c0,1.3,0.2,2.7,0.6,4c0.5,1.9,1.3,3.6,2.2,5.3c1,1.8,2,3.4,3.2,5c1.3,1.8,2.8,3.6,4.4,5.2L15,30c0-0.1,0.1-0.1,0.1-0.2
		c1.3-1.3,2.5-2.7,3.6-4.2c1.8-2.3,3.4-4.7,4.6-7.3c1-2.1,1.7-4.2,2-6.5C25.6,10.7,25.6,9.4,25.3,8.3z M16.5,16h-6.4v-0.7h0.7v-0.9
		h-0.7v-0.7h0.7v-0.9h-0.7v-0.7h0.7v-0.9h-0.7v-0.7h0.7V9.7h-0.7V9h0.7V8.1h-0.7V7.4h6.4V16z M20.1,14.6c0,0.8-0.6,1.4-1.4,1.4
		s-1.4-0.6-1.4-1.4V7.4c0-0.8,0.6-1.4,1.4-1.4s1.4,0.6,1.4,1.4V14.6z"/>
</g>
</svg>
