<?xml version="1.0" encoding="utf-8"?>
<!-- Generator: Adobe Illustrator 22.1.0, SVG Export Plug-In . SVG Version: 6.00 Build 0)  -->
<svg version="1.1"
	 id="svg2" xmlns:cc="http://creativecommons.org/ns#" xmlns:dc="http://purl.org/dc/elements/1.1/" xmlns:rdf="http://www.w3.org/1999/02/22-rdf-syntax-ns#" xmlns:svg="http://www.w3.org/2000/svg"
	 xmlns="http://www.w3.org/2000/svg" xmlns:xlink="http://www.w3.org/1999/xlink" x="0px" y="0px" viewBox="0 0 30 30"
	 style="enable-background:new 0 0 30 30;" xml:space="preserve">

<path d="M25.3,8.3c-0.5-2.2-1.6-4.1-3.3-5.6c-1.7-1.5-3.8-2.5-6.1-2.6c-1.3-0.1-2.6,0-3.9,0.4c-4.3,1.3-7.4,5.4-7.5,9.9
	c0,1.3,0.2,2.7,0.6,4c0.5,1.9,1.3,3.6,2.2,5.3c1,1.8,2,3.4,3.2,5c1.3,1.8,2.8,3.6,4.4,5.2L15,30c0-0.1,0.1-0.1,0.1-0.2
	c1.3-1.3,2.5-2.7,3.6-4.2c1.8-2.3,3.4-4.7,4.6-7.3c1-2.1,1.7-4.2,2-6.5C25.6,10.7,25.6,9.4,25.3,8.3z M15.1,5.4
	c0.7,0,1.4,0.5,1.6,1.2V7c0,0.9-0.7,1.6-1.6,1.6c-0.9,0-1.6-0.7-1.6-1.6S14.2,5.4,15.1,5.4z M18.3,15.8c-0.8,0.8-1.6,0.8-3.2,0.8
	s-2.4,0-3.2-0.8l-1.6-4c0.6,0.1,1.1,0.7,1.6,0.8c0.3,0.1,1.3-0.8,1.6-0.8c0.8,0.1,1,0.7,1.6,0.8s0.9-0.6,1.6-0.8
	c0.4-0.1,1.1,0.8,1.6,0.8c0.6,0.1,1-0.7,1.6-0.8L18.3,15.8z M19.5,11c-0.4-0.8-1.2-1.2-2-1.2S15.9,11,15.1,11s-1.6-1.1-2.4-1.2
	c-0.8,0-1.6,0.4-1.9,1.2c-0.3,0-0.7,0-0.9,0c0-0.8,1.3-2.4,2.9-2.4c0.8,0,1.6,1.3,2.4,1.2c0.8,0.1,1.6-1.2,2.4-1.2
	c1.6,0,2.9,1.6,2.9,2.4C20.1,11,19.8,11,19.5,11z"/>
</svg>
