<?xml version="1.0" encoding="utf-8"?>
<!-- Generator: Adobe Illustrator 22.1.0, SVG Export Plug-In . SVG Version: 6.00 Build 0)  -->
<svg version="1.1"
	 id="svg2" xmlns:cc="http://creativecommons.org/ns#" xmlns:dc="http://purl.org/dc/elements/1.1/" xmlns:rdf="http://www.w3.org/1999/02/22-rdf-syntax-ns#" xmlns:svg="http://www.w3.org/2000/svg"
	 xmlns="http://www.w3.org/2000/svg" xmlns:xlink="http://www.w3.org/1999/xlink" x="0px" y="0px" viewBox="0 0 30 30"
	 style="enable-background:new 0 0 30 30;" xml:space="preserve">
<g>
	<polygon points="17.2,10.1 17.2,11 18.1,11 	"/>
	<path d="M16.5,9.6h-2.1v5.5h4.2v-3.5h-2.1V9.6z M15.1,10.3h0.7v0.3h-0.7V10.3z M15.1,11h0.7v0.3h-0.7V11z M15.1,11.7h0.7V12h-0.7
		V11.7z M17.9,14.1h-2.8v-0.3h2.8V14.1z M17.9,13.4h-2.8v-0.3h2.8V13.4z M17.9,12.4v0.3h-2.8v-0.3H17.9z"/>
	<path d="M25.3,8.3c-0.5-2.2-1.6-4.1-3.3-5.6c-1.7-1.5-3.8-2.5-6.1-2.6c-1.3-0.1-2.6,0-3.9,0.4c-4.3,1.3-7.4,5.4-7.5,9.9
		c0,1.3,0.2,2.7,0.6,4c0.5,1.9,1.3,3.6,2.2,5.3c1,1.8,2,3.4,3.2,5c1.3,1.8,2.8,3.6,4.4,5.2L15,30c0-0.1,0.1-0.1,0.1-0.2
		c1.3-1.3,2.5-2.7,3.6-4.2c1.8-2.3,3.4-4.7,4.6-7.3c1-2.1,1.7-4.2,2-6.5C25.6,10.7,25.6,9.4,25.3,8.3z M13,13.1h-2.1V6.2h5.6v2.1
		h-0.7V6.8h-4.2v5.5H13V13.1z M15.1,7.5v0.3h-2.8V7.5H15.1z M13,11.3h-0.7V11H13V11.3z M13,10.6h-0.7v-0.3H13V10.6z M13,10h-0.7V9.6
		H13V10z M13,9.3h-0.7V8.9H13V9.3z M13,8.6h-0.7V8.2H13V8.6z M19.3,15.8h-5.5V8.9h3.3l2.3,2.3L19.3,15.8L19.3,15.8z"/>
</g>
</svg>
