<?xml version="1.0" encoding="utf-8"?>
<!-- Generator: Adobe Illustrator 22.1.0, SVG Export Plug-In . SVG Version: 6.00 Build 0)  -->
<svg version="1.1"
	 id="shop_dairy" xmlns:cc="http://creativecommons.org/ns#" xmlns:dc="http://purl.org/dc/elements/1.1/" xmlns:rdf="http://www.w3.org/1999/02/22-rdf-syntax-ns#" xmlns:svg="http://www.w3.org/2000/svg"
	 xmlns="http://www.w3.org/2000/svg" xmlns:xlink="http://www.w3.org/1999/xlink" x="0px" y="0px" viewBox="0 0 30 30"
	 style="enable-background:new 0 0 30 30;" xml:space="preserve">
<g>
	<path d="M13.7,9.5c0.2-0.5,0.4-1,0.6-1.5l0,0h-3.2l-0.7,1.5c0,2,0,4.1,0,6.1h2v-3.7h1.2V9.5H13.7z"/>
	<path d="M13.9,12.5c-0.4,0-0.7,0.3-0.7,0.7s0.3,0.7,0.7,0.7s0.7-0.3,0.7-0.7S14.3,12.5,13.9,12.5z"/>
	<polygon points="13.9,9.5 13.9,9.5 13.9,11.9 15,11.9 15,9.5 14.5,8.3 	"/>
	<rect x="11.2" y="6.4" width="3.1" height="1.4"/>
	<path d="M25.3,8.3c-0.5-2.2-1.6-4.1-3.3-5.6c-1.7-1.5-3.8-2.5-6.1-2.6c-1.3-0.1-2.6,0-3.9,0.4c-4.3,1.3-7.4,5.4-7.5,9.9
		c0,1.3,0.2,2.7,0.6,4c0.5,1.9,1.3,3.6,2.2,5.3c1,1.8,2,3.4,3.2,5c1.3,1.8,2.8,3.6,4.4,5.2L15,30c0-0.1,0.1-0.1,0.1-0.2
		c1.3-1.3,2.5-2.7,3.6-4.2c1.8-2.3,3.4-4.7,4.6-7.3c1-2.1,1.7-4.2,2-6.5C25.6,10.7,25.6,9.4,25.3,8.3z M20.2,16.1h-9.9
		c-0.1,0-0.2-0.1-0.2-0.2V9.5V9.4l0.7-1.6V6.1c0-0.1,0.1-0.2,0.2-0.2h3.6c0.1,0,0.2,0.1,0.2,0.2v1.7l0.7,1.6v0.1c0,0.8,0,1.6,0,2.4
		h4.7C20.2,11.9,20.2,16.1,20.2,16.1z"/>
	<path d="M18.5,14.7c0.5,0,0.9-0.4,0.9-0.9s-0.4-0.9-0.9-0.9s-0.9,0.4-0.9,0.9S18,14.7,18.5,14.7z"/>
	<path d="M15.1,14.7c0,0.4,0.4,0.8,0.8,0.8c0.4,0,0.8-0.4,0.8-0.8c0-0.4-0.4-0.8-0.8-0.8C15.5,13.9,15.1,14.3,15.1,14.7z"/>
</g>
</svg>
