<?xml version="1.0" encoding="utf-8"?>
<!-- Generator: Adobe Illustrator 22.1.0, SVG Export Plug-In . SVG Version: 6.00 Build 0)  -->
<svg version="1.1"
	 id="svg2" xmlns:cc="http://creativecommons.org/ns#" xmlns:dc="http://purl.org/dc/elements/1.1/" xmlns:rdf="http://www.w3.org/1999/02/22-rdf-syntax-ns#" xmlns:svg="http://www.w3.org/2000/svg"
	 xmlns="http://www.w3.org/2000/svg" xmlns:xlink="http://www.w3.org/1999/xlink" x="0px" y="0px" viewBox="0 0 30 30"
	 style="enable-background:new 0 0 30 30;" xml:space="preserve">

<g>
	<path d="M17.4,12.8l-1.1-0.2c-0.1,0.2-0.1,0.3-0.2,0.4c-0.3-0.2-0.5-0.4-0.8-0.7c0.3-0.2,0.5-0.3,0.6-0.4c0.1-0.1,0.2-0.2,0.3-0.4
		s0.1-0.3,0.1-0.5c0-0.3-0.1-0.6-0.4-0.8c-0.3-0.2-0.7-0.3-1.2-0.3c-0.6,0-1,0.1-1.2,0.3c-0.3,0.2-0.4,0.5-0.4,0.9
		c0,0.2,0,0.3,0.1,0.5s0.2,0.4,0.4,0.6c-0.4,0.2-0.8,0.4-0.9,0.6c-0.2,0.3-0.3,0.5-0.3,0.8c0,0.4,0.2,0.7,0.5,1s0.8,0.4,1.5,0.4
		c0.4,0,0.8-0.1,1.1-0.2c0.2-0.1,0.5-0.2,0.7-0.4c0.1,0.1,0.2,0.2,0.4,0.2c0.1,0.1,0.3,0.2,0.4,0.3l0.8-0.9
		c-0.1-0.1-0.2-0.1-0.2-0.1l-0.5-0.4c0.1-0.2,0.2-0.3,0.2-0.4C17.3,13.2,17.4,13,17.4,12.8z M14.5,10.8c0.1-0.1,0.2-0.1,0.3-0.1
		s0.3,0,0.3,0.1c0.1,0.1,0.1,0.2,0.1,0.3s0,0.2-0.1,0.3s-0.2,0.2-0.4,0.3c-0.3-0.3-0.4-0.5-0.4-0.6C14.4,10.9,14.4,10.8,14.5,10.8z
		 M14.5,14.2c-0.2,0-0.4-0.1-0.6-0.2c-0.1-0.1-0.2-0.3-0.2-0.4c0-0.1,0-0.2,0.1-0.3s0.2-0.2,0.4-0.3c0.5,0.4,0.8,0.8,1.1,1
		C15.1,14.1,14.8,14.2,14.5,14.2z"/>
	<path d="M25.3,8.3c-0.5-2.2-1.6-4.1-3.3-5.6c-1.7-1.5-3.8-2.5-6.1-2.6c-1.3-0.1-2.6,0-3.9,0.4c-4.3,1.3-7.4,5.4-7.5,9.9
		c0,1.3,0.2,2.7,0.6,4c0.5,1.9,1.3,3.6,2.2,5.3c1,1.8,2,3.4,3.2,5c1.3,1.8,2.8,3.6,4.4,5.2L15,30c0-0.1,0.1-0.1,0.1-0.2
		c1.3-1.3,2.5-2.7,3.6-4.2c1.8-2.3,3.4-4.7,4.6-7.3c1-2.1,1.7-4.2,2-6.5C25.6,10.7,25.6,9.4,25.3,8.3z M19.5,15.4
		c0,0.7,0,0.7-0.7,0.7h-7.4c-0.7,0-0.7,0-0.7-0.7V8.8h2.2V6.6c0-0.7,0-0.7,0.7-0.7h3c0.7,0,0.7,0,0.7,0.7v2.2h2.2
		C19.5,8.8,19.5,15.4,19.5,15.4z"/>
	<rect x="13.6" y="6.6" width="3" height="2.2"/>
</g>
</svg>
