<?xml version="1.0" encoding="utf-8"?>
<!-- Generator: Adobe Illustrator 22.1.0, SVG Export Plug-In . SVG Version: 6.00 Build 0)  -->
<svg version="1.1"
	 id="svg2" xmlns:cc="http://creativecommons.org/ns#" xmlns:dc="http://purl.org/dc/elements/1.1/" xmlns:rdf="http://www.w3.org/1999/02/22-rdf-syntax-ns#" xmlns:svg="http://www.w3.org/2000/svg"
	 xmlns="http://www.w3.org/2000/svg" xmlns:xlink="http://www.w3.org/1999/xlink" x="0px" y="0px" viewBox="0 0 30 30"
	 style="enable-background:new 0 0 30 30;" xml:space="preserve">

<g>
	<path d="M19,12.7c-0.4,0-0.7,0.3-0.7,0.7s0.3,0.7,0.7,0.7s0.7-0.3,0.7-0.7S19.4,12.7,19,12.7z"/>
	<path d="M19,10.3c-0.4,0-0.7,0.3-0.7,0.7s0.3,0.7,0.7,0.7s0.7-0.3,0.7-0.7S19.4,10.3,19,10.3z"/>
	<path d="M25.3,8.3c-0.5-2.2-1.6-4.1-3.3-5.6c-1.7-1.5-3.8-2.5-6.1-2.6c-1.3-0.1-2.6,0-3.9,0.4c-4.3,1.3-7.4,5.4-7.5,9.9
		c0,1.3,0.2,2.7,0.6,4c0.5,1.9,1.3,3.6,2.2,5.3c1,1.8,2,3.4,3.2,5c1.3,1.8,2.8,3.6,4.4,5.2L15,30c0-0.1,0.1-0.1,0.1-0.2
		c1.3-1.3,2.5-2.7,3.6-4.2c1.8-2.3,3.4-4.7,4.6-7.3c1-2.1,1.7-4.2,2-6.5C25.6,10.7,25.6,9.4,25.3,8.3z M20.6,15
		c0,0.8-0.8,1.6-1.6,1.6h-7.9c-0.8,0-1.6-0.8-1.6-1.6v-4.7c0-0.8,0.8-1.6,1.6-1.6h2.5l-1.5-1.6c-0.2-0.2-0.2-0.5,0-0.7
		s0.6-0.2,0.7,0l1.5,1.5l2.3-2.3c0.1-0.1,0.2-0.1,0.3-0.1c0.3,0,0.7,0.5,0.3,0.8l-2.3,2.3h4c0.8,0,1.6,0.8,1.6,1.6V15H20.6z"/>
	<ellipse cx="14.3" cy="12.6" rx="3.2" ry="2.4"/>
</g>
</svg>
