<?xml version="1.0" encoding="utf-8"?>
<!-- Generator: Adobe Illustrator 22.1.0, SVG Export Plug-In . SVG Version: 6.00 Build 0)  -->
<svg version="1.1"
	 id="svg2" xmlns:cc="http://creativecommons.org/ns#" xmlns:dc="http://purl.org/dc/elements/1.1/" xmlns:rdf="http://www.w3.org/1999/02/22-rdf-syntax-ns#" xmlns:svg="http://www.w3.org/2000/svg"
	 xmlns="http://www.w3.org/2000/svg" xmlns:xlink="http://www.w3.org/1999/xlink" x="0px" y="0px" viewBox="0 0 30 30"
	 style="enable-background:new 0 0 30 30;" xml:space="preserve">
<path d="M25.3,8.3c-0.5-2.2-1.6-4.1-3.3-5.6c-1.7-1.5-3.8-2.5-6.1-2.6c-1.3-0.1-2.6,0-3.9,0.4c-4.3,1.3-7.4,5.4-7.5,9.9
	c0,1.3,0.2,2.7,0.6,4c0.5,1.9,1.3,3.6,2.2,5.3c1,1.8,2,3.4,3.2,5c1.3,1.8,2.8,3.6,4.4,5.2L15,30c0-0.1,0.1-0.1,0.1-0.2
	c1.3-1.3,2.5-2.7,3.6-4.2c1.8-2.3,3.4-4.7,4.6-7.3c1-2.1,1.7-4.2,2-6.5C25.6,10.7,25.6,9.4,25.3,8.3z M17.7,7.5h0.6
	c0,0.9,0,1.7,0,2.6h-0.6C17.7,9.2,17.7,8.4,17.7,7.5z M15.7,7.5h0.6v0.6h-0.6V7.5z M15.1,8.8c0.6,0,1.3,0,1.9,0v0.6
	c-0.6,0-1.3,0-1.9,0V8.8z M16.4,10.1c0,0.9,0,1.7,0,2.6h-0.6c0-0.9,0-1.7,0-2.6H16.4z M15.1,10.7v0.6c-0.6,0-1.3,0-1.9,0v-0.6
	C13.8,10.7,14.5,10.7,15.1,10.7z M14.5,12v0.6h-0.6V12H14.5z M13.8,7.5h0.6c0,0.9,0,1.7,0,2.6h-0.6C13.8,9.2,13.8,8.4,13.8,7.5z
	 M11.9,7.5h0.6v0.6h-0.6V7.5z M10.6,8.8c0.9,0,1.7,0,2.6,0v0.6c-0.9,0-1.7,0-2.6,0V8.8z M12.5,10.1c0,0.9,0,1.7,0,2.6h-0.6
	c0-0.9,0-1.7,0-2.6H12.5z M10.6,10.7h0.6v0.6h-0.6V10.7z M19.3,16.5c-2.6,0-5.1,0-7.7,0c-0.5,0-1-0.4-1-1v-1.3c0-0.5,0.4-1,1-1h5.8
	c0.5,0,1,0.4,1,1s-0.4,1-1,1c-1.8,0-3.6,0-5.5,0v-0.6h5.5c0.2,0,0.3-0.1,0.3-0.3S17.6,14,17.4,14h-5.8c-0.2,0-0.3,0.1-0.3,0.3v1.3
	c0,0.2,0.1,0.3,0.3,0.3c2.6,0,5.1,0,7.7,0c0.2,0,0.3,0.1,0.3,0.3C19.6,16.4,19.5,16.5,19.3,16.5z M17.7,12.6V12h0.6v0.6H17.7z
	 M19.6,11.4c-0.9,0-1.7,0-2.6,0v-0.6c0.9,0,1.7,0,2.6,0V11.4z M19.6,9.4H19V8.8h0.6V9.4z"/>
</svg>
