<?xml version="1.0" encoding="utf-8"?>
<!-- Generator: Adobe Illustrator 22.1.0, SVG Export Plug-In . SVG Version: 6.00 Build 0)  -->
<svg version="1.1"
	 id="svg2" xmlns:cc="http://creativecommons.org/ns#" xmlns:dc="http://purl.org/dc/elements/1.1/" xmlns:rdf="http://www.w3.org/1999/02/22-rdf-syntax-ns#" xmlns:svg="http://www.w3.org/2000/svg"
	 xmlns="http://www.w3.org/2000/svg" xmlns:xlink="http://www.w3.org/1999/xlink" x="0px" y="0px" viewBox="0 0 30 30"
	 style="enable-background:new 0 0 30 30;" xml:space="preserve">

<path d="M25.3,8.3c-0.5-2.2-1.6-4.1-3.3-5.6c-1.7-1.5-3.8-2.5-6.1-2.6c-1.3-0.1-2.6,0-3.9,0.4c-4.3,1.3-7.4,5.4-7.5,9.9
	c0,1.3,0.2,2.7,0.6,4c0.5,1.9,1.3,3.6,2.2,5.3c1,1.8,2,3.4,3.2,5c1.3,1.8,2.8,3.6,4.4,5.2L15,30c0-0.1,0.1-0.1,0.1-0.2
	c1.3-1.3,2.5-2.7,3.6-4.2c1.8-2.3,3.4-4.7,4.6-7.3c1-2.1,1.7-4.2,2-6.5C25.6,10.7,25.6,9.4,25.3,8.3z M14.6,7.3
	c0.1-0.6,0.5-1.3,1-1.7l0.7,0.7c-0.3,0.3-0.6,0.8-0.7,1.2c0,0.2-0.1,0.9-0.1,1.2C15.3,8.8,15.1,8.9,15,9c-0.2-0.1-0.3-0.2-0.5-0.3
	C14.6,8.4,14.6,7.6,14.6,7.3z M13.8,7.7c-1.8,0.8-3.6,0-4.1-1.6C11.8,5.6,13.1,6.1,13.8,7.7z M16.7,16.3c-0.5,0-0.8-0.2-1.6-0.6
	c-0.8,0.4-1.2,0.6-1.6,0.6c-1.6,0-3.3-2.9-3.3-4.5c0-0.8,0.3-1.7,0.8-2.2c0.8-0.9,2.4-0.7,4.1,0.4c1.6-1.2,3.2-1.2,4.1-0.4
	c0.5,0.5,0.8,1.4,0.8,2.2C19.9,13.4,18.3,16.3,16.7,16.3z"/>
</svg>
