<?xml version="1.0" encoding="utf-8"?>
<!-- Generator: Adobe Illustrator 22.1.0, SVG Export Plug-In . SVG Version: 6.00 Build 0)  -->
<svg version="1.1"
	 id="svg2" xmlns:cc="http://creativecommons.org/ns#" xmlns:dc="http://purl.org/dc/elements/1.1/" xmlns:rdf="http://www.w3.org/1999/02/22-rdf-syntax-ns#" xmlns:svg="http://www.w3.org/2000/svg"
	 xmlns="http://www.w3.org/2000/svg" xmlns:xlink="http://www.w3.org/1999/xlink" x="0px" y="0px" viewBox="0 0 30 30"
	 style="enable-background:new 0 0 30 30;" xml:space="preserve">

<g>
	<path d="M12.2,12.9c-0.5,0-1,0.4-1,1c0,0.5,0.4,1,1,1c0.5,0,1-0.4,1-1C13.2,13.4,12.7,12.9,12.2,12.9z"/>
	<path d="M15.4,12.9c-0.5,0-1,0.4-1,1c0,0.5,0.4,1,1,1s1-0.4,1-1C16.4,13.4,16,12.9,15.4,12.9z"/>
	<path d="M25.3,8.3c-0.5-2.2-1.6-4.1-3.3-5.6c-1.7-1.5-3.8-2.5-6.1-2.6c-1.3-0.1-2.6,0-3.9,0.4c-4.3,1.3-7.4,5.4-7.5,9.9
		c0,1.3,0.2,2.7,0.6,4c0.5,1.9,1.3,3.6,2.2,5.3c1,1.8,2,3.4,3.2,5c1.3,1.8,2.8,3.6,4.4,5.2L15,30c0-0.1,0.1-0.1,0.1-0.2
		c1.3-1.3,2.5-2.7,3.6-4.2c1.8-2.3,3.4-4.7,4.6-7.3c1-2.1,1.7-4.2,2-6.5C25.6,10.7,25.6,9.4,25.3,8.3z M15.4,15.5
		c-0.8,0-1.4-0.6-1.6-1.3h-0.1c-0.2,0.7-0.8,1.3-1.6,1.3c-0.9,0-1.6-0.7-1.6-1.6c0-0.9,0.7-1.6,1.6-1.6c0.4,0,0.7,0.1,1,0.3V6.5h1.3
		v6.1c0.3-0.2,0.6-0.3,1-0.3c0.9,0,1.6,0.7,1.6,1.6C17,14.8,16.3,15.5,15.4,15.5z M19.6,15.5h-1.3v-3.9h-2.6V11h2.6v-0.6h-2.6V9.7
		h2.6V9.1h-2.6V8.4h2.6V7.8h-2.6V6.5h2.6c0.6,0,1.3,0.6,1.3,1.3V15.5z"/>
</g>
</svg>
