<?xml version="1.0" encoding="utf-8"?>
<!-- Generator: Adobe Illustrator 22.1.0, SVG Export Plug-In . SVG Version: 6.00 Build 0)  -->
<svg version="1.1" id="Layer_1" xmlns="http://www.w3.org/2000/svg" xmlns:xlink="http://www.w3.org/1999/xlink" x="0px" y="0px"
	 viewBox="0 0 30 30" style="enable-background:new 0 0 30 30;" xml:space="preserve">
<path d="M25.3,8.3c-0.5-2.2-1.6-4.1-3.3-5.6c-1.7-1.5-3.8-2.5-6.1-2.6c-1.3-0.1-2.6,0-3.9,0.4c-4.3,1.3-7.4,5.4-7.5,9.9
	c0,1.3,0.2,2.7,0.6,4c0.5,1.9,1.3,3.6,2.2,5.3c1,1.8,2,3.4,3.2,5c1.3,1.8,2.8,3.6,4.4,5.2L15,30c0-0.1,0.1-0.1,0.1-0.2
	c1.3-1.3,2.5-2.7,3.6-4.2c1.8-2.3,3.4-4.7,4.6-7.3c1-2.1,1.7-4.2,2-6.5C25.6,10.7,25.6,9.4,25.3,8.3z M16.5,14.8
	c0,0.8-0.7,1.5-1.5,1.5h-3c-0.8,0-1.5-0.7-1.5-1.5v-2.7h5.9v2.7H16.5z M17.2,11.8H9.9v-0.7h2.2c0-0.4,0.3-0.7,0.7-0.7h1.5
	c0.4,0,0.7,0.3,0.7,0.7h2.2V11.8z M17.2,8.1h-3.8C13.2,8.6,12.5,9,11.7,9c-1,0-1.8-0.6-1.8-1.3s0.8-1.3,1.8-1.3
	c0.8,0,1.5,0.4,1.7,0.9h3.8V8.1z M18.7,14v2.2H18V6.7c1.5,1.5,1.8,4.4,1.8,7.4h-1.1V14z"/>
</svg>
