<?xml version="1.0" encoding="utf-8"?>
<!-- Generator: Adobe Illustrator 22.1.0, SVG Export Plug-In . SVG Version: 6.00 Build 0)  -->
<svg version="1.1"
	 id="svg109" xmlns:cc="http://creativecommons.org/ns#" xmlns:dc="http://purl.org/dc/elements/1.1/" xmlns:rdf="http://www.w3.org/1999/02/22-rdf-syntax-ns#" xmlns:svg="http://www.w3.org/2000/svg"
	 xmlns="http://www.w3.org/2000/svg" xmlns:xlink="http://www.w3.org/1999/xlink" x="0px" y="0px" viewBox="0 0 30 30"
	 style="enable-background:new 0 0 30 30;" xml:space="preserve">
<g>
	<path d="M18.2,7.8L18.2,7.8c-0.4,0-0.6,0.3-0.6,0.6l0,0c0,0.4,0.3,0.6,0.6,0.6l0,0c0.4,0,0.6-0.3,0.6-0.6l0,0
		C18.9,8.1,18.6,7.8,18.2,7.8z"/>
	<path d="M25.3,8.3c-0.5-2.2-1.6-4.1-3.3-5.6c-1.7-1.5-3.8-2.5-6.1-2.6c-1.3-0.1-2.6,0-3.9,0.4c-4.3,1.3-7.4,5.4-7.5,9.9
		c0,1.3,0.2,2.7,0.6,4c0.5,1.9,1.3,3.6,2.2,5.3c1,1.8,2,3.4,3.2,5c1.3,1.8,2.8,3.6,4.4,5.2L15,30c0-0.1,0.1-0.1,0.1-0.2
		c1.3-1.3,2.5-2.7,3.6-4.2c1.8-2.3,3.4-4.7,4.6-7.3c1-2.1,1.7-4.2,2-6.5C25.6,10.7,25.6,9.4,25.3,8.3z M13.9,15.3v0.8h-2.8v-0.8h1
		V9.4H10l0.9-3.5H14l1,3.5h-2.1v5.8h1V15.3z M20.2,9.1L20.2,9.1c0,0.5-0.4,0.9-0.9,0.9c-0.1,0-0.2,0-0.3-0.1
		c-0.1,0.3-0.3,0.5-0.5,0.6v1.7h1.7l-0.8,3.9H17l-0.8-3.9h1.7v-1.7c-0.2-0.1-0.4-0.3-0.5-0.5c-0.1,0-0.1,0-0.2,0l0,0
		c-0.5,0-0.9-0.4-0.9-0.9c0-0.3,0.1-0.5,0.3-0.7c-0.2-0.2-0.3-0.4-0.3-0.7l0,0c0-0.5,0.4-0.9,0.9-0.9c0.1,0,0.1,0,0.2,0
		c0.1-0.4,0.4-0.6,0.8-0.6S19,6.5,19,6.9C19.1,7,19.2,7,19.3,7l0,0c0.5,0,0.9,0.4,0.9,0.9c0,0.2-0.1,0.5-0.3,0.6
		C20.1,8.6,20.2,8.9,20.2,9.1z"/>
</g>
</svg>
