<?xml version="1.0" encoding="utf-8"?>
<!-- Generator: Adobe Illustrator 22.1.0, SVG Export Plug-In . SVG Version: 6.00 Build 0)  -->
<svg version="1.1"
	 id="svg2" xmlns:cc="http://creativecommons.org/ns#" xmlns:dc="http://purl.org/dc/elements/1.1/" xmlns:rdf="http://www.w3.org/1999/02/22-rdf-syntax-ns#" xmlns:svg="http://www.w3.org/2000/svg"
	 xmlns="http://www.w3.org/2000/svg" xmlns:xlink="http://www.w3.org/1999/xlink" x="0px" y="0px" viewBox="0 0 30 30"
	 style="enable-background:new 0 0 30 30;" xml:space="preserve">

<g>
	<path d="M13.2,9.1c-0.1,0-0.3,0.1-0.3,0.2c0,0.1,0.1,0.3,0.3,0.3c0.1,0,0.3-0.1,0.3-0.3C13.5,9.2,13.3,9.1,13.2,9.1z"/>
	<path d="M17.4,9.1c-0.2,0-0.2,0.1-0.2,0.3c0,0.1,0.1,0.3,0.2,0.3c0.1,0,0.3-0.1,0.3-0.3C17.7,9.2,17.6,9.1,17.4,9.1z"/>
	<path d="M15.5,6.8c-1.2-0.1-2.1,0.8-2.1,1.9c1.3,0,2.6,0,3.9,0C17.4,7.9,16.5,6.9,15.5,6.8z"/>
	<path d="M25.2,8.3c-0.5-2.2-1.6-4.1-3.3-5.6c-1.7-1.5-3.8-2.5-6.1-2.6c-1.3-0.1-2.6,0-3.9,0.4c-4.3,1.3-7.4,5.4-7.5,9.9
		c0,1.3,0.2,2.7,0.6,4c0.5,1.9,1.3,3.6,2.2,5.3c1,1.8,2,3.4,3.2,5c1.3,1.8,2.8,3.6,4.4,5.2c0,0,0.1,0.1,0.1,0.1
		c0-0.1,0.1-0.1,0.1-0.2c1.3-1.3,2.5-2.7,3.6-4.2c1.8-2.3,3.4-4.7,4.6-7.3c1-2.1,1.7-4.2,2-6.5C25.5,10.7,25.5,9.4,25.2,8.3z
		 M11.3,15.9c0.1-0.9,0.2-1.7,0.2-2.5c0.1-0.6,0.1-1.2,0.2-1.8c0.1-0.7,0.1-1.5,0.2-2.2c0-0.1,0-0.3,0-0.4c0-0.2,0.1-0.2,0.2-0.2
		c0.2,0,0.5,0,0.7,0c0.1,0,0.2,0,0.2-0.2c0.1-1,0.8-1.8,1.8-2c1.3-0.2,2.4,0.5,2.7,1.7c0,0.1,0,0.3,0.1,0.4c0.1,0.1,0.3,0,0.4,0
		c0.1,0,0.2,0,0.4,0c0.2,0,0.3,0.1,0.3,0.2c0.1,0.9,0.1,1.7,0.2,2.6c0.1,0.9,0.2,1.9,0.3,2.8c0,0.5,0.1,0.9,0.1,1.4c0,0,0,0.1,0,0.1
		C16.6,15.9,14,15.9,11.3,15.9z"/>
</g>
</svg>
