<?xml version="1.0" encoding="utf-8"?>
<!-- Generator: Adobe Illustrator 22.1.0, SVG Export Plug-In . SVG Version: 6.00 Build 0)  -->
<svg version="1.1" id="Layer_1" xmlns="http://www.w3.org/2000/svg" xmlns:xlink="http://www.w3.org/1999/xlink" x="0px" y="0px"
	 viewBox="0 0 30 30" style="enable-background:new 0 0 30 30;" xml:space="preserve">
<path d="M25.3,8.3c-0.5-2.2-1.6-4.1-3.3-5.6c-1.7-1.5-3.8-2.5-6.1-2.6c-1.3-0.1-2.6,0-3.9,0.4c-4.3,1.3-7.4,5.4-7.5,9.9
	c0,1.3,0.2,2.7,0.6,4c0.5,1.9,1.3,3.6,2.2,5.3c1,1.8,2,3.4,3.2,5c1.3,1.8,2.8,3.6,4.4,5.2L15,30c0-0.1,0.1-0.1,0.1-0.2
	c1.3-1.3,2.5-2.7,3.6-4.2c1.8-2.3,3.4-4.7,4.6-7.3c1-2.1,1.7-4.2,2-6.5C25.6,10.7,25.6,9.4,25.3,8.3z M19.8,13.4v1.3v2h-1.4v-2h-6.8
	v2h-1.4v-2v-1.3v-2.7h1.4v2.7h6.8v-2.7h1.4V13.4z M19.8,7.9v0.7c0,0.7-0.6,1.3-1.4,1.3c-0.7,0.1-1.3-0.5-1.3-1.3h-0.7
	c0,0.7-0.6,1.3-1.4,1.3s-1.4-0.6-1.4-1.3h-0.5c0,0.7-0.6,1.3-1.3,1.3s-1.4-0.6-1.4-1.3V7.9V7.3h8.1h1.4v0.6H19.8z"/>
</svg>
