<?xml version="1.0" encoding="utf-8"?>
<!-- Generator: Adobe Illustrator 22.1.0, SVG Export Plug-In . SVG Version: 6.00 Build 0)  -->
<svg version="1.1"
	 id="svg2" xmlns:cc="http://creativecommons.org/ns#" xmlns:dc="http://purl.org/dc/elements/1.1/" xmlns:rdf="http://www.w3.org/1999/02/22-rdf-syntax-ns#" xmlns:svg="http://www.w3.org/2000/svg"
	 xmlns="http://www.w3.org/2000/svg" xmlns:xlink="http://www.w3.org/1999/xlink" x="0px" y="0px" viewBox="0 0 30 30"
	 style="enable-background:new 0 0 30 30;" xml:space="preserve">

<g>
	<polygon points="16.9,14.1 19,14.1 19.4,12.2 16.5,12.2 	"/>
	<path d="M25.2,8.3c-0.5-2.2-1.6-4.1-3.3-5.6c-1.7-1.5-3.8-2.5-6.1-2.6c-1.3-0.1-2.6,0-3.9,0.4c-4.3,1.2-7.4,5.3-7.4,9.8
		c0,1.3,0.2,2.7,0.6,4c0.5,1.9,1.3,3.6,2.2,5.3c1,1.8,2,3.4,3.2,5c1.3,1.8,2.8,3.6,4.4,5.2l0.1,0.1c0-0.1,0.1-0.1,0.1-0.2
		c1.3-1.3,2.5-2.7,3.6-4.2c1.8-2.3,3.4-4.7,4.6-7.3c1-2.1,1.7-4.2,2-6.5C25.5,10.7,25.4,9.4,25.2,8.3z M19.4,15.1h-2.9
		c-0.8,0-1-2.7-1-2.7c-0.4-0.2-0.8-0.2-1.2,0c0,0-0.2,2.7-1,2.7h-2.8c-0.8,0-1-2.3-1-3.9l3.9-2.3c0.3-0.2,0.7,0.6,0,1l-2.3,1.4h7.8
		l-2.4-1.4c-0.7-0.4-0.4-1.2,0-1l3.9,2.3C20.4,12.8,20.2,15.1,19.4,15.1z"/>
	<polygon points="10.9,14.1 13,14.1 13.4,12.2 10.5,12.2 	"/>
</g>
</svg>
