<?xml version="1.0" encoding="utf-8"?>
<!-- Generator: Adobe Illustrator 22.1.0, SVG Export Plug-In . SVG Version: 6.00 Build 0)  -->
<svg version="1.1"
	 id="svg2" xmlns:cc="http://creativecommons.org/ns#" xmlns:dc="http://purl.org/dc/elements/1.1/" xmlns:rdf="http://www.w3.org/1999/02/22-rdf-syntax-ns#" xmlns:svg="http://www.w3.org/2000/svg"
	 xmlns="http://www.w3.org/2000/svg" xmlns:xlink="http://www.w3.org/1999/xlink" x="0px" y="0px" viewBox="0 0 30 30"
	 style="enable-background:new 0 0 30 30;" xml:space="preserve">

<path d="M25.2,8.3c-0.5-2.2-1.6-4.1-3.3-5.6c-1.7-1.5-3.8-2.5-6.1-2.6c-1.3-0.1-2.6,0-3.9,0.4c-4.3,1.2-7.4,5.3-7.4,9.8
	c0,1.3,0.2,2.7,0.6,4c0.5,1.9,1.3,3.6,2.2,5.3c1,1.8,2,3.4,3.2,5c1.3,1.8,2.8,3.6,4.4,5.2l0.1,0.1c0-0.1,0.1-0.1,0.1-0.2
	c1.3-1.3,2.5-2.7,3.6-4.2c1.8-2.3,3.4-4.7,4.6-7.3c1-2.1,1.7-4.2,2-6.5C25.5,10.7,25.4,9.4,25.2,8.3z M13.4,6.9
	c0.6,0,1.1,0.5,1.1,1.1c0,0.5-0.5,1-1.1,1s-1.1-0.5-1.1-1.1C12.4,7.3,12.8,6.9,13.4,6.9z M10.9,16.2h-0.7v-3.6h0.7V16.2z M10.2,11.9
	v-0.7l2.1,0.7l1.6-1.1l-0.2-1.1L15.2,9l1.4,3.6l-2.1,0.7L14.2,12l-1.9,1.3L10.2,11.9z M15.9,16.2l-0.4-1.5l-1.1,1.4h-1.3l1.4-2.1
	l2.1-0.7l0.7,2.9H15.9z M17.4,12.6l-2.1-4.3l1.4-0.7l2.1,4.3L17.4,12.6z"/>
</svg>
