<?xml version="1.0" encoding="utf-8"?>
<!-- Generator: Adobe Illustrator 22.1.0, SVG Export Plug-In . SVG Version: 6.00 Build 0)  -->
<svg version="1.1"
	 id="svg2" xmlns:cc="http://creativecommons.org/ns#" xmlns:dc="http://purl.org/dc/elements/1.1/" xmlns:rdf="http://www.w3.org/1999/02/22-rdf-syntax-ns#" xmlns:svg="http://www.w3.org/2000/svg"
	 xmlns="http://www.w3.org/2000/svg" xmlns:xlink="http://www.w3.org/1999/xlink" x="0px" y="0px" viewBox="0 0 30 30"
	 style="enable-background:new 0 0 30 30;" xml:space="preserve">
<path d="M25.2,8.3c-0.5-2.2-1.6-4.1-3.3-5.6c-1.7-1.5-3.8-2.5-6.1-2.6c-1.3-0.1-2.6,0-3.9,0.4c-4.3,1.2-7.4,5.3-7.4,9.8
	c0,1.3,0.2,2.7,0.6,4c0.5,1.9,1.3,3.6,2.2,5.3c1,1.8,2,3.4,3.2,5c1.3,1.8,2.8,3.6,4.4,5.2l0.1,0.1c0-0.1,0.1-0.1,0.1-0.2
	c1.3-1.3,2.5-2.7,3.6-4.2c1.8-2.3,3.4-4.7,4.6-7.3c1-2.1,1.7-4.2,2-6.5C25.5,10.7,25.4,9.4,25.2,8.3z M19.8,11.5c-1.7,0-3.4,0-5.1,0
	v0.7h0.7v5.1h-2.2v-5.1h0.7v-1.5c1.7,0,3.4,0,5.1,0V8.9h-0.7v0.4c0,0.4-0.3,0.7-0.7,0.7h-7.3c-0.4,0-0.7-0.3-0.7-0.7V7.8
	c0-0.4,0.3-0.7,0.7-0.7h7.3c0.4,0,0.7,0.3,0.7,0.7v0.4c0.5,0,1,0,1.5,0C19.8,8.2,19.8,11.5,19.8,11.5z"/>
</svg>
