<?xml version="1.0" encoding="utf-8"?>
<!-- Generator: Adobe Illustrator 22.1.0, SVG Export Plug-In . SVG Version: 6.00 Build 0)  -->
<svg version="1.1"
	 id="svg2" xmlns:cc="http://creativecommons.org/ns#" xmlns:dc="http://purl.org/dc/elements/1.1/" xmlns:rdf="http://www.w3.org/1999/02/22-rdf-syntax-ns#" xmlns:svg="http://www.w3.org/2000/svg"
	 xmlns="http://www.w3.org/2000/svg" xmlns:xlink="http://www.w3.org/1999/xlink" x="0px" y="0px" viewBox="0 0 30 30"
	 style="enable-background:new 0 0 30 30;" xml:space="preserve">

<path d="M25.2,8.3c-0.5-2.2-1.6-4.1-3.3-5.6c-1.7-1.5-3.8-2.5-6.1-2.6c-1.3-0.1-2.6,0-3.9,0.4c-4.3,1.2-7.4,5.3-7.4,9.8
	c0,1.3,0.2,2.7,0.6,4c0.5,1.9,1.3,3.6,2.2,5.3c1,1.8,2,3.4,3.2,5c1.3,1.8,2.8,3.6,4.4,5.2l0.1,0.1c0-0.1,0.1-0.1,0.1-0.2
	c1.3-1.3,2.5-2.7,3.6-4.2c1.8-2.3,3.4-4.7,4.6-7.3c1-2.1,1.7-4.2,2-6.5C25.5,10.7,25.4,9.4,25.2,8.3z M12,7.5h0.6v0.6H12V7.5z
	 M13.2,8.8v0.6h-0.6V8.8H13.2z M12.6,10.1v0.6H12v-0.6H12.6z M12,9.5h-0.6V8.8H12V9.5z M10.7,7.5h0.6v0.6h-0.6V7.5z M10,9.5V8.8h0.6
	v0.6L10,9.5L10,9.5z M10.7,10.1h0.6v0.6h-0.6V10.1z M15.8,16.5h-2.5c-0.6,0-2.2-1.3-2.2-1.9c0-1.3,1-3.2,2.2-3.2h2.5
	c1.3,0,2.2,1.9,2.2,3.2C17.9,15.2,16.4,16.5,15.8,16.5z M17.4,10.5c-0.7,0-1.4-0.4-1.5-1h-0.7V11h-1.3V8.8c0-0.6,0-0.6,0.6-0.6
	s0.6,0,0.6,0.6h0.7c0.2-0.6,0.8-1,1.5-1c0.9,0,1.6,0.6,1.6,1.3S18.2,10.5,17.4,10.5z"/>
</svg>
