<?xml version="1.0" encoding="utf-8"?>
<!-- Generator: Adobe Illustrator 22.1.0, SVG Export Plug-In . SVG Version: 6.00 Build 0)  -->
<svg version="1.1"
	 id="svg2" xmlns:cc="http://creativecommons.org/ns#" xmlns:dc="http://purl.org/dc/elements/1.1/" xmlns:rdf="http://www.w3.org/1999/02/22-rdf-syntax-ns#" xmlns:svg="http://www.w3.org/2000/svg"
	 xmlns="http://www.w3.org/2000/svg" xmlns:xlink="http://www.w3.org/1999/xlink" x="0px" y="0px" viewBox="0 0 30 30"
	 style="enable-background:new 0 0 30 30;" xml:space="preserve">

<path d="M25.2,8.3c-0.5-2.2-1.6-4.1-3.3-5.6c-1.7-1.5-3.8-2.5-6.1-2.6c-1.3-0.1-2.6,0-3.9,0.4c-4.3,1.2-7.4,5.3-7.4,9.8
	c0,1.3,0.2,2.7,0.6,4c0.5,1.9,1.3,3.6,2.2,5.3c1,1.8,2,3.4,3.2,5c1.3,1.8,2.8,3.6,4.4,5.2l0.1,0.1c0-0.1,0.1-0.1,0.1-0.2
	c1.3-1.3,2.5-2.7,3.6-4.2c1.8-2.3,3.4-4.7,4.6-7.3c1-2.1,1.7-4.2,2-6.5C25.5,10.7,25.4,9.4,25.2,8.3z M14.8,8.7
	c0.1-0.9,0.6-2,1.6-2.1c0.3,0,0.5,0.1,0.7,0.3c0.7,0.6,0.7,1.7,0.4,2.6c-0.2,0.7-0.8,1.4-1.6,1.3C15,10.5,14.7,9.5,14.8,8.7z
	 M12.5,6.7c0.1,0,0.2,0,0.3,0c1.1,0.3,1.5,1.6,1.4,2.6c0,0.7-0.5,1.5-1.3,1.4c-1-0.2-1.5-1.4-1.5-2.3C11.2,7.6,11.7,6.7,12.5,6.7z
	 M9.1,11.2c0-0.6,0.5-1.2,1.3-1.1c0.8,0.1,1.5,1.1,1.5,2.1c0.1,0.6-0.3,1.5-1,1.5C9.8,13.7,9,12.4,9.1,11.2z M17.3,17.4
	c-0.8,0-1.4-0.6-2.2-0.7c-0.9-0.1-1.7,0.5-2.6,0.6c-0.6,0.1-1.3-0.4-1.3-1.1c0.1-0.9,0.4-1.7,0.9-2.4c0.5-1,1.5-1.7,2.6-1.7
	c0.8,0,1.5,0.5,2,1c0.7,0.8,1.3,1.6,1.6,2.6C18.5,16.5,18,17.4,17.3,17.4z M18.2,13.6c-0.7,0-1.2-0.8-1.1-1.5c0-1,0.7-2.2,1.8-2.2
	c0.6,0,1,0.7,1,1.3C19.9,12.2,19.3,13.4,18.2,13.6z"/>
</svg>
