<?xml version="1.0" encoding="utf-8"?>
<!-- Generator: Adobe Illustrator 22.1.0, SVG Export Plug-In . SVG Version: 6.00 Build 0)  -->
<svg version="1.1"
	 id="svg2" xmlns:cc="http://creativecommons.org/ns#" xmlns:dc="http://purl.org/dc/elements/1.1/" xmlns:rdf="http://www.w3.org/1999/02/22-rdf-syntax-ns#" xmlns:svg="http://www.w3.org/2000/svg"
	 xmlns="http://www.w3.org/2000/svg" xmlns:xlink="http://www.w3.org/1999/xlink" x="0px" y="0px" viewBox="0 0 30 30"
	 style="enable-background:new 0 0 30 30;" xml:space="preserve">

<g>
	<path d="M15.6,10.6c-1.5,0-2.7,1.2-2.7,2.7s1.2,2.7,2.7,2.7s2.7-1.2,2.7-2.7C18.4,11.8,17.1,10.6,15.6,10.6z M15.6,15
		c-0.9,0-1.7-0.8-1.7-1.7s0.8-1.7,1.7-1.7c0.9,0,1.7,0.8,1.7,1.7C17.3,14.3,16.6,15,15.6,15z"/>
	<polygon points="17.1,7.9 17.1,9.2 19.1,9.2 19,7.9 	"/>
	<path d="M25.2,8.3c-0.5-2.2-1.6-4.1-3.3-5.6c-1.7-1.5-3.8-2.5-6.1-2.6c-1.3-0.1-2.6,0-3.9,0.4c-4.3,1.2-7.4,5.3-7.4,9.8
		c0,1.3,0.2,2.7,0.6,4c0.5,1.9,1.3,3.6,2.2,5.3c1,1.8,2,3.4,3.2,5c1.3,1.8,2.8,3.6,4.4,5.2l0.1,0.1c0-0.1,0.1-0.1,0.1-0.2
		c1.3-1.3,2.5-2.7,3.6-4.2c1.8-2.3,3.4-4.7,4.6-7.3c1-2.1,1.7-4.2,2-6.5C25.5,10.7,25.4,9.4,25.2,8.3z M16.3,7.8
		c0-0.7,0-0.7,0.7-0.7h2c0.7,0,0.7,0,0.7,0.6v1.8h-3.4L16.3,7.8z M11.5,8.5h0.7c0.7,0,0.7,0.7,0.7,1h-2C10.8,9.2,10.8,8.5,11.5,8.5z
		 M18.4,16.7h-6.9c-1.3,0-1.3,0-1.3-1.4v-4.1c0-1.2,0-1.4,1.3-1.4h6.9c1.3,0,1.3,0,1.4,1.4v4.1C19.7,16.7,19.7,16.7,18.4,16.7z"/>
</g>
</svg>
