<?xml version="1.0" encoding="utf-8"?>
<!-- Generator: Adobe Illustrator 22.1.0, SVG Export Plug-In . SVG Version: 6.00 Build 0)  -->
<svg version="1.1"
	 id="svg2" xmlns:cc="http://creativecommons.org/ns#" xmlns:dc="http://purl.org/dc/elements/1.1/" xmlns:rdf="http://www.w3.org/1999/02/22-rdf-syntax-ns#" xmlns:svg="http://www.w3.org/2000/svg"
	 xmlns="http://www.w3.org/2000/svg" xmlns:xlink="http://www.w3.org/1999/xlink" x="0px" y="0px" viewBox="0 0 30 30"
	 style="enable-background:new 0 0 30 30;" xml:space="preserve">

<g>
	<circle cx="15.1" cy="9.9" r="0.4"/>
	<circle cx="14.4" cy="9.1" r="0.4"/>
	<path d="M25.2,8.3c-0.5-2.2-1.6-4.1-3.3-5.6c-1.7-1.5-3.8-2.5-6.1-2.6c-1.3-0.1-2.6,0-3.9,0.4c-4.3,1.2-7.4,5.3-7.4,9.8
		c0,1.3,0.2,2.7,0.6,4c0.5,1.9,1.3,3.6,2.2,5.3c1,1.8,2,3.4,3.2,5c1.3,1.8,2.8,3.6,4.4,5.2l0.1,0.1c0-0.1,0.1-0.1,0.1-0.2
		c1.3-1.3,2.5-2.7,3.6-4.2c1.8-2.3,3.4-4.7,4.6-7.3c1-2.1,1.7-4.2,2-6.5C25.5,10.7,25.4,9.4,25.2,8.3z M14.2,14h-3.9v-1.5h3.9
		C14.2,12.5,14.2,14,14.2,14z M20.8,14h-4.1c-0.4,0-0.9-0.8-0.9-0.8h5V14z M15.3,12.7c0,0-0.6-0.8-1-0.8h-4.1c0-2.3,0.6-3.9,0.6-3.9
		H11c0.8,1.1,2.3,1.1,2.8,0H14c0,0,1.5,0.8,2.3,2.3h1.5c0.8,0,3,0.2,3,2.4C20.8,12.7,15.3,12.7,15.3,12.7z"/>
</g>
</svg>
