<?xml version="1.0" encoding="utf-8"?>
<!-- Generator: Adobe Illustrator 22.1.0, SVG Export Plug-In . SVG Version: 6.00 Build 0)  -->
<svg version="1.1"
	 id="svg2" xmlns:cc="http://creativecommons.org/ns#" xmlns:dc="http://purl.org/dc/elements/1.1/" xmlns:rdf="http://www.w3.org/1999/02/22-rdf-syntax-ns#" xmlns:svg="http://www.w3.org/2000/svg"
	 xmlns="http://www.w3.org/2000/svg" xmlns:xlink="http://www.w3.org/1999/xlink" x="0px" y="0px" viewBox="0 0 30 30"
	 style="enable-background:new 0 0 30 30;" xml:space="preserve">

<path d="M25.2,8.3c-0.5-2.2-1.6-4.1-3.3-5.6c-1.7-1.5-3.8-2.5-6.1-2.6c-1.3-0.1-2.6,0-3.9,0.4c-4.3,1.2-7.4,5.3-7.4,9.8
	c0,1.3,0.2,2.7,0.6,4c0.5,1.9,1.3,3.6,2.2,5.3c1,1.8,2,3.4,3.2,5c1.3,1.8,2.8,3.6,4.4,5.2l0.1,0.1c0-0.1,0.1-0.1,0.1-0.2
	c1.3-1.3,2.5-2.7,3.6-4.2c1.8-2.3,3.4-4.7,4.6-7.3c1-2.1,1.7-4.2,2-6.5C25.5,10.7,25.4,9.4,25.2,8.3z M13.5,5.9
	c0.5,0,0.9,0.4,0.9,0.9s-0.4,1-0.9,1s-0.9-0.4-0.9-0.9S13,5.9,13.5,5.9z M19.7,12.9c-0.1,0.1-0.2,0.2-0.3,0.2l-1.9,0.5
	c-0.1,0-0.3,0-0.3,0c-0.2,0-0.2-0.1-0.3-0.2L16,11.9l-1.2,1.2l0.5,2.3v0.1c0,0.1,0,0.3-0.1,0.4s-0.2,0.2-0.3,0.2
	c-0.3,0-0.4-0.1-0.5-0.4l-0.6-2.8c-0.1-0.3,0-0.5,0.1-0.7l1-1.1l-1.1-1.4l-0.7,0.8c-0.1,0.1-0.2,0.1-0.3,0.1s-0.2-0.1-0.4-0.2
	L11.3,9c-0.1-0.1-0.1-0.2-0.1-0.3s0-0.2,0.1-0.3s0.2-0.1,0.3-0.1s0.2,0,0.2,0.1l1,1.1L14,8.2c0.1-0.1,0.2-0.2,0.3-0.1l2.5,0.6
	c0.1,0,0.2,0.1,0.3,0.2l0.6,1c0.1,0.1,0.1,0.2,0.1,0.3s0,0.2-0.1,0.3s-0.2,0.1-0.3,0.1c-0.1,0-0.2,0-0.3-0.1l-0.6-1.1l-1.1-0.2
	l2.2,3.4l1.8-0.5c0.1,0,0.3,0,0.4,0.1s0.2,0.2,0.2,0.3C19.9,12.6,19.8,12.8,19.7,12.9z"/>
</svg>
