<?xml version="1.0" encoding="utf-8"?>
<!-- Generator: Adobe Illustrator 22.1.0, SVG Export Plug-In . SVG Version: 6.00 Build 0)  -->
<svg version="1.1"
	 id="svg2" xmlns:cc="http://creativecommons.org/ns#" xmlns:dc="http://purl.org/dc/elements/1.1/" xmlns:rdf="http://www.w3.org/1999/02/22-rdf-syntax-ns#" xmlns:svg="http://www.w3.org/2000/svg"
	 xmlns="http://www.w3.org/2000/svg" xmlns:xlink="http://www.w3.org/1999/xlink" x="0px" y="0px" viewBox="0 0 30 30"
	 style="enable-background:new 0 0 30 30;" xml:space="preserve">

<path d="M25.2,8.3c-0.5-2.2-1.6-4.1-3.3-5.6c-1.7-1.5-3.8-2.5-6.1-2.6c-1.3-0.1-2.6,0-3.9,0.4c-4.3,1.2-7.4,5.3-7.4,9.8
	c0,1.3,0.2,2.7,0.6,4c0.5,1.9,1.3,3.6,2.2,5.3c1,1.8,2,3.4,3.2,5c1.3,1.8,2.8,3.6,4.4,5.2l0.1,0.1c0-0.1,0.1-0.1,0.1-0.2
	c1.3-1.3,2.5-2.7,3.6-4.2c1.8-2.3,3.4-4.7,4.6-7.3c1-2.1,1.7-4.2,2-6.5C25.5,10.7,25.4,9.4,25.2,8.3z M17.8,13.4c0,0.8,0,0.8-2,2.9
	c-0.2,0.3-0.4,0.2-0.8,0.2c-0.4,0-0.5,0-0.7-0.3c-2.1-2.1-2.1-2.1-2.1-2.9c0-2.4,0-4,0-6.3c0-1.6,0-1.6,1.6-1.6c0.8,0,0,0,0.8,0
	c1.6,0,1.6,0,1.6,1.6v5.5c0,0.8,0,0.8-0.8,0.8h-0.8c-0.8,0-0.8,0-0.8-0.8c0-1.3,0-3.4,0-4.7h0.8v4.7h0.8V7c0-0.8,0-0.8-0.8-0.8h-0.8
	C13,6.2,13,6.2,13,7c0,2.1,0,5.8,0,6.3s1.6,2.5,2,2.4c0.3,0.2,1.9-2,1.9-2.4V7h0.8C17.8,9.7,17.8,10.7,17.8,13.4z"/>
</svg>
