<?xml version="1.0" encoding="utf-8"?>
<!-- Generator: Adobe Illustrator 22.1.0, SVG Export Plug-In . SVG Version: 6.00 Build 0)  -->
<svg version="1.1"
	 id="svg5114" xmlns:cc="http://creativecommons.org/ns#" xmlns:dc="http://purl.org/dc/elements/1.1/" xmlns:rdf="http://www.w3.org/1999/02/22-rdf-syntax-ns#" xmlns:svg="http://www.w3.org/2000/svg"
	 xmlns="http://www.w3.org/2000/svg" xmlns:xlink="http://www.w3.org/1999/xlink" x="0px" y="0px" viewBox="0 0 30 30"
	 style="enable-background:new 0 0 30 30;" xml:space="preserve">

<g>
	<path d="M10.5,10.1c-0.1,0-0.2,0-0.3,0c-0.4,0.1-0.6,0.7-0.6,1.5c-0.1,1.4,0.9,1.4,1.6,1.5c-0.1-0.5-0.2-1-0.2-1.4
		c0-0.5,0.1-1,0.3-1.4C11.1,10.2,10.8,10.1,10.5,10.1z"/>
	<path d="M25.2,8.3c-0.5-2.2-1.6-4.1-3.3-5.6c-1.7-1.5-3.8-2.5-6.1-2.6c-1.3-0.1-2.6,0-3.9,0.4c-4.3,1.2-7.4,5.3-7.4,9.8
		c0,1.3,0.2,2.7,0.6,4c0.5,1.9,1.3,3.6,2.2,5.3c1,1.8,2,3.4,3.2,5c1.3,1.8,2.8,3.6,4.4,5.2l0.1,0.1c0-0.1,0.1-0.1,0.1-0.2
		c1.3-1.3,2.5-2.7,3.6-4.2c1.8-2.3,3.4-4.7,4.6-7.3c1-2.1,1.7-4.2,2-6.5C25.5,10.7,25.4,9.4,25.2,8.3z M21.6,11.6
		c-0.2,0.5-0.8,1.4-1.5,1.9c-0.4,0.3-0.6,0.3-0.8,0.3c-0.3,0.9-0.8,1.8-1.4,2.3h-5.1c-0.6-0.4-1-1.2-1.3-2.1c-0.1,0-0.2,0-0.3,0
		c-1.3-0.2-2.7-0.5-2.6-2.3c0-0.9,0.3-1.6,0.9-2c0.6-0.4,1.6-0.3,2.3,0l0,0c0.7-1,1.9-1.8,3.3-1.9c-0.5-0.1-0.8-0.5-0.8-0.9l0,0
		c0-0.5,0.5-0.9,1.2-0.9l0,0c0.7,0,1.2,0.4,1.2,0.9c0,0.4-0.3,0.8-0.8,0.9c1.8,0.1,3.3,1.3,3.7,2.9c0.4-0.1,0.6-0.4,0.8-0.8
		c0.3-0.5,0.5-1.5,0.6-2c0.7,0.2,1.6,0,1.6,0S21.9,10.7,21.6,11.6z"/>
</g>
</svg>
