<?xml version="1.0" encoding="utf-8"?>
<!-- Generator: Adobe Illustrator 22.1.0, SVG Export Plug-In . SVG Version: 6.00 Build 0)  -->
<svg version="1.1"
	 id="svg2" xmlns:cc="http://creativecommons.org/ns#" xmlns:dc="http://purl.org/dc/elements/1.1/" xmlns:rdf="http://www.w3.org/1999/02/22-rdf-syntax-ns#" xmlns:svg="http://www.w3.org/2000/svg"
	 xmlns="http://www.w3.org/2000/svg" xmlns:xlink="http://www.w3.org/1999/xlink" x="0px" y="0px" viewBox="0 0 30 30"
	 style="enable-background:new 0 0 30 30;" xml:space="preserve">
<path d="M25.2,8.3c-0.5-2.2-1.6-4.1-3.3-5.6c-1.7-1.5-3.8-2.5-6.1-2.6c-1.3-0.1-2.6,0-3.9,0.4c-4.3,1.2-7.4,5.3-7.4,9.8
	c0,1.3,0.2,2.7,0.6,4c0.5,1.9,1.3,3.6,2.2,5.3c1,1.8,2,3.4,3.2,5c1.3,1.8,2.8,3.6,4.4,5.2l0.1,0.1c0-0.1,0.1-0.1,0.1-0.2
	c1.3-1.3,2.5-2.7,3.6-4.2c1.8-2.3,3.4-4.7,4.6-7.3c1-2.1,1.7-4.2,2-6.5C25.5,10.7,25.4,9.4,25.2,8.3z M12,6.8h2.2v1.5h0.7V6.8h2.2v3
	h-5.2L12,6.8L12,6.8z M9.8,10.5h1.5V12H12v-1.5h1.5v3.7H9.8V10.5z M20.1,17.2h-1.5v-1.5h-3v1.5h-1.5v-1.5h-3v1.5H9.6
	c0-0.7,0-1.5,0-2.2h10.3C20.1,15.7,20.1,16.4,20.1,17.2z M20.1,14.2h-5.9v-3.7h5.9V14.2z"/>
</svg>
