<?xml version="1.0" encoding="utf-8"?>
<!-- Generator: Adobe Illustrator 22.1.0, SVG Export Plug-In . SVG Version: 6.00 Build 0)  -->
<svg version="1.1"
	 id="svg2" xmlns:cc="http://creativecommons.org/ns#" xmlns:dc="http://purl.org/dc/elements/1.1/" xmlns:rdf="http://www.w3.org/1999/02/22-rdf-syntax-ns#" xmlns:svg="http://www.w3.org/2000/svg"
	 xmlns="http://www.w3.org/2000/svg" xmlns:xlink="http://www.w3.org/1999/xlink" x="0px" y="0px" viewBox="0 0 30 30"
	 style="enable-background:new 0 0 30 30;" xml:space="preserve">

<g>
	<path d="M12.2,11.4v1.3c0.8,0,1.5,0,2.3,0v-1.3H12.2z"/>
	<path d="M25.3,8.3c-0.5-2.2-1.6-4.1-3.3-5.6c-1.7-1.5-3.8-2.5-6.1-2.6c-1.3-0.1-2.6,0-3.9,0.4c-4.3,1.3-7.4,5.4-7.5,9.9
		c0,1.3,0.2,2.7,0.6,4c0.5,1.9,1.3,3.6,2.2,5.3c1,1.8,2,3.4,3.2,5c1.3,1.8,2.8,3.6,4.4,5.2L15,30c0-0.1,0.1-0.1,0.1-0.2
		c1.3-1.3,2.5-2.7,3.6-4.2c1.8-2.3,3.4-4.7,4.6-7.3c1-2.1,1.7-4.2,2-6.5C25.6,10.7,25.6,9.4,25.3,8.3z M15.2,6.6h2.3v0.8h-2.3
		C15.2,7.4,15.2,6.6,15.2,6.6z M17.7,8.9l-2.1,0.9l-0.3-0.7l2.1-0.9L17.7,8.9z M16.7,16.5c0,0.8,0,0.8-0.8,0.8c-1.8,0-3.5,0-5.3,0
		c-0.8,0-0.8,0-0.8-0.8c0-1,0-2,0-3c0-0.8,0-0.8,0.8-0.8c0.3,0,0.5,0,0.8,0v-1.5c0-0.8,0-0.8,0.8-0.8s1.5,0,2.3,0s0.8,0,0.8,0.8v1.5
		c0.3,0,0.5,0,0.8,0c0.8,0,0.8,0,0.8,0.8C16.7,14.5,16.7,15.5,16.7,16.5z M17.8,11.7l-0.7-0.4l1.2-1.9l0.6,0.4L17.8,11.7z
		 M20.5,11.9h-0.8V9.7h0.8V11.9z M19.5,9.3c-0.8,0-1.5-0.7-1.5-1.5s0.7-1.5,1.5-1.5c0.7,0,1.3,0.5,1.5,1.1v0.4
		C21,8.6,20.4,9.3,19.5,9.3z"/>
</g>
</svg>
