<?xml version="1.0" encoding="utf-8"?>
<!-- Generator: Adobe Illustrator 22.1.0, SVG Export Plug-In . SVG Version: 6.00 Build 0)  -->
<svg version="1.1"
	 id="svg2" xmlns:cc="http://creativecommons.org/ns#" xmlns:dc="http://purl.org/dc/elements/1.1/" xmlns:rdf="http://www.w3.org/1999/02/22-rdf-syntax-ns#" xmlns:svg="http://www.w3.org/2000/svg"
	 xmlns="http://www.w3.org/2000/svg" xmlns:xlink="http://www.w3.org/1999/xlink" x="0px" y="0px" viewBox="0 0 30 30"
	 style="enable-background:new 0 0 30 30;" xml:space="preserve">

<g>
	<path d="M16.6,8.1c-0.9,0-1.5,1.3-1.5,2.9l0,0c0,1.6,0.7,2.9,1.5,2.9c0.8,0,1.5-1.3,1.5-2.9C18,9.4,17.4,8.1,16.6,8.1z M16.6,13.5
		c-0.2,0-0.4-0.2-0.6-0.5c0.3-0.5,0.4-1.2,0.4-2S16.2,9.5,16,9c0.2-0.3,0.4-0.5,0.6-0.5c0.6,0,1,1.1,1,2.5S17.2,13.5,16.6,13.5z"/>
	<path d="M25.3,8.3c-0.5-2.2-1.6-4.1-3.3-5.6c-1.7-1.5-3.8-2.5-6.1-2.6c-1.3-0.1-2.6,0-3.9,0.4c-4.3,1.3-7.4,5.4-7.5,9.9
		c0,1.3,0.2,2.7,0.6,4c0.5,1.9,1.3,3.6,2.2,5.3c1,1.8,2,3.4,3.2,5c1.3,1.8,2.8,3.6,4.4,5.2L15,30c0-0.1,0.1-0.1,0.1-0.2
		c1.3-1.3,2.5-2.7,3.6-4.2c1.8-2.3,3.4-4.7,4.6-7.3c1-2.1,1.7-4.2,2-6.5C25.6,10.7,25.6,9.4,25.3,8.3z M14.3,16
		c-1.8,0-3.3-2.2-3.3-5s1.5-5,3.3-5h1.3l0,0c-1.4,0.2-2.5,2.4-2.5,5s1.1,4.8,2.5,5H14.3z M16.4,16c-1.6,0-2.9-2.2-2.9-5s1.3-5,2.9-5
		s2.9,2.2,2.9,5C19.3,13.8,18,16,16.4,16z"/>
</g>
</svg>
