<?xml version="1.0" encoding="utf-8"?>
<!-- Generator: Adobe Illustrator 22.1.0, SVG Export Plug-In . SVG Version: 6.00 Build 0)  -->
<svg version="1.1"
	 id="Layer_1" xmlns:cc="http://creativecommons.org/ns#" xmlns:dc="http://purl.org/dc/elements/1.1/" xmlns:rdf="http://www.w3.org/1999/02/22-rdf-syntax-ns#"
	 xmlns="http://www.w3.org/2000/svg" xmlns:xlink="http://www.w3.org/1999/xlink" x="0px" y="0px" viewBox="0 0 30 30"
	 style="enable-background:new 0 0 30 30;" xml:space="preserve">
<g>
	<path d="M16.7,11.2c-0.4-0.5-1.2,0.1-0.7,0.6C16.5,12.3,17.1,11.7,16.7,11.2z"/>
	<path d="M17.5,10.5c-0.4-0.5-1.1,0.1-0.7,0.6C17.2,11.5,17.9,10.9,17.5,10.5z"/>
	<path d="M14.4,11.3c-0.1-0.1-0.2-0.1-0.4-0.1c-0.2,0-0.4,0-0.4,0s0-0.2,0-0.4c0-0.3,0-0.4-0.1-0.4c-0.1-0.1-0.3-0.1-0.4-0.1
		c-0.2,0.1-0.1,0.1-0.2,0.6l0,0.4l-0.4,0c-0.4,0-0.4,0-0.5,0.1c-0.1,0.2-0.1,0.4,0.1,0.5c0.2,0,0.8,0,0.8,0l0,0.4
		c0,0.2,0,0.4,0.1,0.5c0.1,0.2,0.3,0.2,0.5,0.1c0.1,0,0.1-0.1,0.1-0.5l0-0.5l0.4,0c0.3,0,0.4,0,0.5-0.1c0.1-0.1,0.1-0.2,0.1-0.4
		C14.5,11.4,14.4,11.4,14.4,11.3z"/>
	<path d="M25.2,8.3c-0.5-2.2-1.6-4.1-3.3-5.6c-1.7-1.5-3.8-2.5-6.1-2.6c-1.3-0.1-2.6,0-3.9,0.4c-4.3,1.3-7.4,5.4-7.5,9.9
		c0,1.3,0.2,2.7,0.6,4c0.5,1.9,1.3,3.6,2.2,5.3c1,1.8,2,3.4,3.2,5c1.3,1.8,2.8,3.6,4.4,5.2c0,0,0.1,0.1,0.1,0.1
		c0-0.1,0.1-0.1,0.1-0.2c1.3-1.3,2.5-2.7,3.6-4.2c1.8-2.3,3.4-4.7,4.6-7.3c1-2.1,1.7-4.2,2-6.5C25.5,10.7,25.5,9.4,25.2,8.3z
		 M19.3,15.3c-0.3,0.3-0.5,0.4-1,0.4c-0.6,0-1-0.2-1.5-0.8c-0.2-0.3-0.5-0.6-0.7-0.9c0,0-0.4,0-1,0l-1,0l-0.2,0.3
		c-0.3,0.4-0.9,1-1.1,1.2c-0.3,0.2-0.6,0.3-1,0.2c-0.4,0-0.6-0.1-0.9-0.4c-0.3-0.3-0.4-0.6-0.5-1.2c-0.1-0.5,0-1.5,0.2-2.5
		c0.1-0.4,0.2-0.9,0.5-1.4c0.2-0.4,0.4-0.7,0.6-1C12,9,12.2,8.9,12.5,8.8h0c0.3-0.1,0.7-0.1,1,0c0.3,0.1,0.7,0.3,1.1,0.6
		c0.1,0,0.1,0.1,0.2,0.1c0.1-0.4,0.2-0.7,0.5-1c0.2-0.3,0.5-0.6,0.7-0.9C16,7.5,16,7.4,16,7.4c0-0.1-0.1-0.1-0.2-0.2
		c-0.2-0.1-0.6-0.1-1,0.4C14.5,7.9,14.1,8,13.7,8s-0.8-0.1-1.1-0.3c-0.4-0.2-0.7-0.4-0.9-0.6c-0.2-0.2-0.4-0.5-0.4-0.9l0.7,0
		c0,0,0,0.2,0.2,0.3s0.4,0.4,0.7,0.5c0.3,0.1,0.6,0.2,0.8,0.2c0.3,0,0.4-0.1,0.6-0.2c0.6-0.6,1.3-0.8,1.8-0.6
		c0.3,0.1,0.5,0.3,0.6,0.6c0.1,0.3,0.1,0.6-0.1,0.8l0,0l0,0c-0.2,0.4-0.5,0.7-0.8,1c-0.1,0.2-0.2,0.3-0.3,0.5c0,0,0,0,0,0
		c0.1,0,0.3-0.1,0.4-0.2c0.6-0.5,1.8-0.5,2.4-0.1c0.1,0.1,0.3,0.3,0.4,0.4c0.4,0.6,0.7,1.4,0.9,2.2c0.1,0.7,0.2,1.1,0.2,1.8
		C19.8,14.5,19.7,14.9,19.3,15.3z"/>
	<path d="M17.7,11.8c0.5,0.5,1.1-0.2,0.6-0.7C17.9,10.7,17.2,11.3,17.7,11.8z"/>
	<path d="M16.8,12.3c0,0.6,1,0.7,0.9,0C17.7,11.7,16.8,11.7,16.8,12.3z"/>
</g>
</svg>
