<?xml version="1.0" encoding="utf-8"?>
<!-- Generator: Adobe Illustrator 22.1.0, SVG Export Plug-In . SVG Version: 6.00 Build 0)  -->
<svg version="1.1" id="Layer_1" xmlns="http://www.w3.org/2000/svg" xmlns:xlink="http://www.w3.org/1999/xlink" x="0px" y="0px"
	 viewBox="0 0 20 20" style="enable-background:new 0 0 20 20;" xml:space="preserve">

<path d="M16.8,5.5c-0.3-1.5-1.1-2.8-2.2-3.7c-1.1-1-2.5-1.6-4.1-1.8C9.7,0,8.8,0,8,0.3C5.1,1.1,3,3.9,3,6.9c0,0.9,0.1,1.8,0.4,2.6
	c0.3,1.3,0.9,2.4,1.5,3.6c0.6,1.2,1.4,2.3,2.1,3.3c0.9,1.2,1.9,2.4,2.9,3.5c0,0,0,0,0.1,0.1c0,0,0.1-0.1,0.1-0.1
	c0.8-0.9,1.6-1.8,2.4-2.8c1.2-1.5,2.2-3.1,3.1-4.9c0.7-1.4,1.2-2.8,1.3-4.3C17,7.1,17,6.3,16.8,5.5z M7.1,10L10,5l2.9,5.1H7.1z"/>
</svg>
