<?xml version="1.0" encoding="utf-8"?>
<!-- Generator: Adobe Illustrator 22.1.0, SVG Export Plug-In . SVG Version: 6.00 Build 0)  -->
<svg version="1.1"
	 id="svg109" xmlns:cc="http://creativecommons.org/ns#" xmlns:dc="http://purl.org/dc/elements/1.1/" xmlns:osb="http://www.openswatchbook.org/uri/2009/osb" xmlns:rdf="http://www.w3.org/1999/02/22-rdf-syntax-ns#" xmlns:svg="http://www.w3.org/2000/svg"
	 xmlns="http://www.w3.org/2000/svg" xmlns:xlink="http://www.w3.org/1999/xlink" x="0px" y="0px" viewBox="0 0 30 30"
	 style="enable-background:new 0 0 30 30;" xml:space="preserve">
<g>
	<path d="M13.1,7.1c-0.2-0.2-0.4-0.2-0.6-0.2c-0.4,0-0.6,0.2-0.9,0.4l0,0c-0.2,0.6,0,1.3,0.4,1.5c0.6,0.4,1.3,0.2,1.5-0.2l0,0
		C13.7,7.9,13.5,7.3,13.1,7.1z"/>
	<path d="M25.3,8.4c-0.4-2.1-1.7-4.1-3.2-5.6c-1.7-1.5-3.9-2.6-6.2-2.8c-1.3,0-2.6,0-3.9,0.4c-4.3,1.3-7.5,5.4-7.5,9.9
		c0,1.3,0.2,2.6,0.6,3.9c0.4,1.9,1.3,3.6,2.1,5.4c0.9,1.7,2.1,3.4,3.2,4.9c1.3,1.7,2.8,3.6,4.3,5.1C15,30,15,30,15,30s0-0.2,0.2-0.2
		c1.3-1.3,2.4-2.8,3.6-4.3c1.7-2.4,3.4-4.7,4.7-7.3c1.1-2.1,1.7-4.3,1.9-6.4C25.5,10.7,25.5,9.4,25.3,8.4z M15,13.1L15,13.1
		c-0.4-0.2-1.1-0.2-1.3,0.2c-0.2,0.2-0.2,0.4,0,0.6c0,0.2,0,0.4,0,0.6c-0.4,0.4-1.1,0.6-1.5,0.4c-2.4-1.5-3.4-4.7-1.9-7.3
		c1.1-1.7,3-2.8,4.7-2.6c0.9,0,1.7,0.2,2.6,0.6l0,0v1.5c-0.2,0-0.4,0.2-0.6,0.4c-0.2,0.4-0.2,1.1,0.4,1.5c0.2,0,0.2,0.2,0.4,0.2v1.1
		c-0.2-0.2-0.4,0-0.4,0.2c-0.2,0.4-0.2,0.9,0,1.1C16.5,12,15.6,12.4,15,13.1z M20.4,14.1c-0.6,1.1-1.7,1.5-3,1.7
		c-0.6-0.2-1.3-0.4-1.5-0.9c-0.2-0.2-0.2-0.6,0-1.1c0.4-0.6,1.5-1.3,2.6-1.1h0.4V5.4c0.4,0,1.1-0.2,1.5-0.2
		C20.4,8.1,20.4,11.1,20.4,14.1z"/>
	<path d="M15.9,5.8c-0.2,0-0.4-0.2-0.6-0.2c-0.4,0-0.6,0.2-0.9,0.4c-0.2,0.9-0.2,1.5,0.4,1.7l0,0c0.4,0.2,1.1,0.2,1.5-0.4l0,0
		C16.5,6.9,16.3,6.2,15.9,5.8z"/>
</g>
</svg>
