<?xml version="1.0" encoding="utf-8"?>
<!-- Generator: Adobe Illustrator 22.1.0, SVG Export Plug-In . SVG Version: 6.00 Build 0)  -->
<svg version="1.1"
	 id="svg4" xmlns:cc="http://creativecommons.org/ns#" xmlns:dc="http://purl.org/dc/elements/1.1/" xmlns:rdf="http://www.w3.org/1999/02/22-rdf-syntax-ns#" xmlns:svg="http://www.w3.org/2000/svg"
	 xmlns="http://www.w3.org/2000/svg" xmlns:xlink="http://www.w3.org/1999/xlink" x="0px" y="0px" viewBox="0 0 30 30"
	 style="enable-background:new 0 0 30 30;" xml:space="preserve">
<path d="M25.3,8.4c-0.4-2.1-1.7-4.1-3.2-5.6c-1.7-1.5-3.9-2.6-6.2-2.8c-1.3,0-2.6,0-3.9,0.4c-4.3,1.3-7.5,5.4-7.5,9.9
	c0,1.3,0.2,2.6,0.6,3.9c0.4,1.9,1.3,3.6,2.1,5.4c0.9,1.7,2.1,3.4,3.2,4.9c1.3,1.7,2.8,3.6,4.3,5.1C15,30,15,30,15,30s0-0.2,0.2-0.2
	c1.3-1.3,2.4-2.8,3.6-4.3c1.7-2.4,3.4-4.7,4.7-7.3c1.1-2.1,1.7-4.3,1.9-6.4C25.5,10.7,25.5,9.4,25.3,8.4z M17.6,15.4h-5.1
	c-0.4,0-0.6-0.2-0.6-0.9c0.2,0.2,0.4,0.4,0.6,0.4h5.1c0.4,0,0.4-0.2,0.6-0.2C18.2,15.2,18,15.4,17.6,15.4z M18.2,13.5
	c0,0.4-0.2,0.6-0.6,0.6h-5.1c-0.4,0-0.6-0.2-0.6-0.6c0-1.9,0-3.9,0-5.8h0.6c0,1.5,0,3,0,4.5c0.6,0,1.3,0.6,1.3,1.3h2.6
	c0-0.6,0.6-1.3,1.3-1.3c0-1.5,0-3,0-4.5h0.6C18.2,9.6,18.2,11.6,18.2,13.5z M13.1,10.3C13.1,9.6,13.9,9,15,9s1.9,0.6,1.9,1.3
	s-0.9,1.3-1.9,1.3S13.1,10.9,13.1,10.3z M19.5,8.4h-0.6V7.1h-7.7v1.3h-0.6c0-0.6,0-1.3,0-1.9c3,0,6,0,9,0V8.4z"/>
</svg>
