<?xml version="1.0" encoding="utf-8"?>
<!-- Generator: Adobe Illustrator 22.1.0, SVG Export Plug-In . SVG Version: 6.00 Build 0)  -->
<svg version="1.1"
	 id="svg109" xmlns:cc="http://creativecommons.org/ns#" xmlns:dc="http://purl.org/dc/elements/1.1/" xmlns:rdf="http://www.w3.org/1999/02/22-rdf-syntax-ns#" xmlns:svg="http://www.w3.org/2000/svg"
	 xmlns="http://www.w3.org/2000/svg" xmlns:xlink="http://www.w3.org/1999/xlink" x="0px" y="0px" viewBox="0 0 30 30"
	 style="enable-background:new 0 0 30 30;" xml:space="preserve">
<g>
	<path d="M19.1,10.9h-8.1v3.2h7.9v-3.2H19.1z M12.6,13.3c-0.4,0-0.9-0.4-0.9-0.9s0.4-0.9,0.9-0.9c0.4,0,0.9,0.4,0.9,0.9
		S13.1,13.3,12.6,13.3z M15,13.3c-0.4,0-0.9-0.4-0.9-0.9s0.4-0.9,0.9-0.9c0.4,0,0.9,0.4,0.9,0.9S15.4,13.3,15,13.3z M17.4,13.3
		c-0.4,0-0.9-0.4-0.9-0.9s0.4-0.9,0.9-0.9c0.4,0,0.9,0.4,0.9,0.9S17.8,13.3,17.4,13.3z"/>
	<path d="M25.3,8.4c-0.4-2.1-1.7-4.1-3.2-5.6c-1.7-1.5-3.9-2.6-6.2-2.8c-1.3,0-2.6,0-3.9,0.4c-4.3,1.3-7.5,5.4-7.5,9.9
		c0,1.3,0.2,2.6,0.6,3.9c0.4,1.9,1.3,3.6,2.1,5.4c0.9,1.7,2.1,3.4,3.2,4.9c1.3,1.7,2.8,3.6,4.3,5.1C15,30,15,30,15,30s0-0.2,0.2-0.2
		c1.3-1.3,2.4-2.8,3.6-4.3c1.7-2.4,3.4-4.7,4.7-7.3c1.1-2.1,1.7-4.3,1.9-6.4C25.5,10.7,25.5,9.4,25.3,8.4z M18.6,5.4
		c-0.2,0.4-0.9,0.6-0.9,1.1c0.4,0.4,1.3,0.9,1.3,1.5c0,0.9-0.4,0.9-1.5,1.3c0-0.4,0.6-0.6,0.6-1.1c0-0.4-1.3-0.9-1.3-1.5
		S17.8,5.6,18.6,5.4z M15.6,5.4c-0.2,0.4-0.9,0.6-0.9,1.1c0.4,0.4,1.3,0.9,1.3,1.5c0,0.9-0.4,0.9-1.5,1.3c0-0.4,0.6-0.6,0.6-1.1
		c0-0.4-1.3-0.9-1.3-1.5S14.8,5.6,15.6,5.4z M12.6,5.4c-0.2,0.4-0.9,0.6-0.9,1.1c0.4,0.4,1.3,0.9,1.3,1.5c0,0.9-0.4,0.9-1.5,1.3
		c0-0.4,0.6-0.6,0.6-1.1c0-0.4-1.3-0.9-1.3-1.5S11.8,5.6,12.6,5.4z M19.7,16.5h-0.6v-1.7h-8.1v1.5h-0.6V9.9c3.2,0,6.4,0,9.6,0v6.6
		H19.7z"/>
</g>
</svg>
