<?xml version="1.0" encoding="utf-8"?>
<!-- Generator: Adobe Illustrator 22.1.0, SVG Export Plug-In . SVG Version: 6.00 Build 0)  -->
<svg version="1.1"
	 id="svg2" xmlns:cc="http://creativecommons.org/ns#" xmlns:dc="http://purl.org/dc/elements/1.1/" xmlns:rdf="http://www.w3.org/1999/02/22-rdf-syntax-ns#" xmlns:svg="http://www.w3.org/2000/svg"
	 xmlns="http://www.w3.org/2000/svg" xmlns:xlink="http://www.w3.org/1999/xlink" x="0px" y="0px" viewBox="0 0 30 30"
	 style="enable-background:new 0 0 30 30;" xml:space="preserve">
<g>
	<path d="M14.6,14.1c-0.4,0-0.9,0.4-0.9,0.9s0.2,0.9,0.9,0.9s0.9-0.4,0.9-0.9S15,14.1,14.6,14.1z"/>
	<path d="M15.4,7.9c0-0.6-0.4-1.1-1.3-1.1h-1.9v1.9h1.9C14.8,9,15.4,8.6,15.4,7.9z"/>
	<path d="M15.4,13.7c0.2,0,0.2,0.2,0.4,0.4h0.6l1.1-1.1h-1.9L15.4,13.7z"/>
	<path d="M25.3,8.4c-0.4-2.1-1.7-4.1-3.2-5.6c-1.7-1.5-3.9-2.6-6.2-2.8c-1.3,0-2.6,0-3.9,0.4c-4.3,1.3-7.5,5.4-7.5,9.9
		c0,1.3,0.2,2.6,0.6,3.9c0.4,1.9,1.3,3.6,2.1,5.4c0.9,1.7,2.1,3.4,3.2,4.9c1.3,1.7,2.8,3.6,4.3,5.1C15,30,15,30,15,30s0-0.2,0.2-0.2
		c1.3-1.3,2.4-2.8,3.6-4.3c1.7-2.4,3.4-4.7,4.7-7.3c1.1-2.1,1.7-4.3,1.9-6.4C25.5,10.7,25.5,9.4,25.3,8.4z M12.2,13.5h-1.7V5.4h4.1
		c1.3,0,2.4,0.9,2.4,2.6s-1.1,2.6-2.8,2.6h-1.9V13.5z M19.5,16.7c-0.9,0-1.7-0.6-1.7-1.7c0-0.6,0.2-1.1,0.9-1.3l-0.4-0.6l-1.5,1.5
		h-0.6c0,0.2,0,0.2,0,0.4c0,1.1-0.6,1.7-1.5,1.7s-1.7-0.6-1.7-1.7s0.9-1.7,1.7-1.7c0.2,0,0.2,0,0.4,0l0.4-1.1l0,0H15
		c-0.4,0-0.4-0.4,0-0.4h1.3c0.4,0,0.4,0.4,0,0.4h-0.4v0.2h2.4v-0.6l-0.4-0.4v-0.4l0.9,0.6v0.9l0.4,1.1c0.2,0,0.2,0,0.4,0
		c0.9,0,1.5,0.6,1.5,1.5S20.4,16.7,19.5,16.7z"/>
	<path d="M19.5,14.1c-0.6,0-0.9,0.4-0.9,0.9s0.2,0.9,0.9,0.9c0.6,0,0.9-0.4,0.9-0.9S19.9,14.1,19.5,14.1z"/>
</g>
</svg>
