<?xml version="1.0" encoding="utf-8"?>
<!-- Generator: Adobe Illustrator 22.1.0, SVG Export Plug-In . SVG Version: 6.00 Build 0)  -->
<svg version="1.1"
	 id="svg3800" xmlns:cc="http://creativecommons.org/ns#" xmlns:dc="http://purl.org/dc/elements/1.1/" xmlns:rdf="http://www.w3.org/1999/02/22-rdf-syntax-ns#" xmlns:svg="http://www.w3.org/2000/svg"
	 xmlns="http://www.w3.org/2000/svg" xmlns:xlink="http://www.w3.org/1999/xlink" x="0px" y="0px" viewBox="0 0 30 30"
	 style="enable-background:new 0 0 30 30;" xml:space="preserve">
<g>
	<path d="M17.8,13.5c-0.4,0-0.9,0.4-0.9,0.9c0,0.4,0.4,0.9,0.9,0.9s0.9-0.4,0.9-0.9C18.9,13.9,18.4,13.5,17.8,13.5z"/>
	<path d="M13.1,12.9c0.2,0,0.2,0.2,0.4,0.4h1.3l1.1-1.1h-2.6L13.1,12.9z"/>
	<path d="M12,13.5c-0.4,0-0.9,0.4-0.9,0.9c0,0.4,0.4,0.9,0.9,0.9s1.1-0.2,1.1-0.9C13.1,13.9,12.6,13.5,12,13.5z"/>
	<polygon points="17.6,6 17.1,6.9 17.6,7.5 18.6,7.5 19.1,6.9 18.6,6 	"/>
	<path d="M25.3,8.4c-0.4-2.1-1.7-4.1-3.2-5.6c-1.7-1.5-3.9-2.6-6.2-2.8c-1.3,0-2.6,0-3.9,0.4c-4.3,1.3-7.5,5.4-7.5,9.9
		c0,1.3,0.2,2.6,0.6,3.9c0.4,1.9,1.3,3.6,2.1,5.4c0.9,1.7,2.1,3.4,3.2,4.9c1.3,1.7,2.8,3.6,4.3,5.1C15,30,15,30,15,30s0-0.2,0.2-0.2
		c1.3-1.3,2.4-2.8,3.6-4.3c1.7-2.4,3.4-4.7,4.7-7.3c1.1-2.1,1.7-4.3,1.9-6.4C25.5,10.7,25.5,9.4,25.3,8.4z M17.8,16.3
		c-1.1,0-1.7-0.9-1.7-1.7c0-0.6,0.4-1.3,0.9-1.5l-0.2-0.9L15,13.9h-0.9h-0.4c0,0.2,0,0.4,0,0.6c0,1.1-0.9,1.7-1.7,1.7
		s-1.7-0.9-1.7-1.9s0.9-1.7,1.7-1.7l0,0l0.4-1.1v-0.9h-0.2c-0.9,0-0.9-0.9,0-0.9h1.5c0.9,0,0.9,0.9,0,0.9h-0.2v0.9h0.2h3v-0.9
		l-0.9-0.4V9.4l1.5,0.9v1.1l0.4,1.1l0,0c1.1,0,1.9,0.9,1.9,1.7C19.7,15.4,18.9,16.3,17.8,16.3z M18.2,8.4c-0.6,0-1.1-0.2-1.5-0.9
		h-3.6c-0.2,0.4-0.9,0.9-1.5,0.9c-0.6,0-1.1-0.4-1.3-0.9h1.9l0.4-0.9L12.2,6h-1.9c0.2-0.4,0.9-0.9,1.3-0.9c0.6,0,1.1,0.2,1.3,0.9
		h3.6c0.2-0.4,0.9-0.9,1.5-0.9c0.9,0,1.7,0.6,1.7,1.5C19.7,7.7,19.1,8.4,18.2,8.4z"/>
</g>
</svg>
