<?xml version="1.0" encoding="utf-8"?>
<!-- Generator: Adobe Illustrator 22.1.0, SVG Export Plug-In . SVG Version: 6.00 Build 0)  -->
<svg version="1.1"
	 id="svg4" xmlns:cc="http://creativecommons.org/ns#" xmlns:dc="http://purl.org/dc/elements/1.1/" xmlns:rdf="http://www.w3.org/1999/02/22-rdf-syntax-ns#" xmlns:svg="http://www.w3.org/2000/svg"
	 xmlns="http://www.w3.org/2000/svg" xmlns:xlink="http://www.w3.org/1999/xlink" x="0px" y="0px" viewBox="0 0 30 30"
	 style="enable-background:new 0 0 30 30;" xml:space="preserve">
<title  id="title3">Layer 1</title>
<g>
	<path d="M25.3,8.4c-0.4-2.1-1.7-4.1-3.2-5.6c-1.7-1.5-3.9-2.6-6.2-2.8c-1.3,0-2.6,0-3.9,0.4c-4.3,1.3-7.5,5.4-7.5,9.9
		c0,1.3,0.2,2.6,0.6,3.9c0.4,1.9,1.3,3.6,2.1,5.4c0.9,1.7,2.1,3.4,3.2,4.9c1.3,1.7,2.8,3.6,4.3,5.1C15,30,15,30,15,30s0-0.2,0.2-0.2
		c1.3-1.3,2.4-2.8,3.6-4.3c1.7-2.4,3.4-4.7,4.7-7.3c1.1-2.1,1.7-4.3,1.9-6.4C25.5,10.7,25.5,9.4,25.3,8.4z M12.4,5.6
		c0.6,0,1.3,0.4,1.7,0.9h4.3l1.1,0.9l-1.1,1.1H18l-0.9-0.9l-0.6,0.9l-0.9-0.9L15,8.4h-1.1c-0.2,0.4-0.9,0.9-1.5,0.9
		c-1.1,0-1.9-0.9-1.9-1.9S11.4,5.6,12.4,5.6z M19.5,15.9c-0.4,0-1.1-0.6-1.5-0.6s-1.1,0.6-1.5,0.6s-1.1-0.6-1.5-0.6
		c-0.4,0-1.1,0.6-1.5,0.6s-1.1-0.6-1.5-0.6c-0.4,0-1.1,0.6-1.5,0.6v-1.1c0.4,0,1.1-0.6,1.5-0.6c0.4,0,1.1,0.6,1.5,0.6
		s1.1-0.6,1.5-0.6c0.4,0,1.1,0.6,1.5,0.6s1.1-0.6,1.5-0.6c0.4,0,1.3,0.6,1.5,0.6C19.5,14.8,19.5,15.9,19.5,15.9z M19.1,13.3h-8.1
		l-1.1-1.7h3.9V9.6h2.6v1.9h3.9L19.1,13.3z"/>
	<circle cx="11.6" cy="7.3" r="0.4"/>
</g>
</svg>
