<?xml version="1.0" encoding="utf-8"?>
<!-- Generator: Adobe Illustrator 22.1.0, SVG Export Plug-In . SVG Version: 6.00 Build 0)  -->
<svg version="1.1" id="Layer_1" xmlns="http://www.w3.org/2000/svg" xmlns:xlink="http://www.w3.org/1999/xlink" x="0px" y="0px"
	 viewBox="0 0 30 30" style="enable-background:new 0 0 30 30;" xml:space="preserve">
<g>
	<path d="M11.4,7.5c-0.2,0.1-0.3,0.3-0.3,0.5c0,0.2,0.1,0.3,0.2,0.4c0.1,0.1,0.4,0.2,0.8,0.3V7.3l0,0C11.9,7.4,11.6,7.4,11.4,7.5z"
		/>
	<path d="M25.2,8.3c-0.5-2.2-1.6-4.1-3.3-5.6c-1.7-1.5-3.8-2.5-6.1-2.6c-1.3-0.1-2.6,0-3.9,0.4c-4.3,1.3-7.4,5.4-7.5,9.9
		c0,1.3,0.2,2.7,0.6,4c0.5,1.9,1.3,3.6,2.2,5.3c1,1.8,2,3.4,3.2,5c1.3,1.8,2.8,3.6,4.4,5.2c0,0,0.1,0.1,0.1,0.1
		c0-0.1,0.1-0.1,0.1-0.2c1.3-1.3,2.5-2.7,3.6-4.2c1.8-2.3,3.4-4.7,4.6-7.3c1-2.1,1.7-4.2,2-6.5C25.5,10.7,25.5,9.4,25.2,8.3z
		 M17.5,6v0.7c0.9,0,1.7,0.8,1.7,1.8c0,0.1,0,0.2,0,0.4h-0.7c0-0.1,0.1-0.2,0.1-0.4c0-0.6-0.4-1-1-1.1v0.7l-1.8-1.1L17.5,6z
		 M12.5,16v-0.7c-0.9,0-1.7-0.8-1.7-1.8c0-0.1,0-0.2,0-0.4l0.7,0c0,0.1-0.1,0.2-0.1,0.4c0,0.6,0.4,1,1,1.1v-0.7l1.8,1.1L12.5,16z
		 M14.7,11c-0.2,0.2-0.5,0.4-0.8,0.5c-0.3,0.1-0.6,0.2-1,0.2v0.7h-0.7v-0.7c-0.3,0-0.6-0.1-0.9-0.2c-0.4-0.1-0.7-0.3-0.9-0.6
		c-0.2-0.3-0.3-0.5-0.3-0.9l0.8-0.1c0,0.2,0.1,0.4,0.3,0.6c0.1,0.2,0.3,0.3,0.6,0.4c0.1,0,0.3,0.1,0.5,0.1V9.4
		c-0.5-0.1-0.8-0.2-1-0.3c-0.3-0.1-0.5-0.3-0.7-0.4c-0.1-0.2-0.2-0.4-0.2-0.6c0-0.2,0.1-0.5,0.3-0.7C10.7,7.2,11,7,11.3,6.9
		c0.3-0.1,0.5-0.1,0.8-0.1V6h0.7v0.7c0.3,0,0.6,0.1,0.8,0.1C14,7,14.3,7.2,14.5,7.4c0.2,0.2,0.3,0.5,0.3,0.8l-0.8,0
		c0-0.3-0.2-0.5-0.4-0.7c-0.2-0.1-0.4-0.2-0.7-0.2v1.5C13.4,9,13.7,9,13.9,9.1c0.4,0.1,0.6,0.3,0.8,0.5C14.9,9.8,15,10,15,10.3
		C15,10.5,14.9,10.8,14.7,11z M19.8,10.7c-0.4-0.3-0.8-0.4-1.2-0.4c-0.5,0-0.9,0.1-1.2,0.3c-0.2,0.1-0.4,0.3-0.6,0.5
		c-0.2,0.3-0.2,0.3-0.2,0.5h3l-0.1,0.7h-2.9c0,0.2,0,0.5,0,0.7h2.8l-0.1,0.7h-2.6c0.1,0.6,0.4,0.9,0.9,1.1c0.3,0.2,0.7,0.3,1.1,0.3
		c0.5,0,1-0.1,1.3-0.4v0.9C19.4,15.9,19,16,18.6,16c-1.3,0-2.3-0.5-2.7-1.6c-0.1-0.2-0.1-0.3-0.2-0.6H15l0.1-0.7h0.5
		c0-0.2,0-0.5,0-0.7H15l0.1-0.7h0.5c0.3-0.9,0.7-1.4,1.4-1.8c0.5-0.2,1-0.4,1.5-0.4l0,0c0.5,0,1,0.1,1.4,0.3L19.8,10.7z"/>
	<path d="M13.5,9.6c-0.1,0-0.4-0.1-0.6-0.1v1.6c0.2,0,0.4,0,0.6-0.1c0.2-0.1,0.4-0.2,0.5-0.3c0.1-0.1,0.2-0.3,0.2-0.4
		c0-0.2-0.1-0.3-0.2-0.4C13.9,9.8,13.7,9.7,13.5,9.6z"/>
</g>
</svg>
