<?xml version="1.0" encoding="UTF-8"?>
<!-- Generator: Adobe Illustrator 22.1.0, SVG Export Plug-In . SVG Version: 6.00 Build 0)  -->
<svg version="1.1" id="svg2" xmlns:cc="http://creativecommons.org/ns#" xmlns:dc="http://purl.org/dc/elements/1.1/" xmlns:rdf="http://www.w3.org/1999/02/22-rdf-syntax-ns#" xmlns:svg="http://www.w3.org/2000/svg" xmlns="http://www.w3.org/2000/svg" xmlns:xlink="http://www.w3.org/1999/xlink" x="0px" y="0px" viewBox="0 0 30 30" style="enable-background:new 0 0 30 30;" xml:space="preserve">
<g>
	<path d="M25.4,8.4c-0.4-2.1-1.7-4.1-3.2-5.6C20.5,1.3,18.3,0.2,16,0c-1.3,0-2.6,0-3.9,0.4c-4.3,1.3-7.5,5.4-7.5,9.9   c0,1.3,0.2,2.6,0.6,3.9c0.4,1.9,1.3,3.6,2.1,5.4c0.9,1.7,2.1,3.4,3.2,4.9c1.3,1.7,2.8,3.6,4.3,5.1C15,30,15,30,15,30s0-0.2,0.2-0.2   c1.3-1.3,2.4-2.8,3.6-4.3c1.7-2.4,3.4-4.7,4.7-7.3c1.1-2.1,1.7-4.3,1.9-6.4C25.6,10.7,25.6,9.4,25.4,8.4z M19.4,14.6h-0.6v0.6   c0,0.9-1.3,0.9-1.3,0v-0.6h-2.4h-2.4v0.6c0,0.9-1.3,0.9-1.3,0v-0.6h-0.6v-4.3l0.4-3.2c0.2-0.7,0.5-0.9,1.1-1.1   c0.4-0.2,1.9-0.4,2.8-0.4c0.9,0,2.4,0.2,2.8,0.4c0.7,0.2,0.9,0.5,1.1,1.1l0.4,3.2V14.6z"/>
	<path d="M18.5,10.1l-0.2-2.4c0-0.2,0-0.4-0.4-0.4h-2.8h-2.6c-0.4,0-0.6,0.2-0.8,0.4l-0.2,2.4c0,0.2,0.2,0.4,0.4,0.4h3.2h3   C18.5,10.5,18.5,10.3,18.5,10.1z"/>
	<path d="M12.1,12c-0.2,0-0.4,0.2-0.4,0.6c0,0.2,0.2,0.6,0.4,0.6c0.4,0,0.6-0.2,0.6-0.6C12.7,12.2,12.5,12,12.1,12z"/>
	<path d="M13.4,6.8h1.7h1.7c0.4,0,0.4-0.4,0-0.4h-1.7h-1.7C13,6.4,13,6.9,13.4,6.8z"/>
	<path d="M18.1,12c-0.4,0-0.6,0.2-0.6,0.6c0,0.2,0.2,0.6,0.6,0.6c0.4,0,0.6-0.2,0.6-0.6C18.7,12.2,18.5,12,18.1,12z"/>
</g>
</svg>