<?xml version="1.0" encoding="utf-8"?>
<!-- Generator: Adobe Illustrator 22.1.0, SVG Export Plug-In . SVG Version: 6.00 Build 0)  -->
<svg version="1.1" id="Layer_1" xmlns="http://www.w3.org/2000/svg" xmlns:xlink="http://www.w3.org/1999/xlink" x="0px" y="0px"
	 viewBox="0 0 30 30" style="enable-background:new 0 0 30 30;" xml:space="preserve">

<g>
	<path d="M19.5,7.7H18v2.1h1.5c0.4,0,0.9-0.4,0.9-1.1S20.1,7.7,19.5,7.7z"/>
	<path d="M25.3,8.4c-0.4-2.1-1.7-4.1-3.2-5.6c-1.7-1.5-3.9-2.6-6.2-2.8c-1.3,0-2.6,0-3.9,0.4c-4.3,1.3-7.5,5.4-7.5,9.9
		c0,1.3,0.2,2.6,0.6,3.9c0.4,1.9,1.3,3.6,2.1,5.4c0.9,1.7,2.1,3.4,3.2,4.9c1.3,1.7,2.8,3.6,4.3,5.1C15,30,15,30,15,30s0-0.2,0.2-0.2
		c1.3-1.3,2.4-2.8,3.6-4.3c1.7-2.4,3.4-4.7,4.7-7.3c1.1-2.1,1.7-4.3,1.9-6.4C25.5,10.7,25.5,9.4,25.3,8.4z M17.1,16.1h-6
		c-0.9,0-1.7-0.9-1.7-1.7h9.4C18.9,15.2,18,16.1,17.1,16.1z M21.4,9.2c0,0.9-0.9,1.7-1.7,1.7H18c0,1.7-1.7,2.6-3.9,2.6
		s-3.9-0.9-3.9-2.6V5.8H18v0.9h1.7c0.9,0,1.7,0.9,1.7,1.7V9.2z"/>
</g>
</svg>
