<?xml version="1.0" encoding="utf-8"?>
<!-- Generator: Adobe Illustrator 22.1.0, SVG Export Plug-In . SVG Version: 6.00 Build 0)  -->
<svg version="1.1"
	 id="svg2" xmlns:cc="http://creativecommons.org/ns#" xmlns:dc="http://purl.org/dc/elements/1.1/" xmlns:rdf="http://www.w3.org/1999/02/22-rdf-syntax-ns#" xmlns:svg="http://www.w3.org/2000/svg"
	 xmlns="http://www.w3.org/2000/svg" xmlns:xlink="http://www.w3.org/1999/xlink" x="0px" y="0px" viewBox="0 0 30 30"
	 style="enable-background:new 0 0 30 30;" xml:space="preserve">
<g>
	<polygon points="16.7,10.1 13.3,10.1 12.9,11.8 17.1,11.8 	"/>
	<path d="M12.6,12.9c-0.4,0-0.6,0.2-0.6,0.4c0,0.2,0.2,0.6,0.6,0.6c0.4,0,0.6-0.2,0.6-0.6C13.3,12.9,12.9,12.9,12.6,12.9z"/>
	<path d="M17.4,12.9c-0.2,0-0.6,0.2-0.6,0.4c0,0.2,0.4,0.6,0.6,0.6c0.4,0,0.6-0.2,0.6-0.6C18,12.9,17.8,12.9,17.4,12.9z"/>
	<path d="M25.3,8.4c-0.4-2.1-1.7-4.1-3.2-5.6c-1.7-1.5-3.9-2.6-6.2-2.8c-1.3,0-2.6,0-3.9,0.4c-4.3,1.3-7.5,5.4-7.5,9.9
		c0,1.3,0.2,2.6,0.6,3.9c0.4,1.9,1.3,3.6,2.1,5.4c0.9,1.7,2.1,3.4,3.2,4.9c1.3,1.7,2.8,3.6,4.3,5.1C15,30,15,30,15,30s0-0.2,0.2-0.2
		c1.3-1.3,2.4-2.8,3.6-4.3c1.7-2.4,3.4-4.7,4.7-7.3c1.1-2.1,1.7-4.3,1.9-6.4C25.5,10.7,25.5,9.4,25.3,8.4z M14.1,4.5h1.7l1.7,0.9
		h-4.9L14.1,4.5z M15.4,6.2v2.4h-0.9V6.2H15.4z M12.6,6.2h0.9l-1.7,2.4h-0.9L12.6,6.2z M19.1,15h-0.9c0,0,0,0.9-0.9,0.9
		c-0.6,0-0.6-0.9-0.6-0.9h-3.4c0,0,0,0.9-0.9,0.9c-0.6,0-0.6-0.9-0.6-0.9h-0.9v-2.4c0-0.4,0.4-0.9,0.9-0.9l0.9-2.4h4.9l0.9,2.4
		c0.4,0,0.9,0.4,0.9,0.9V15H19.1z M18.2,8.6l-1.5-2.4h0.9l1.5,2.4H18.2z"/>
</g>
</svg>
