<?xml version="1.0" encoding="utf-8"?>
<!-- Generator: Adobe Illustrator 22.1.0, SVG Export Plug-In . SVG Version: 6.00 Build 0)  -->
<svg version="1.1"
	 id="Layer_1" xmlns:cc="http://creativecommons.org/ns#" xmlns:dc="http://purl.org/dc/elements/1.1/" xmlns:rdf="http://www.w3.org/1999/02/22-rdf-syntax-ns#"
	 xmlns="http://www.w3.org/2000/svg" xmlns:xlink="http://www.w3.org/1999/xlink" x="0px" y="0px" viewBox="0 0 30 30"
	 style="enable-background:new 0 0 30 30;" xml:space="preserve">
<g>
	<path d="M10.5,9.6L10.5,9.6h-0.2c-0.6,0.2-1.1,0.9-0.9,1.5c0.2,0.6,0.9,0.9,1.3,0.9c0.6-0.2,0.9-0.9,0.9-1.3
		C11.6,10.1,11.1,9.6,10.5,9.6z"/>
	<path d="M12.4,6.2h-0.2c-0.6,0.2-1.1,0.9-0.9,1.5c0.2,0.6,0.9,1.1,1.5,0.9c0.6-0.2,0.9-0.9,0.9-1.3C13.5,6.6,13.1,6.2,12.4,6.2z"/>
	<path d="M15.9,13.5c-0.6,0-1.1,0.4-1.1,1.1s0.4,1.1,1.1,1.1c0.6,0,1.1-0.4,1.1-1.1S16.5,13.5,15.9,13.5z"/>
	<path d="M25.3,8.4c-0.4-2.1-1.7-4.1-3.2-5.6c-1.7-1.5-3.9-2.6-6.2-2.8c-1.3,0-2.6,0-3.9,0.4c-4.3,1.3-7.5,5.4-7.5,9.9
		c0,1.3,0.2,2.6,0.6,3.9c0.4,1.9,1.3,3.6,2.1,5.4c0.9,1.7,2.1,3.4,3.2,4.9c1.3,1.7,2.8,3.6,4.3,5.1C15,30,15,30,15,30s0-0.2,0.2-0.2
		c1.3-1.3,2.4-2.8,3.6-4.3c1.7-2.4,3.4-4.7,4.7-7.3c1.1-2.1,1.7-4.3,1.9-6.4C25.5,10.7,25.5,9.4,25.3,8.4z M13.1,10.9v3.2
		c0,0-0.2,0-0.4-0.2l-3-1.7C8.8,11.6,8.4,10.5,9,9.6l1.7-3c0.2-0.6,0.9-0.9,1.5-0.9l0,0c0.4,0,0.6,0,1.1,0.2l3.2,1.7
		c0.2,0.2,0.4,0.4,0.6,0.6h-1.3C14.4,8.4,13.1,9.4,13.1,10.9z M21.2,14.6c0,1.1-0.9,1.7-1.7,1.7h-3.6c-1.1,0-1.7-0.9-1.7-1.7v-3.6
		c0-1.1,0.9-1.7,1.7-1.7h3.6c1.1,0,1.7,0.9,1.7,1.7C21.2,10.9,21.2,14.6,21.2,14.6z"/>
	<path d="M19.5,9.9c-0.6,0-1.1,0.4-1.1,1.1c0,0.6,0.4,1.1,1.1,1.1c0.6,0,1.1-0.4,1.1-1.1C20.6,10.5,20.1,9.9,19.5,9.9z"/>
</g>
</svg>
