<?xml version="1.0" encoding="utf-8"?>
<!-- Generator: Adobe Illustrator 22.1.0, SVG Export Plug-In . SVG Version: 6.00 Build 0)  -->
<svg version="1.1"
	 id="svg2" xmlns:cc="http://creativecommons.org/ns#" xmlns:dc="http://purl.org/dc/elements/1.1/" xmlns:rdf="http://www.w3.org/1999/02/22-rdf-syntax-ns#" xmlns:svg="http://www.w3.org/2000/svg"
	 xmlns="http://www.w3.org/2000/svg" xmlns:xlink="http://www.w3.org/1999/xlink" x="0px" y="0px" viewBox="0 0 30 30"
	 style="enable-background:new 0 0 30 30;" xml:space="preserve">
<g>
	<path d="M25.3,8.4c-0.4-2.1-1.7-4.1-3.2-5.6c-1.7-1.5-3.9-2.6-6.2-2.8c-1.3,0-2.6,0-3.9,0.4c-4.3,1.3-7.5,5.4-7.5,9.9
		c0,1.3,0.2,2.6,0.6,3.9c0.4,1.9,1.3,3.6,2.1,5.4c0.9,1.7,2.1,3.4,3.2,4.9c1.3,1.7,2.8,3.6,4.3,5.1C15,30,15,30,15,30s0-0.2,0.2-0.2
		c1.3-1.3,2.4-2.8,3.6-4.3c1.7-2.4,3.4-4.7,4.7-7.3c1.1-2.1,1.7-4.3,1.9-6.4C25.5,10.7,25.5,9.4,25.3,8.4z M19.1,9.6v3
		c0,1.5-1.5,1.7-1.7,1.7c-0.2,0-1.7,0-1.7-1.7v-3C15.6,8.8,15,9,15,9v6H9.9V6.4c0-0.9,0.6-1.5,1.5-1.5h2.4c0.9,0,1.5,0.6,1.5,1.5
		v1.5c0.9,0,1.7,0.6,1.7,1.7v3c0,0.6,0.6,0.6,0.6,0.6s0.6,0,0.6-0.6v-3c0,0-1.1,0-1.1-2.4h0.6V5.8c0-0.4,0.6-0.4,0.6,0v1.5h0.9V5.8
		c0-0.4,0.6-0.4,0.6,0v1.5h0.6C20.1,9.6,19.1,9.6,19.1,9.6z"/>
	<polygon points="14.1,6.4 12,6.4 10.7,9.6 12,9.6 10.9,12.6 11.6,12.6 14.6,8.6 12.9,8.6 	"/>
</g>
</svg>
