<?xml version="1.0" encoding="utf-8"?>
<!-- Generator: Adobe Illustrator 22.1.0, SVG Export Plug-In . SVG Version: 6.00 Build 0)  -->
<svg version="1.1"
	 id="svg2" xmlns:cc="http://creativecommons.org/ns#" xmlns:dc="http://purl.org/dc/elements/1.1/" xmlns:rdf="http://www.w3.org/1999/02/22-rdf-syntax-ns#" xmlns:svg="http://www.w3.org/2000/svg"
	 xmlns="http://www.w3.org/2000/svg" xmlns:xlink="http://www.w3.org/1999/xlink" x="0px" y="0px" viewBox="0 0 30 30"
	 style="enable-background:new 0 0 30 30;" xml:space="preserve">
<g>
	<path d="M10.7,8.1h-0.4c-0.2,0-0.2,0-0.2,0.2v0.4c0,0.2,0,0.2,0.2,0.2h0.4c0.2,0,0.2,0,0.2-0.2L10.7,8.1
		C10.9,8.4,10.7,8.1,10.7,8.1z"/>
	<rect x="12.4" y="6.6" width="4.9" height="4.1"/>
	<path d="M10.7,9.9h-0.4c-0.2,0-0.2,0-0.2,0.2v0.4c0,0.2,0,0.2,0.2,0.2h0.4c0,0,0.2,0,0.2-0.2L10.7,9.9C10.9,10.1,10.7,9.9,10.7,9.9
		z"/>
	<path d="M10.7,6.6h-0.4c-0.2,0-0.2,0-0.2,0.2v0.4c0,0.2,0,0.2,0.2,0.2h0.4c0.2,0,0.2,0,0.2-0.2L10.7,6.6
		C10.9,6.6,10.7,6.6,10.7,6.6z"/>
	<path d="M10.7,14.8h-0.4c-0.2,0-0.2,0.2-0.2,0.2v0.4c0,0.2,0,0.2,0.2,0.2h0.4c0.2,0,0.2,0,0.2-0.2L10.7,14.8
		C10.9,15,10.7,14.8,10.7,14.8z"/>
	<path d="M10.7,11.6h-0.4c-0.2,0-0.2,0-0.2,0.2v0.4c0,0.2,0,0.2,0.2,0.2h0.4c0.2,0,0.2,0,0.2-0.2L10.7,11.6
		C10.9,11.6,10.7,11.6,10.7,11.6z"/>
	<path d="M10.7,13.3h-0.4c-0.2,0-0.2,0-0.2,0.2v0.4c0,0.2,0,0.2,0.2,0.2h0.4c0.2,0,0.2,0,0.2-0.2L10.7,13.3
		C10.9,13.3,10.7,13.3,10.7,13.3z"/>
	<rect x="12.4" y="11.6" width="4.9" height="4.1"/>
	<path d="M19.7,6.6h-0.4c-0.2,0-0.2,0-0.2,0.2v0.4c0,0.2,0,0.2,0.2,0.2h0.4c0.2,0,0.2,0,0.2-0.2L19.7,6.6
		C19.9,6.6,19.9,6.6,19.7,6.6z"/>
	<path d="M19.7,14.8h-0.4L19.1,15v0.4c0,0.2,0,0.2,0.2,0.2h0.4c0.2,0,0.2,0,0.2-0.2L19.7,14.8C19.9,15,19.9,14.8,19.7,14.8z"/>
	<path d="M19.7,8.1h-0.4c-0.2,0-0.2,0-0.2,0.2v0.4c0,0.2,0,0.2,0.2,0.2h0.4c0.2,0,0.2,0,0.2-0.2L19.7,8.1
		C19.9,8.4,19.9,8.1,19.7,8.1z"/>
	<path d="M25.3,8.4c-0.4-2.1-1.7-4.1-3.2-5.6c-1.7-1.5-3.9-2.6-6.2-2.8c-1.3,0-2.6,0-3.9,0.4c-4.3,1.3-7.5,5.4-7.5,9.9
		c0,1.3,0.2,2.6,0.6,3.9c0.4,1.9,1.3,3.6,2.1,5.4c0.9,1.7,2.1,3.4,3.2,4.9c1.3,1.7,2.8,3.6,4.3,5.1C15,30,15,30,15,30s0-0.2,0.2-0.2
		c1.3-1.3,2.4-2.8,3.6-4.3c1.7-2.4,3.4-4.7,4.7-7.3c1.1-2.1,1.7-4.3,1.9-6.4C25.5,10.7,25.5,9.4,25.3,8.4z M20.8,15.6
		c0,0.4-0.4,0.9-0.9,0.9h-9.9c-0.4,0-0.9-0.4-0.9-0.9v-9c0-0.4,0.4-0.9,0.9-0.9h9.9c0.4,0,0.9,0.4,0.9,0.9
		C20.8,6.6,20.8,15.6,20.8,15.6z"/>
	<path d="M19.7,13.3h-0.4c-0.2,0-0.2,0-0.2,0.2v0.4c0,0.2,0,0.2,0.2,0.2h0.4c0.2,0,0.2,0,0.2-0.2L19.7,13.3
		C19.9,13.3,19.9,13.3,19.7,13.3z"/>
	<path d="M19.7,11.6h-0.4c-0.2,0-0.2,0-0.2,0.2v0.4c0,0.2,0,0.2,0.2,0.2h0.4c0.2,0,0.2,0,0.2-0.2L19.7,11.6
		C19.9,11.6,19.9,11.6,19.7,11.6z"/>
	<path d="M19.7,9.9h-0.4c-0.2,0-0.2,0-0.2,0.2v0.4c0,0.2,0.2,0.2,0.2,0.2h0.4c0.2,0,0.2,0,0.2-0.2L19.7,9.9
		C19.9,10.1,19.9,9.9,19.7,9.9z"/>
</g>
</svg>
