<?xml version="1.0" encoding="utf-8"?>
<!-- Generator: Adobe Illustrator 22.1.0, SVG Export Plug-In . SVG Version: 6.00 Build 0)  -->
<svg version="1.1"
	 id="svg2" xmlns:cc="http://creativecommons.org/ns#" xmlns:dc="http://purl.org/dc/elements/1.1/" xmlns:rdf="http://www.w3.org/1999/02/22-rdf-syntax-ns#" xmlns:svg="http://www.w3.org/2000/svg"
	 xmlns="http://www.w3.org/2000/svg" xmlns:xlink="http://www.w3.org/1999/xlink" x="0px" y="0px" viewBox="0 0 30 30"
	 style="enable-background:new 0 0 30 30;" xml:space="preserve">
<g>
	<polygon points="17.1,11.6 19.9,11.6 18.4,8.4 	"/>
	<polygon points="10.1,11.6 12.9,11.6 11.6,8.4 	"/>
	<path d="M25.3,8.4c-0.4-2.1-1.7-4.1-3.2-5.6c-1.7-1.5-3.9-2.6-6.2-2.8c-1.3,0-2.6,0-3.9,0.4c-4.3,1.3-7.5,5.4-7.5,9.9
		c0,1.3,0.2,2.6,0.6,3.9c0.4,1.9,1.3,3.6,2.1,5.4c0.9,1.7,2.1,3.4,3.2,4.9c1.3,1.7,2.8,3.6,4.3,5.1C15,30,15,30,15,30s0-0.2,0.2-0.2
		c1.3-1.3,2.4-2.8,3.6-4.3c1.7-2.4,3.4-4.7,4.7-7.3c1.1-2.1,1.7-4.3,1.9-6.4C25.5,10.7,25.5,9.4,25.3,8.4z M18.4,13.1
		c-1.3,0-1.9-0.9-1.9-1.5l1.7-3.9h-2.4v7.7h3.2l0.9,0.9h-9.6l0.9-0.9h3.2V7.5h-2.6l1.7,3.9c0,0.9-0.6,1.5-1.9,1.5S9.6,12,9.6,11.4
		l1.7-3.9V6.9l3-0.9c0,0,0-0.9,0.9-0.9S16.1,6,16.1,6l3,0.9v0.9l1.7,3.9C20.4,12.2,19.9,13.1,18.4,13.1z"/>
</g>
</svg>
