<?xml version="1.0" encoding="utf-8"?>
<!-- Generator: Adobe Illustrator 22.1.0, SVG Export Plug-In . SVG Version: 6.00 Build 0)  -->
<svg version="1.1" id="Layer_1" xmlns="http://www.w3.org/2000/svg" xmlns:xlink="http://www.w3.org/1999/xlink" x="0px" y="0px"
	 viewBox="0 0 30 30" style="enable-background:new 0 0 30 30;" xml:space="preserve">
<g>
	<polygon points="15.9,9 14.1,9 14.1,10.7 12.6,10.7 12.6,12.4 14.1,12.4 14.1,13.9 15.9,13.9 15.9,12.4 17.4,12.4 17.4,10.7 
		15.9,10.7 	"/>
	<path d="M15,6.6c-1.1,0-1.7,0.9-1.7,1.7h3.4C16.7,7.5,16.1,6.6,15,6.6z"/>
	<path d="M25.3,8.4c-0.4-2.1-1.7-4.1-3.2-5.6c-1.7-1.5-3.9-2.6-6.2-2.8c-1.3,0-2.6,0-3.9,0.4c-4.3,1.3-7.5,5.4-7.5,9.9
		c0,1.3,0.2,2.6,0.6,3.9c0.4,1.9,1.3,3.6,2.1,5.4c0.9,1.7,2.1,3.4,3.2,4.9c1.3,1.7,2.8,3.6,4.3,5.1C15,30,15,30,15,30s0-0.2,0.2-0.2
		c1.3-1.3,2.4-2.8,3.6-4.3c1.7-2.4,3.4-4.7,4.7-7.3c1.1-2.1,1.7-4.3,1.9-6.4C25.5,10.7,25.5,9.4,25.3,8.4z M9.2,14.8
		c0-5.6,0-6.6,2.4-6.6c0-0.9,0.2-1.3,0.9-2.1c0.6-0.6,1.7-1.1,2.6-1.1c0.9,0,1.9,0.4,2.6,1.3c0.6,0.6,0.6,1.3,0.9,2.1
		c2.4,0,2.4,0.9,2.4,6.6H9.2V14.8z"/>
</g>
</svg>
