<?xml version="1.0" encoding="utf-8"?>
<!-- Generator: Adobe Illustrator 22.1.0, SVG Export Plug-In . SVG Version: 6.00 Build 0)  -->
<svg version="1.1"
	 id="svg2" xmlns:cc="http://creativecommons.org/ns#" xmlns:dc="http://purl.org/dc/elements/1.1/" xmlns:rdf="http://www.w3.org/1999/02/22-rdf-syntax-ns#" xmlns:svg="http://www.w3.org/2000/svg"
	 xmlns="http://www.w3.org/2000/svg" xmlns:xlink="http://www.w3.org/1999/xlink" x="0px" y="0px" viewBox="0 0 30 30"
	 style="enable-background:new 0 0 30 30;" xml:space="preserve">

<g>
	<path d="M15.2,12.2h-0.4c-0.4,0-0.4,0.6-0.4,0.6v1.1c0,0,0,0.6,0.6,0.6h0.4c0.6,0,0.6-0.6,0.6-0.6v-1.1
		C15.6,12.9,15.6,12.2,15.2,12.2z"/>
	<path d="M25.3,8.4c-0.4-2.1-1.7-4.1-3.2-5.6c-1.7-1.5-3.9-2.6-6.2-2.8c-1.3,0-2.6,0-3.9,0.4c-4.3,1.3-7.5,5.4-7.5,9.9
		c0,1.3,0.2,2.6,0.6,3.9c0.4,1.9,1.3,3.6,2.1,5.4c0.9,1.7,2.1,3.4,3.2,4.9c1.3,1.7,2.8,3.6,4.3,5.1C15,30,15,30,15,30s0-0.2,0.2-0.2
		c1.3-1.3,2.4-2.8,3.6-4.3c1.7-2.4,3.4-4.7,4.7-7.3c1.1-2.1,1.7-4.3,1.9-6.4C25.5,10.7,25.5,9.4,25.3,8.4z M11.8,15.2h-1.5v-0.9h1.5
		c0,0,0.4,0,0.4-0.4c0-0.4-0.4-0.2-0.4-0.2h-0.9c-0.6,0-1.1-0.4-1.1-1.1s0.4-1.1,1.1-1.1h1.5v0.6h-1.5c0,0-0.4,0-0.4,0.4
		s0.4,0.4,0.4,0.4h0.6c0.6,0,1.3,0.4,1.3,0.9C12.9,14.8,12.2,15.2,11.8,15.2z M12.9,9.4c0,0-0.2,0.4-0.6,0.6h-1.5
		c-0.4,0-0.6-0.6-0.6-0.6V9.2h2.8V9.4z M16.5,14.1c0,0,0,1.1-1.1,1.1h-0.9c-1.1,0-1.1-1.1-1.1-1.1v-1.5c0,0,0-1.1,1.1-1.1h0.6
		c1.1,0,1.1,1.1,1.1,1.1v1.5H16.5z M19.1,15.2h-1.5v-0.9h1.5c0,0,0.4,0,0.4-0.4c0-0.4-0.4-0.2-0.4-0.2h-0.9c-0.4,0-1.1-0.4-1.1-1.1
		c0-0.6,0.4-1.1,1.1-1.1h1.5v0.6h-1.5c0,0-0.4,0-0.4,0.4s0.4,0.4,0.4,0.4h0.6c0.6,0,1.1,0.4,1.1,1.1C20.1,14.8,19.5,15.2,19.1,15.2z
		 M20.1,9.4c0,0-0.2,0.6-0.6,0.6H18c-0.4,0-0.9-0.6-0.9-0.6V9.2h3V9.4z M20.1,8.6h-3l-0.6-0.6h-3l-0.6,0.6h-3V7.9
		c0-0.9,0.9-1.5,1.5-1.5h7.3c0.6,0,1.5,0.6,1.5,1.5V8.6z"/>
</g>
</svg>
