<?xml version="1.0" encoding="utf-8"?>
<!-- Generator: Adobe Illustrator 22.1.0, SVG Export Plug-In . SVG Version: 6.00 Build 0)  -->
<svg version="1.1"
	 id="svg109" xmlns:cc="http://creativecommons.org/ns#" xmlns:dc="http://purl.org/dc/elements/1.1/" xmlns:rdf="http://www.w3.org/1999/02/22-rdf-syntax-ns#" xmlns:svg="http://www.w3.org/2000/svg"
	 xmlns="http://www.w3.org/2000/svg" xmlns:xlink="http://www.w3.org/1999/xlink" x="0px" y="0px" viewBox="0 0 30 30"
	 style="enable-background:new 0 0 30 30;" xml:space="preserve">
<g>
	<rect x="12" y="7.7" width="6" height="0.9"/>
	<path d="M25.3,8.4c-0.4-2.1-1.7-4.1-3.2-5.6c-1.7-1.5-3.9-2.6-6.2-2.8c-1.3,0-2.6,0-3.9,0.4c-4.3,1.3-7.5,5.4-7.5,9.9
		c0,1.3,0.2,2.6,0.6,3.9c0.4,1.9,1.3,3.6,2.1,5.4c0.9,1.7,2.1,3.4,3.2,4.9c1.3,1.7,2.8,3.6,4.3,5.1C15,30,15,30,15,30s0-0.2,0.2-0.2
		c1.3-1.3,2.4-2.8,3.6-4.3c1.7-2.4,3.4-4.7,4.7-7.3c1.1-2.1,1.7-4.3,1.9-6.4C25.5,10.7,25.5,9.4,25.3,8.4z M10.5,16.1l0.9-1.5V6.9
		c2.6,0,5.1,0,7.7,0v7.7l0.9,1.5C16.5,16.1,13.5,16.1,10.5,16.1z M20.4,7.7h-0.9V6.2h-9v1.5H9.6c0-0.9,0-1.5,0-2.4
		c3.6,0,7.1,0,10.7,0V7.7z"/>
	<path d="M12,15c0,0.2,0.2,0.4,0.4,0.4h5.4c0.2,0,0.4-0.2,0.4-0.4c0-1.9,0-3.9,0-5.8H12C12,11.1,12,13.1,12,15z M13.5,13.1h0.9
		c-0.4,0-0.9-0.4-0.9-0.9c0-0.4,0.4-0.9,0.9-0.9c0.4-0.2,0.6-0.6,0.6-1.5c0.6,0.4,0.9,0.9,0.9,1.7c0.4,0,0.9,0.4,0.9,0.9
		s-0.4,0.6-0.9,0.6h0.9c0.4,0,0.9,0.4,0.9,0.9c0,0.4-0.6,0.6-1.1,0.6h-3c-0.4,0-0.9-0.4-0.9-0.9S13.1,13.1,13.5,13.1z"/>
</g>
</svg>
