<?xml version="1.0" encoding="utf-8"?>
<!-- Generator: Adobe Illustrator 22.1.0, SVG Export Plug-In . SVG Version: 6.00 Build 0)  -->
<svg version="1.1"
	 id="svg2" xmlns:cc="http://creativecommons.org/ns#" xmlns:dc="http://purl.org/dc/elements/1.1/" xmlns:rdf="http://www.w3.org/1999/02/22-rdf-syntax-ns#" xmlns:svg="http://www.w3.org/2000/svg"
	 xmlns="http://www.w3.org/2000/svg" xmlns:xlink="http://www.w3.org/1999/xlink" x="0px" y="0px" viewBox="0 0 30 30"
	 style="enable-background:new 0 0 30 30;" xml:space="preserve">

<path d="M25.3,8.4c-0.4-2.1-1.7-4.1-3.2-5.6c-1.7-1.5-3.9-2.6-6.2-2.8c-1.3,0-2.6,0-3.9,0.4c-4.3,1.3-7.5,5.4-7.5,9.9
	c0,1.3,0.2,2.6,0.6,3.9c0.4,1.9,1.3,3.6,2.1,5.4c0.9,1.7,2.1,3.4,3.2,4.9c1.3,1.7,2.8,3.6,4.3,5.1C15,30,15,30,15,30s0-0.2,0.2-0.2
	c1.3-1.3,2.4-2.8,3.6-4.3c1.7-2.4,3.4-4.7,4.7-7.3c1.1-2.1,1.7-4.3,1.9-6.4C25.5,10.7,25.5,9.4,25.3,8.4z M11.1,11.1
	c0-1.7,1.1-2.6,2.4-2.6c0.4,0,0.6,0,1.1,0.2V8.6c-0.4-2.6-1.3-2.8-2.1-1.3c0,0.6-0.9,0.9-0.9,0s0.4-2.4,1.7-2.4
	c0.9,0,1.5,0.9,1.7,1.5c0.2-0.6,0.9-1.5,1.7-1.5c1.3,0,1.7,1.5,1.7,2.4s-0.9,0.4-0.9,0c-0.9-1.5-1.7-0.9-1.9,1.5V9
	c0.2-0.2,0.6-0.4,1.1-0.4c1.3,0,2.4,0.9,2.4,2.6V12c0,0.9-1.3,0.9-1.3,0v-0.9c0-0.9-0.6-1.3-1.1-1.3c-0.4,0-1.1,0.4-1.1,1.1l0,0v1.9
	c-0.6-0.2-0.6-0.2-1.3,0.4v-2.1l0,0c0-0.6-0.6-1.3-1.1-1.3s-1.1,0.4-1.1,1.3V12c0,0.9-1.3,0.9-1.3,0v-0.9H11.1z M15,16.5
	c-1.7,0-4.7-0.9-5.8-2.6h11.6C19.9,15.6,16.7,16.5,15,16.5z"/>
</svg>
