<?xml version="1.0" encoding="utf-8"?>
<!-- Generator: Adobe Illustrator 22.1.0, SVG Export Plug-In . SVG Version: 6.00 Build 0)  -->
<svg version="1.1"
	 id="svg2" xmlns:cc="http://creativecommons.org/ns#" xmlns:dc="http://purl.org/dc/elements/1.1/" xmlns:rdf="http://www.w3.org/1999/02/22-rdf-syntax-ns#" xmlns:svg="http://www.w3.org/2000/svg"
	 xmlns="http://www.w3.org/2000/svg" xmlns:xlink="http://www.w3.org/1999/xlink" x="0px" y="0px" viewBox="0 0 30 30"
	 style="enable-background:new 0 0 30 30;" xml:space="preserve">
<g>
	<path d="M19.5,13.5c-0.2,0-0.6,0.2-0.6,0.4l-0.2,0.2c0,0.4,0,0.6,0.2,0.9l0.2,0.2h0.2c0,0,0.2,0,0.4,0c0.4,0,0.6-0.4,0.9-0.6
		c0,0,0-0.2,0-0.4C20.4,13.7,19.9,13.5,19.5,13.5z"/>
	<path d="M15.2,7.3c0-0.6-0.4-1.1-1.3-1.1h-2.1v2.1h2.1C14.8,8.4,15.2,7.9,15.2,7.3z"/>
	<path d="M13.7,13.5c-0.2,0-0.2,0-0.2,0c-0.2,0-0.2,0-0.4,0c0,0-0.2,0-0.2,0.2c-0.2,0.2-0.2,0.4-0.2,0.4s0,0.2,0,0.4s0,0.4,0.2,0.4
		c0.2,0,0.2,0.2,0.4,0.2h0.2c0.6,0,0.9-0.6,0.9-1.1C14.4,13.9,14.1,13.7,13.7,13.5z"/>
	<path d="M25.3,8.4c-0.4-2.1-1.7-4.1-3.2-5.6c-1.7-1.5-3.9-2.6-6.2-2.8c-1.3,0-2.6,0-3.9,0.4c-4.3,1.3-7.5,5.4-7.5,9.9
		c0,1.3,0.2,2.6,0.6,3.9c0.4,1.9,1.3,3.6,2.1,5.4c0.9,1.7,2.1,3.4,3.2,4.9c1.3,1.7,2.8,3.6,4.3,5.1C15,30,15,30,15,30s0-0.2,0.2-0.2
		c1.3-1.3,2.4-2.8,3.6-4.3c1.7-2.4,3.4-4.7,4.7-7.3c1.1-2.1,1.7-4.3,1.9-6.4C25.5,10.7,25.5,9.4,25.3,8.4z M12,12.9h-1.7V4.5h4.1
		c1.3,0,2.6,0.9,2.6,2.8s-1.3,2.8-3,2.8h-2.1v2.8H12z M15,14.6c0,0.4-0.4,0.9-0.9,1.1c-0.2,0-0.2,0.2-0.4,0.2c0,0-0.2,0-0.4,0
		c-0.6,0-1.1-0.6-1.3-1.1c0-0.2,0-0.2,0-0.4s0.2-0.6,0.4-0.9c0.2-0.2,0.4-0.4,0.9-0.4c0,0,0,0,0.2,0c0.2,0,0.2,0,0.4,0
		c0.4,0.2,0.9,0.6,1.1,1.1C15,14.4,15,14.6,15,14.6z M17.8,14.4L17.8,14.4C17.8,14.6,17.6,14.6,17.8,14.4c-0.4,0.4-0.6,0.4-1.1,0.4
		c-0.2,0-0.2,0-0.9,0c-0.4,0-0.6,0-0.6,0l0,0c0,0,0,0,0-0.2c0-0.2,0-0.4,0-0.6c0-0.6-0.4-0.9-1.1-1.1c-0.4,0-0.6,0-1.1,0h-0.2l0,0
		c0,0,0-0.2,0-0.4v-0.2l0.6-0.6c1.5,0,1.9,0,3.2,0c0,0,0.4,0.6,0.4,0.9c0,0,0,0,0,0.2l0,0h0.2c0.2,0,0.4-0.4,0.4-0.6
		c0.4-1.3-1.3-4.7,1.7-0.2c0.2,0.2,0.2,0.2,0.4,0.4c0,0,0,0,0,0.2v0.2c0,0.2,0,0.2-0.2,0.4l0,0l0,0c-0.4-0.2-0.6-0.2-1.1,0
		C18.2,13.3,18,13.7,17.8,14.4L17.8,14.4z M20.8,15c-0.2,0.4-0.6,0.6-1.3,0.6c-0.2,0-0.4,0-0.6,0s-0.6-0.4-0.9-0.9
		c-0.2-0.4,0-0.9,0.2-1.1c0.2-0.4,0.6-0.6,1.1-0.6c0.4,0,0.9,0.2,1.1,0.4C21,13.9,21,14.6,20.8,15z"/>
</g>
</svg>
