<?xml version="1.0" encoding="UTF-8"?>
<!-- Generator: Adobe Illustrator 22.1.0, SVG Export Plug-In . SVG Version: 6.00 Build 0)  -->
<svg version="1.1" id="svg109" xmlns:cc="http://creativecommons.org/ns#" xmlns:dc="http://purl.org/dc/elements/1.1/" xmlns:osb="http://www.openswatchbook.org/uri/2009/osb" xmlns:rdf="http://www.w3.org/1999/02/22-rdf-syntax-ns#" xmlns:svg="http://www.w3.org/2000/svg" xmlns="http://www.w3.org/2000/svg" xmlns:xlink="http://www.w3.org/1999/xlink" x="0px" y="0px" viewBox="0 0 30 30" style="enable-background:new 0 0 30 30;" xml:space="preserve">
<g>
	<path d="M14.3,12.4c0,0.2-0.1,0.4-0.1,0.6c0,0.1,0,0.1,0.1,0.2c0.1,0.1,0.2,0.1,0.3,0.2C14.5,13.1,14.4,12.7,14.3,12.4   C14.3,12.4,14.3,12.4,14.3,12.4z"/>
	<path d="M13.5,12.7c-0.1,0.2-0.1,0.3,0.1,0.4c0.1,0.1,0.3,0.1,0.4,0.1c0-0.1,0-0.3,0.1-0.4C13.9,12.8,13.7,12.8,13.5,12.7z"/>
	<path d="M14.6,12.5c0.1,0.2,0.2,0.4,0.3,0.7c0.1-0.2,0.1-0.5,0.2-0.7C14.9,12.5,14.7,12.5,14.6,12.5z"/>
	<path d="M15,13.1c0.2-0.2,0.3-0.4,0.5-0.5c-0.1-0.1-0.2-0.1-0.3-0.2C15.1,12.6,15.1,12.9,15,13.1z"/>
	<path d="M25.2,8.3c-0.5-2.2-1.6-4.1-3.3-5.6c-1.7-1.5-3.8-2.5-6.1-2.6c-1.3-0.1-2.6,0-3.9,0.4c-4.3,1.3-7.4,5.4-7.5,9.9   c0,1.3,0.2,2.7,0.6,4c0.5,1.9,1.3,3.6,2.2,5.3c1,1.8,2,3.4,3.2,5c1.3,1.8,2.8,3.6,4.4,5.2c0,0,0.1,0.1,0.1,0.1   c0-0.1,0.1-0.1,0.1-0.2c1.3-1.3,2.5-2.7,3.6-4.2c1.8-2.3,3.4-4.7,4.6-7.3c1-2.1,1.7-4.2,2-6.5C25.5,10.7,25.5,9.4,25.2,8.3z    M18.8,11.3c-0.1,0-0.1,0.1-0.2,0.1c0.1,0.4,0.1,0.8-0.1,1.2c-0.2,0.3-0.4,0.5-0.7,0.6c-0.6,0.2-1.4,0.1-1.8-0.6   c-0.2,0.2-0.5,0.4-0.7,0.7c-0.1,0.1-0.1,0.3-0.1,0.5c0,0.8,0,1.7,0.2,2.5c0.1,0.3,0.2,0.7,0.4,0.9c-0.6,0-1.3,0-1.9,0   c0.4-0.3,0.5-0.7,0.6-1.2c0.1-0.6,0.2-1.3,0.1-1.9c0-0.4-0.1-0.6-0.5-0.7c-0.1,0-0.3,0-0.4-0.1c-0.2,0-0.4-0.1-0.5-0.3   c-0.4,0.3-0.8,0.3-1.2,0c-0.4-0.3-0.5-0.7-0.5-1.1c-0.9-0.3-1-1.4-0.3-1.9c-0.5-0.4-0.6-0.8-0.4-1.4c0.2-0.4,0.6-0.6,1.2-0.6   C12,7.7,12,7.3,12.2,6.9c0.2-0.3,0.4-0.5,0.7-0.6c0.5-0.2,1.4,0,1.7,0.8C14.9,7.1,15,7,15.2,7c0.4-0.1,0.8,0.1,1,0.4   c0,0.1,0.1,0.1,0.2,0.1c0.6-0.1,1.1,0.3,1.2,0.8c0,0,0,0,0,0c0.2,0,0.3,0,0.5,0c0.5,0.1,0.9,0.6,0.8,1.1c0,0.1,0,0.1,0.1,0.2   C19.4,10.1,19.3,10.9,18.8,11.3z"/>
</g>
</svg>