<?xml version="1.0" encoding="utf-8"?>
<!-- Generator: Adobe Illustrator 22.1.0, SVG Export Plug-In . SVG Version: 6.00 Build 0)  -->
<svg version="1.1"
	 id="svg8" xmlns:cc="http://creativecommons.org/ns#" xmlns:dc="http://purl.org/dc/elements/1.1/" xmlns:rdf="http://www.w3.org/1999/02/22-rdf-syntax-ns#" xmlns:svg="http://www.w3.org/2000/svg"
	 xmlns="http://www.w3.org/2000/svg" xmlns:xlink="http://www.w3.org/1999/xlink" x="0px" y="0px" viewBox="0 0 30 30"
	 style="enable-background:new 0 0 30 30;" xml:space="preserve">

<path d="M25.3,8.4c-0.4-2.1-1.7-4.1-3.2-5.6c-1.7-1.5-3.9-2.6-6.2-2.8c-1.3,0-2.6,0-3.9,0.4c-4.3,1.3-7.5,5.4-7.5,9.9
	c0,1.3,0.2,2.6,0.6,3.9c0.4,1.9,1.3,3.6,2.1,5.4c0.9,1.7,2.1,3.4,3.2,4.9c1.3,1.7,2.8,3.6,4.3,5.1C15,30,15,30,15,30s0-0.2,0.2-0.2
	c1.3-1.3,2.4-2.8,3.6-4.3c1.7-2.4,3.4-4.7,4.7-7.3c1.1-2.1,1.7-4.3,1.9-6.4C25.5,10.7,25.5,9.4,25.3,8.4z M15,4.9
	c0.6,0,1.3,0.6,1.3,1.3S15.6,7.5,15,7.5s-1.3-0.6-1.3-1.3C13.7,5.4,14.4,4.9,15,4.9z M12,9.4c0-1.1,0.6-1.9,1.3-1.9h3.4
	c0.6,0,1.3,0.6,1.3,1.9V12h-1.1V9c0-0.4,0-0.4-0.2-0.4V12h-3.4V8.6c-0.2,0-0.2,0-0.2,0.4v3H12V9.4z M20.1,14.8
	c-0.4-0.2-0.9-0.4-1.3-0.4S17.4,15,16.9,15s-1.5-0.6-1.9-0.6c-0.4,0-1.5,0.6-1.9,0.6c-0.6,0-1.5-0.6-1.9-0.6c-0.4,0-0.9,0.2-1.3,0.4
	v-1.5c0.4-0.2,0.9-0.4,1.3-0.4c0.4,0,1.5,0.6,1.9,0.6c0.4,0,1.5-0.6,1.9-0.6c0.4,0,1.5,0.6,1.9,0.6s1.5-0.6,1.9-0.6s0.9,0.2,1.3,0.4
	V14.8z"/>
</svg>
