<?xml version="1.0" encoding="utf-8"?>
<!-- Generator: Adobe Illustrator 22.1.0, SVG Export Plug-In . SVG Version: 6.00 Build 0)  -->
<svg version="1.1" id="Layer_1" xmlns="http://www.w3.org/2000/svg" xmlns:xlink="http://www.w3.org/1999/xlink" x="0px" y="0px"
	 viewBox="0 0 30 30" style="enable-background:new 0 0 30 30;" xml:space="preserve">

<path d="M25.3,8.4c-0.4-2.1-1.7-4.1-3.2-5.6c-1.7-1.5-3.9-2.6-6.2-2.8c-1.3,0-2.6,0-3.9,0.4c-4.3,1.3-7.5,5.4-7.5,9.9
	c0,1.3,0.2,2.6,0.6,3.9c0.4,1.9,1.3,3.6,2.1,5.4c0.9,1.7,2.1,3.4,3.2,4.9c1.3,1.7,2.8,3.6,4.3,5.1C15,30,15,30,15,30s0-0.2,0.2-0.2
	c1.3-1.3,2.4-2.8,3.6-4.3c1.7-2.4,3.4-4.7,4.7-7.3c1.1-2.1,1.7-4.3,1.9-6.4C25.5,10.7,25.5,9.4,25.3,8.4z M10.5,15.2l-1.1-2.1
	c0-0.2,0-0.2,0-0.4c0-0.2,0-0.2,0-0.4l0.6-1.3l-1.3-0.6h3l1.5,2.6L12,12.2l-1.3,2.6C10.5,14.8,10.5,15,10.5,15.2z M14.8,16.3h-3
	c-0.2,0-0.4,0-0.6-0.2c-0.2-0.2-0.2-0.4-0.2-0.6c0-0.2,0-0.2,0.2-0.4l0.4-0.6c0.2-0.2,0.2-0.4,0.2-0.4h3
	C14.8,13.9,14.8,16.3,14.8,16.3z M13.3,9.9C12.6,9.4,12,9,11.4,8.6L12.9,6c0.2-0.2,0.4-0.4,0.6-0.4c0.4,0,0.6,0.2,0.6,0.4l0.6,1.1
	C14.4,8.1,13.9,9,13.3,9.9z M15,9l0.9-0.4l0.2-0.2l-1.3-2.6c0-0.2-0.2-0.2-0.2-0.4h2.4c0.2,0,0.4,0.2,0.6,0.4l0.6,1.3l1.1-0.6
	L17.8,9H15z M19.3,16.1c0,0.2-0.2,0.2-0.6,0.2h-1.3v1.5l-1.5-2.6l1.5-2.6v1.1v0.2h2.8c0,0,0.2,0,0.4,0L19.3,16.1z M20.8,13.1
	c0,0.2-0.4,0.4-0.6,0.4h-1.3c-0.2-0.6-0.9-1.7-1.5-2.8c1.3-0.9,1.9-1.1,2.1-1.3L21,12C21,12.4,21,12.6,20.8,13.1z"/>
</svg>
