<?xml version="1.0" encoding="utf-8"?>
<!-- Generator: Adobe Illustrator 22.1.0, SVG Export Plug-In . SVG Version: 6.00 Build 0)  -->
<svg version="1.1" id="Layer_1" xmlns="http://www.w3.org/2000/svg" xmlns:xlink="http://www.w3.org/1999/xlink" x="0px" y="0px"
	 viewBox="0 0 30 30" style="enable-background:new 0 0 30 30;" xml:space="preserve">

<g>
	<circle cx="12" cy="15.2" r="0.9"/>
	<circle cx="11.4" cy="7.7" r="0.4"/>
	<path d="M13.1,13.5c0.2,0,0.2,0.2,0.4,0.4h1.3l1.1-1.1h-2.6L13.1,13.5z"/>
	<path d="M25.3,8.4c-0.4-2.1-1.7-4.1-3.2-5.6c-1.7-1.5-3.9-2.6-6.2-2.8c-1.3,0-2.6,0-3.9,0.4c-4.3,1.3-7.5,5.4-7.5,9.9
		c0,1.3,0.2,2.6,0.6,3.9c0.4,1.9,1.3,3.6,2.1,5.4c0.9,1.7,2.1,3.4,3.2,4.9c1.3,1.7,2.8,3.6,4.3,5.1C15,30,15,30,15,30s0-0.2,0.2-0.2
		c1.3-1.3,2.4-2.8,3.6-4.3c1.7-2.4,3.4-4.7,4.7-7.3c1.1-2.1,1.7-4.3,1.9-6.4C25.5,10.7,25.5,9.4,25.3,8.4z M12.2,5.8
		c0.6,0,1.3,0.4,1.7,1.1h4.7l1.3,1.1l-1.3,0.9h-0.4l-0.9-0.9l-0.6,0.9l-0.9-0.9L15,8.8h-1.1c-0.4,0.6-1.1,1.1-1.7,1.1
		c-1.1,0-1.9-0.9-1.9-1.9S11.1,5.8,12.2,5.8z M18,16.9c-1.1,0-1.9-0.9-1.9-1.9c0-0.6,0.4-1.3,0.9-1.5l-0.2-0.4l0,0L15,14.6h-0.9
		h-0.4c0,0.2,0,0.4,0,0.6c0,1.1-0.9,1.9-1.9,1.9s-1.5-1.1-1.5-1.9c0-0.9,0.9-1.9,1.9-1.9l0,0l0.4-1.1v-0.9h-0.4
		c-0.9,0-0.9-0.9,0-0.9h1.7c0.9,0,0.9,0.9,0,0.9h-0.4v0.9h0.2h3v-0.9l-0.9-0.4v-0.9l1.7,0.9V12l0.4,1.1l0,0c1.1,0,1.9,0.9,1.9,1.9
		S19.1,16.9,18,16.9z"/>
	<path d="M18,14.1c-0.6,0-0.9,0.4-0.9,1.1s0.4,0.9,0.9,0.9c0.4,0,0.9-0.4,0.9-0.9C18.9,14.8,18.4,14.1,18,14.1z"/>
</g>
</svg>
