<?xml version="1.0" encoding="utf-8"?>
<!-- Generator: Adobe Illustrator 22.1.0, SVG Export Plug-In . SVG Version: 6.00 Build 0)  -->
<svg version="1.1"
	 id="svg2" xmlns:cc="http://creativecommons.org/ns#" xmlns:dc="http://purl.org/dc/elements/1.1/" xmlns:rdf="http://www.w3.org/1999/02/22-rdf-syntax-ns#" xmlns:svg="http://www.w3.org/2000/svg"
	 xmlns="http://www.w3.org/2000/svg" xmlns:xlink="http://www.w3.org/1999/xlink" x="0px" y="0px" viewBox="0 0 30 30"
	 style="enable-background:new 0 0 30 30;" xml:space="preserve">

<path d="M25.3,8.4c-0.4-2.1-1.7-4.1-3.2-5.6c-1.7-1.5-3.9-2.6-6.2-2.8c-1.3,0-2.6,0-3.9,0.4c-4.3,1.3-7.5,5.4-7.5,9.9
	c0,1.3,0.2,2.6,0.6,3.9c0.4,1.9,1.3,3.6,2.1,5.4c0.9,1.7,2.1,3.4,3.2,4.9c1.3,1.7,2.8,3.6,4.3,5.1C15,30,15,30,15,30s0-0.2,0.2-0.2
	c1.3-1.3,2.4-2.8,3.6-4.3c1.7-2.4,3.4-4.7,4.7-7.3c1.1-2.1,1.7-4.3,1.9-6.4C25.5,10.7,25.5,9.4,25.3,8.4z M20.8,6.6l-0.9,1.7h-0.4
	l0.9-1.7C20.4,6.6,20.8,6.6,20.8,6.6z M19.5,4.7h0.4l-0.9,1.9h-0.4L19.5,4.7z M18.6,8.4l-1.1,1.7h-0.4L18,8.4
	C18,8.4,18.6,8.4,18.6,8.4z M17.1,6.6l-0.9,1.7h-0.4l0.9-1.7C16.7,6.6,17.1,6.6,17.1,6.6z M15.9,4.7h0.4l-0.9,1.9H15L15.9,4.7z
	 M13.7,6.6l-0.9,1.7h-0.4l0.9-1.7C13.3,6.6,13.7,6.6,13.7,6.6z M12.4,4.7h0.4l-1.1,1.9h-0.4L12.4,4.7z M11.4,8.4l-0.9,1.7h-0.4
	l0.9-1.7C10.9,8.4,11.4,8.4,11.4,8.4z M9.6,6.6h0.4L9.2,8.4H8.8L9.6,6.6z M19.5,12.9l-0.9-0.4v4.3c0,0.2,0,0.2-0.2,0.4
	c-0.2,0-0.4,0-0.6,0c0,0-0.2-0.2-0.2-0.4V12L15,10.9L12.4,12v4.7c0,0.2,0,0.2-0.2,0.4c-0.2,0-0.4,0-0.6,0c0,0-0.2-0.2-0.2-0.4l0,0
	v-4.3l-0.9,0.4H8.8L15,9.2l6.2,3.6H19.5z"/>
</svg>
