<?xml version="1.0" encoding="utf-8"?>
<!-- Generator: Adobe Illustrator 22.1.0, SVG Export Plug-In . SVG Version: 6.00 Build 0)  -->
<svg version="1.1"
	 id="Layer_1" xmlns:cc="http://creativecommons.org/ns#" xmlns:dc="http://purl.org/dc/elements/1.1/" xmlns:rdf="http://www.w3.org/1999/02/22-rdf-syntax-ns#"
	 xmlns="http://www.w3.org/2000/svg" xmlns:xlink="http://www.w3.org/1999/xlink" x="0px" y="0px" viewBox="0 0 30 30"
	 style="enable-background:new 0 0 30 30;" xml:space="preserve">
<rect x="1.7" y="24.7" transform="matrix(0.1847 -0.9828 0.9828 0.1847 -19.794 26.2124)" class="st0" width="8.4" height="0.6"/>
<path d="M25.3,8.4c-0.4-2.1-1.7-4.1-3.2-5.6c-1.7-1.5-3.9-2.6-6.2-2.8c-1.3,0-2.6,0-3.9,0.4c-4.3,1.3-7.5,5.4-7.5,9.9
	c0,1.3,0.2,2.6,0.6,3.9c0.4,1.9,1.3,3.6,2.1,5.4c0.9,1.7,2.1,3.4,3.2,4.9c1.3,1.7,2.8,3.6,4.3,5.1C15,30,15,30,15,30s0-0.2,0.2-0.2
	c1.3-1.3,2.4-2.8,3.6-4.3c1.7-2.4,3.4-4.7,4.7-7.3c1.1-2.1,1.7-4.3,1.9-6.4C25.5,10.7,25.5,9.4,25.3,8.4z M9.9,15.6
	c-0.4,0-0.6-0.4-0.6-0.9c0-0.4,0.4-0.6,0.9-0.6c0.4,0.2,0.6,0.6,0.6,0.9C10.7,15.4,10.3,15.6,9.9,15.6z M10.7,13.7
	c-0.4-0.2-0.6-0.4-0.6-0.9c0-0.4,0.4-0.6,0.9-0.6c0.4,0,0.6,0.4,0.6,0.9S11.1,13.7,10.7,13.7z M11.6,11.6c-0.2,0-0.6-0.4-0.4-0.9
	c0-0.4,0.4-0.6,0.9-0.6c0.4,0,0.6,0.4,0.6,0.9C12.4,11.4,12,11.6,11.6,11.6z M12.9,16.7c-0.4,0-0.6-0.4-0.6-0.9s0.4-0.6,0.9-0.6
	s0.6,0.4,0.6,0.9C13.5,16.5,13.1,16.7,12.9,16.7z M13.3,14.6c-0.4,0-0.6-0.4-0.6-0.9s0.4-0.6,0.9-0.6c0.4,0,0.6,0.4,0.6,0.9
	C13.9,14.4,13.5,14.6,13.3,14.6z M13.5,12.4c-0.2-0.2-0.6-0.4-0.4-0.9c0-0.4,0.4-0.6,0.9-0.6c0.4,0,0.6,0.4,0.6,0.9
	C14.4,12.2,13.9,12.4,13.5,12.4z M16.1,13.1c0.4,0,0.6,0.4,0.6,0.9c0,0.4-0.4,0.6-0.9,0.6c-0.4,0-0.6-0.4-0.6-0.9
	S15.6,13.1,16.1,13.1z M15.2,11.6c0-0.4,0.4-0.6,0.9-0.6s0.6,0.4,0.6,0.9c0,0.4-0.4,0.6-0.9,0.6C15.4,12.2,15.2,11.8,15.2,11.6z
	 M15.9,16.7c-0.4,0-0.6-0.4-0.6-0.9s0.4-0.6,0.9-0.6s0.6,0.4,0.6,0.9C16.5,16.7,16.3,16.9,15.9,16.7z M21,5.8L21,5.8v0.6h-2.8h-2.8
	l-0.2,0.9c0.9,0.4,1.3,1.3,1.1,2.4L12,8.8c0.2-1.1,1.1-1.7,2.1-1.7l0.2-1.3c0-0.4,0.4-0.6,0.6-0.4l0,0l0,0h2.6l0,0H18h2.1l0,0h0.6
	L21,5.8L21,5.8z"/>
</svg>
