<?xml version="1.0" encoding="utf-8"?>
<!-- Generator: Adobe Illustrator 22.1.0, SVG Export Plug-In . SVG Version: 6.00 Build 0)  -->
<svg version="1.1"
	 id="svg2" xmlns:cc="http://creativecommons.org/ns#" xmlns:dc="http://purl.org/dc/elements/1.1/" xmlns:rdf="http://www.w3.org/1999/02/22-rdf-syntax-ns#" xmlns:svg="http://www.w3.org/2000/svg"
	 xmlns="http://www.w3.org/2000/svg" xmlns:xlink="http://www.w3.org/1999/xlink" x="0px" y="0px" viewBox="0 0 30 30"
	 style="enable-background:new 0 0 30 30;" xml:space="preserve">

<path d="M25.3,8.4c-0.4-2.1-1.7-4.1-3.2-5.6c-1.7-1.5-3.9-2.6-6.2-2.8c-1.3,0-2.6,0-3.9,0.4c-4.3,1.3-7.5,5.4-7.5,9.9
	c0,1.3,0.2,2.6,0.6,3.9c0.4,1.9,1.3,3.6,2.1,5.4c0.9,1.7,2.1,3.4,3.2,4.9c1.3,1.7,2.8,3.6,4.3,5.1C15,30,15,30,15,30s0-0.2,0.2-0.2
	c1.3-1.3,2.4-2.8,3.6-4.3c1.7-2.4,3.4-4.7,4.7-7.3c1.1-2.1,1.7-4.3,1.9-6.4C25.5,10.7,25.5,9.4,25.3,8.4z M13.7,14.4l-1.5,1.5
	c-0.4,0.4-1.3,0.2-1.3,0.2l-0.2-0.2l3-3l0.4,0.4C13.9,13.1,13.9,14.1,13.7,14.4z M15.6,8.4l-2.6,2.6v1.5l-3,2.8l-0.4-0.4
	c-0.9-0.9-0.4-2.6,0.4-3.4l5.8-5.8c0.9-0.9,2.6-1.3,3.4-0.4l0.4,0.4l-2.8,2.8H15.6z M20.6,7.7L19.1,9C18.9,9.4,18,9.2,18,9.2L17.6,9
	l3-3L21,6.4C20.8,6.2,20.8,7.3,20.6,7.7z"/>
</svg>
