<?xml version="1.0" encoding="utf-8"?>
<!-- Generator: Adobe Illustrator 22.1.0, SVG Export Plug-In . SVG Version: 6.00 Build 0)  -->
<svg version="1.1"
	 id="svg2" xmlns:cc="http://creativecommons.org/ns#" xmlns:dc="http://purl.org/dc/elements/1.1/" xmlns:rdf="http://www.w3.org/1999/02/22-rdf-syntax-ns#" xmlns:svg="http://www.w3.org/2000/svg"
	 xmlns="http://www.w3.org/2000/svg" xmlns:xlink="http://www.w3.org/1999/xlink" x="0px" y="0px" viewBox="0 0 30 30"
	 style="enable-background:new 0 0 30 30;" xml:space="preserve">

<g>
	<path d="M17.1,11.8c0-0.4-0.4-0.9-0.9-0.9s-0.9,0.4-0.9,0.9c0,0.4,0.4,0.9,0.9,0.9C16.7,12.6,17.1,12.2,17.1,11.8z"/>
	<path d="M17.4,15.9c0.9,0,1.7-0.9,1.7-1.7h-3.2C15.9,15,16.7,15.9,17.4,15.9z"/>
	<path d="M18.6,12.6c0.4,0,0.9-0.4,0.9-0.9c0-0.4-0.4-0.9-0.9-0.9c-0.4,0-0.9,0.4-0.9,0.9C17.8,12.2,18.2,12.6,18.6,12.6z"/>
	<path d="M25.3,8.4c-0.4-2.1-1.7-4.1-3.2-5.6c-1.7-1.5-3.9-2.6-6.2-2.8c-1.3,0-2.6,0-3.9,0.4c-4.3,1.3-7.5,5.4-7.5,9.9
		c0,1.3,0.2,2.6,0.6,3.9c0.4,1.9,1.3,3.6,2.1,5.4c0.9,1.7,2.1,3.4,3.2,4.9c1.3,1.7,2.8,3.6,4.3,5.1C15,30,15,30,15,30s0-0.2,0.2-0.2
		c1.3-1.3,2.4-2.8,3.6-4.3c1.7-2.4,3.4-4.7,4.7-7.3c1.1-2.1,1.7-4.3,1.9-6.4C25.5,10.7,25.5,9.4,25.3,8.4z M12.6,15
		c-3.4,0-3.4-3.2-3.4-3.2V6c2.4,1.1,4.1,1.1,6.6,0v2.4c-0.2,0-0.6,0-0.9-0.2V7.3c-1.7,0.9-3.2,0.9-4.9,0v4.5c0,0,0,2.4,2.4,2.4
		c0.4,0,0.6,0,1.1-0.2v0.2c0,0,0,0.2,0,0.6C13.3,15,12.9,15,12.6,15z M12.6,11.4c0.4,0,0.9,0,1.1,0.2v1.3h-2.8
		C10.9,12.2,11.4,11.4,12.6,11.4z M10.5,9.2c0-0.4,0.4-0.9,0.9-0.9c0.4,0,0.9,0.4,0.9,0.9s-0.4,0.9-0.9,0.9
		C10.9,10.1,10.5,9.6,10.5,9.2z M20.8,14.1c0,0,0,3.2-3.2,3.2s-3.2-3.2-3.2-3.2V8.4c2.4,1.1,4.1,1.1,6.6,0v5.8H20.8z"/>
</g>
</svg>
