<?xml version="1.0" encoding="utf-8"?>
<!-- Generator: Adobe Illustrator 22.1.0, SVG Export Plug-In . SVG Version: 6.00 Build 0)  -->
<svg version="1.1" id="Layer_1" xmlns="http://www.w3.org/2000/svg" xmlns:xlink="http://www.w3.org/1999/xlink" x="0px" y="0px"
	 viewBox="0 0 30 30" style="enable-background:new 0 0 30 30;" xml:space="preserve">

<path d="M25.3,8.4c-0.4-2.1-1.7-4.1-3.2-5.6c-1.7-1.5-3.9-2.6-6.2-2.8c-1.3,0-2.6,0-3.9,0.4c-4.3,1.3-7.5,5.4-7.5,9.9
	c0,1.3,0.2,2.6,0.6,3.9c0.4,1.9,1.3,3.6,2.1,5.4c0.9,1.7,2.1,3.4,3.2,4.9c1.3,1.7,2.8,3.6,4.3,5.1C15,30,15,30,15,30s0-0.2,0.2-0.2
	c1.3-1.3,2.4-2.8,3.6-4.3c1.7-2.4,3.4-4.7,4.7-7.3c1.1-2.1,1.7-4.3,1.9-6.4C25.5,10.7,25.5,9.4,25.3,8.4z M11.1,6
	c0.6,0,1.3,0.6,1.3,1.3s-0.6,1.3-1.3,1.3c-0.9,0-1.3-0.6-1.3-1.3S10.3,6,11.1,6z M11.8,14.6v2.6h-1.3v-2.6H9c0-1.7,1.5-2.1,1.5-2.6
	s-1.1-1.3-1.1-1.7s0.4-0.9,0.9-0.9H12c0.4,0,0.9,0.4,0.9,0.9c0,0.4-1.1,1.3-1.1,1.7c0,0.4,1.5,0.9,1.5,2.6H11.8z M15.6,17.1h-1.3
	v-12h1.3C15.6,5.1,15.6,17.1,15.6,17.1z M18.9,6c0.6,0,1.3,0.6,1.3,1.3s-0.4,1.3-1.3,1.3c-0.6,0-1.3-0.6-1.3-1.3S18.2,6,18.9,6z
	 M19.5,14.6v2.6h-1.3v-2.6c0-0.9-1.5-3.4-1.5-4.3c0-0.4,0.4-0.9,0.9-0.9h2.6c0.4,0,0.9,0.4,0.9,0.9C21,11.1,19.5,13.7,19.5,14.6z"/>
</svg>
