<?xml version="1.0" encoding="utf-8"?>
<!-- Generator: Adobe Illustrator 22.1.0, SVG Export Plug-In . SVG Version: 6.00 Build 0)  -->
<svg version="1.1" id="Layer_1" xmlns="http://www.w3.org/2000/svg" xmlns:xlink="http://www.w3.org/1999/xlink" x="0px" y="0px"
	 viewBox="0 0 30 30" style="enable-background:new 0 0 30 30;" xml:space="preserve">

<g>
	<path d="M25.3,8.4c-0.4-2.1-1.7-4.1-3.2-5.6c-1.7-1.5-3.9-2.6-6.2-2.8c-1.3,0-2.6,0-3.9,0.4c-4.3,1.3-7.5,5.4-7.5,9.9
		c0,1.3,0.2,2.6,0.6,3.9c0.4,1.9,1.3,3.6,2.1,5.4c0.9,1.7,2.1,3.4,3.2,4.9c1.3,1.7,2.8,3.6,4.3,5.1C15,30,15,30,15,30s0-0.2,0.2-0.2
		c1.3-1.3,2.4-2.8,3.6-4.3c1.7-2.4,3.4-4.7,4.7-7.3c1.1-2.1,1.7-4.3,1.9-6.4C25.5,10.7,25.5,9.4,25.3,8.4z M15.9,4.3h3.9l-1.9,1.5
		l1.9,1.5h-3.9V4.3z M20.6,12.9h-0.9v3.9h0.9v0.9H9.4v-1.1h0.9v-3.6H9.4v-1.1h11.4v1.1H20.6z M9.4,10.9l5.1-2.6V4.7
		c0-0.2,0.2-0.4,0.4-0.4c0.2,0,0.4,0.2,0.4,0.4v3.6l5.1,2.6C20.6,10.9,9.4,10.9,9.4,10.9z"/>
	<path d="M16.9,14.8c0-0.9-0.9-1.5-1.9-1.5s-1.9,0.4-1.9,1.5v1.9h3.9C16.9,16.7,16.9,14.8,16.9,14.8z"/>
</g>
</svg>
