<?xml version="1.0" encoding="utf-8"?>
<!-- Generator: Adobe Illustrator 22.1.0, SVG Export Plug-In . SVG Version: 6.00 Build 0)  -->
<svg version="1.1"
	 id="svg109" xmlns:cc="http://creativecommons.org/ns#" xmlns:dc="http://purl.org/dc/elements/1.1/" xmlns:rdf="http://www.w3.org/1999/02/22-rdf-syntax-ns#" xmlns:svg="http://www.w3.org/2000/svg"
	 xmlns="http://www.w3.org/2000/svg" xmlns:xlink="http://www.w3.org/1999/xlink" x="0px" y="0px" viewBox="0 0 30 30"
	 style="enable-background:new 0 0 30 30;" xml:space="preserve">
<g>
	<polygon points="16.9,10.7 13.1,10.7 12.4,12.6 17.6,12.6 	"/>
	<path d="M12,13.9c-0.4,0-0.6,0.4-0.6,0.6c0,0.4,0.4,0.6,0.6,0.6c0.4,0.2,0.9-0.2,0.9-0.4C12.9,14.4,12.4,13.9,12,13.9z"/>
	<path d="M18,13.9c-0.4,0-0.9,0.4-0.9,0.9c0,0.2,0.4,0.6,0.9,0.6c0.4,0,0.6-0.4,0.6-0.6C18.6,14.4,18.4,13.9,18,13.9z"/>
	<path d="M25.3,8.4c-0.4-2.1-1.7-4.1-3.2-5.6c-1.7-1.5-3.9-2.6-6.2-2.8c-1.3,0-2.6,0-3.9,0.4c-4.3,1.3-7.5,5.4-7.5,9.9
		c0,1.3,0.2,2.6,0.6,3.9c0.4,1.9,1.3,3.6,2.1,5.4c0.9,1.7,2.1,3.4,3.2,4.9c1.3,1.7,2.8,3.6,4.3,5.1C15,30,15,30,15,30s0-0.2,0.2-0.2
		c1.3-1.3,2.4-2.8,3.6-4.3c1.7-2.4,3.4-4.7,4.7-7.3c1.1-2.1,1.7-4.3,1.9-6.4C25.5,10.7,25.5,9.4,25.3,8.4z M10.5,3.9h4.1
		c0.2,0,0.4,0.2,0.4,0.4s-0.2,0.4-0.4,0.4h-4.1c-0.2,0-0.4-0.2-0.4-0.4S10.3,3.9,10.5,3.9z M10.5,5.8h4.1C14.8,5.8,15,6,15,6.2
		s-0.2,0.4-0.4,0.4h-4.1c-0.2,0-0.4-0.2-0.4-0.4S10.3,5.8,10.5,5.8z M10.5,7.7h4.1c0.2,0,0.4,0.2,0.4,0.4c0,0.2-0.2,0.6-0.4,0.6
		h-4.1c-0.2,0-0.4-0.2-0.4-0.6C10.1,7.7,10.3,7.7,10.5,7.7z M19.9,16.7h-0.9c0,0,0,1.1-1.1,1.1s-1.1-1.1-1.1-1.1h-3.9
		c0,0,0,1.1-1.1,1.1s-1.1-1.1-1.1-1.1h-0.9v-3c0-0.6,0.4-1.1,1.1-1.1l1.1-3h6l1.1,3c0.6,0,1.1,0.4,1.1,1.1v3H19.9z M18,8.8h-1.1
		l-0.9-3h1.1l0.6,1.7l1.5-3.6h1.1L18,8.8z"/>
</g>
</svg>
