<?xml version="1.0" encoding="utf-8"?>
<!-- Generator: Adobe Illustrator 22.1.0, SVG Export Plug-In . SVG Version: 6.00 Build 0)  -->
<svg version="1.1"
	 id="svg2" xmlns:cc="http://creativecommons.org/ns#" xmlns:dc="http://purl.org/dc/elements/1.1/" xmlns:rdf="http://www.w3.org/1999/02/22-rdf-syntax-ns#" xmlns:svg="http://www.w3.org/2000/svg"
	 xmlns="http://www.w3.org/2000/svg" xmlns:xlink="http://www.w3.org/1999/xlink" x="0px" y="0px" viewBox="0 0 30 30"
	 style="enable-background:new 0 0 30 30;" xml:space="preserve">

<g>
	<polygon points="15.9,10.1 14.1,10.1 14.1,12 12.2,12 12.2,13.9 14.1,13.9 14.1,15.6 15.9,15.6 15.9,13.9 17.8,13.9 17.8,12 
		15.9,12 	"/>
	<path d="M25.3,8.4c-0.4-2.1-1.7-4.1-3.2-5.6c-1.7-1.5-3.9-2.6-6.2-2.8c-1.3,0-2.6,0-3.9,0.4c-4.3,1.3-7.5,5.4-7.5,9.9
		c0,1.3,0.2,2.6,0.6,3.9c0.4,1.9,1.3,3.6,2.1,5.4c0.9,1.7,2.1,3.4,3.2,4.9c1.3,1.7,2.8,3.6,4.3,5.1C15,30,15,30,15,30s0-0.2,0.2-0.2
		c1.3-1.3,2.4-2.8,3.6-4.3c1.7-2.4,3.4-4.7,4.7-7.3c1.1-2.1,1.7-4.3,1.9-6.4C25.5,10.7,25.5,9.4,25.3,8.4z M15.6,5.8
		c0.2-0.6,0.6-1.3,1.3-1.3c1.3,0,1.5,1.9,1.3,2.8c-0.4,0.4-1.1,1.1-1.7,0.9C15.6,7.7,15.2,6.6,15.6,5.8z M13.1,4.5
		c0.6,0,1.1,0.6,1.3,1.3c0.2,0.9,0,1.9-0.9,2.4c-0.9,0.2-1.5-0.4-1.7-0.9C11.6,6.2,11.8,4.5,13.1,4.5z M9.6,10.1
		C8.8,9.4,8.6,7.9,9.2,7.5c0.4-0.6,0.9-0.6,1.5-0.2c0.6,0.4,0.9,1.5,0.4,2.1C10.9,10.1,10.3,10.5,9.6,10.1z M15,17.1
		c-2.4,0-4.3-1.9-4.3-4.3s1.9-4.3,4.3-4.3s4.3,1.9,4.3,4.3S17.4,17.1,15,17.1z M20.4,10.1c-0.6,0.2-1.3,0-1.5-0.6
		c-0.4-0.6,0-1.9,0.4-2.1c0.4-0.2,1.1-0.2,1.5,0.2C21.4,7.9,21.2,9.4,20.4,10.1z"/>
</g>
</svg>
