<?xml version="1.0" encoding="utf-8"?>
<!-- Generator: Adobe Illustrator 22.1.0, SVG Export Plug-In . SVG Version: 6.00 Build 0)  -->
<svg version="1.1"
	 id="svg2" xmlns:cc="http://creativecommons.org/ns#" xmlns:dc="http://purl.org/dc/elements/1.1/" xmlns:rdf="http://www.w3.org/1999/02/22-rdf-syntax-ns#" xmlns:svg="http://www.w3.org/2000/svg"
	 xmlns="http://www.w3.org/2000/svg" xmlns:xlink="http://www.w3.org/1999/xlink" x="0px" y="0px" viewBox="0 0 20 20"
	 style="enable-background:new 0 0 20 20;" xml:space="preserve">

<path d="M16.8,5.6c-0.2-1.6-1-2.8-2.2-3.8c-1-1-2.4-1.6-4-1.8C9.8,0,8.8,0,8,0.2c-2.8,1-5,3.6-5,6.6c0,0.8,0.2,1.8,0.4,2.6
	C3.8,10.8,4.2,12,4.8,13c0.6,1.2,1.4,2.2,2.2,3.4c1,1.2,1.8,2.4,3,3.6l0,0c0,0,0,0,0-0.2c1-0.8,1.8-1.8,2.4-2.8
	c1.2-1.4,2.4-3,3.2-4.8c0.6-1.4,1.2-2.8,1.4-4.2C17,7.2,17,6.2,16.8,5.6z M12,12H8L7,7h6L12,12z M7,6l1-1h1l1-1l1,1h1l1,1H7z"/>
</svg>
