<?xml version="1.0" encoding="utf-8"?>
<!-- Generator: Adobe Illustrator 22.1.0, SVG Export Plug-In . SVG Version: 6.00 Build 0)  -->
<svg version="1.1"
	 id="svg2" xmlns:cc="http://creativecommons.org/ns#" xmlns:dc="http://purl.org/dc/elements/1.1/" xmlns:rdf="http://www.w3.org/1999/02/22-rdf-syntax-ns#" xmlns:svg="http://www.w3.org/2000/svg"
	 xmlns="http://www.w3.org/2000/svg" xmlns:xlink="http://www.w3.org/1999/xlink" x="0px" y="0px" viewBox="0 0 30 30"
	 style="enable-background:new 0 0 30 30;" xml:space="preserve">
<path d="M25.2,8.3c-0.5-2.2-1.6-4.1-3.3-5.6c-1.7-1.5-3.8-2.5-6.1-2.6c-1.3-0.1-2.6,0-3.9,0.4c-4.3,1.3-7.4,5.4-7.5,9.9
	c0,1.3,0.2,2.7,0.6,4c0.5,1.9,1.3,3.6,2.2,5.3c1,1.8,2,3.4,3.2,5c1.3,1.8,2.8,3.6,4.4,5.2c0,0,0.1,0.1,0.1,0.1
	c0-0.1,0.1-0.1,0.1-0.2c1.3-1.3,2.5-2.7,3.6-4.2c1.8-2.3,3.4-4.7,4.6-7.3c1-2.1,1.7-4.2,2-6.5C25.5,10.7,25.5,9.4,25.2,8.3z
	 M20,14.8c0,0.6,0,0.9,0,0.9c0,0-0.2-0.1-0.4-0.2c-0.4-0.2-0.7-0.3-0.8-0.3c-0.2,0-0.4,0.1-0.9,0.3c-0.3,0.1-0.6,0.3-0.7,0.3
	c-0.3,0.1-0.4,0.1-1.1-0.2c-0.9-0.4-1.1-0.5-1.4-0.4c-0.1,0-0.4,0.2-0.7,0.3c-0.7,0.3-0.8,0.4-1.1,0.3h0c-0.2,0-0.3-0.1-0.8-0.4
	c-0.5-0.2-0.7-0.3-0.8-0.3c-0.2,0-0.4,0.1-0.9,0.3c-0.2,0.1-0.4,0.2-0.4,0.2c0,0,0-0.3,0-0.7l0-0.7l0.3-0.1c0.9-0.4,0.9-0.4,1.8,0
	c0.7,0.3,0.7,0.4,1,0.4c0.2,0,0.3,0,0.9-0.3c0.8-0.4,0.9-0.4,1.3-0.3c0.1,0,0.2,0.1,0.3,0.1c-0.5-1.5-0.8-2.3-1.3-3.8
	c-0.1-0.1-1.8,0.7-2.5,1.1c-0.3,0.2-0.5,0.3-0.6,0.3c-0.3,0-0.4-0.3-0.4-1c0-0.9,0.4-1.9,1-2.7c0.2-0.3,0.9-0.8,1.2-0.9
	c0.1-0.1,0.2-0.1,0.2-0.3c0-0.4,0.4-0.6,0.6-0.3c0.1,0.2,0.2,0.2,0.4,0.1c0.4-0.1,1.2-0.1,1.6,0.1c1.1,0.3,2,0.9,2.5,1.8
	C18.5,9,18.5,9,18.3,9.2c-0.1,0.1-0.2,0.1-0.7,0.2c-0.9,0.1-2.6,0.5-2.6,0.6c0.6,1.7,0.9,2.8,1.5,4.5c0.2,0.1,0.3,0.1,0.4,0.1
	c0.2,0,0.4-0.1,0.9-0.4c0.3-0.1,0.6-0.3,0.7-0.3c0.3-0.1,0.5,0,1.1,0.3l0.3,0.2L20,14.8z"/>
</svg>
