<?xml version="1.0" encoding="utf-8"?>
<!-- Generator: Adobe Illustrator 22.1.0, SVG Export Plug-In . SVG Version: 6.00 Build 0)  -->
<svg version="1.1"
	 id="svg3800" xmlns:cc="http://creativecommons.org/ns#" xmlns:dc="http://purl.org/dc/elements/1.1/" xmlns:rdf="http://www.w3.org/1999/02/22-rdf-syntax-ns#" xmlns:svg="http://www.w3.org/2000/svg"
	 xmlns="http://www.w3.org/2000/svg" xmlns:xlink="http://www.w3.org/1999/xlink" x="0px" y="0px" viewBox="0 0 30 30"
	 style="enable-background:new 0 0 30 30;" xml:space="preserve">
<g>
	<circle cx="14.3" cy="13.3" r="0.7"/>
	<circle cx="12.8" cy="11.8" r="0.7"/>
	<circle cx="12.4" cy="13.6" r="0.7"/>
	<path d="M25.2,8.3c-0.5-2.2-1.6-4.1-3.3-5.6c-1.7-1.5-3.8-2.5-6.1-2.6c-1.3-0.1-2.6,0-3.9,0.4c-4.3,1.3-7.4,5.4-7.5,9.9
		c0,1.3,0.2,2.7,0.6,4c0.5,1.9,1.3,3.6,2.2,5.3c1,1.8,2,3.4,3.2,5c1.3,1.8,2.8,3.6,4.4,5.2c0,0,0.1,0.1,0.1,0.1
		c0-0.1,0.1-0.1,0.1-0.2c1.3-1.3,2.5-2.7,3.6-4.2c1.8-2.3,3.4-4.7,4.6-7.3c1-2.1,1.7-4.2,2-6.5C25.5,10.7,25.5,9.4,25.2,8.3z
		 M12.8,16.3c-1.7,0-3-1.3-3-3c0-1.7,1.3-3,3-3s3,1.3,3,3C15.7,15,14.4,16.3,12.8,16.3z M18,5.8c0.8,0,1.5,0.7,1.5,1.5
		c0,0.3-0.2,0.5-0.4,0.7h-2.2c-0.1-0.2-0.4-0.5-0.4-0.7C16.5,6.4,17.2,5.8,18,5.8z M19.1,8.8v0.7h-2.2V8.8H19.1z M19.5,16.3h-3
		c-0.1-0.4-0.3-0.8-0.5-1.3c0.3-0.5,0.5-1.1,0.5-1.7c0-0.5-0.1-1-0.3-1.5c0.2-0.6,0.5-1.1,0.7-1.5h2.2c0.4,0.9,1.1,2.1,1.1,3.3
		C20.2,14.5,19.8,15.5,19.5,16.3z"/>
</g>
</svg>
