<?xml version="1.0" encoding="utf-8"?>
<!-- Generator: Adobe Illustrator 22.1.0, SVG Export Plug-In . SVG Version: 6.00 Build 0)  -->
<svg version="1.1"
	 id="svg109" xmlns:cc="http://creativecommons.org/ns#" xmlns:dc="http://purl.org/dc/elements/1.1/" xmlns:rdf="http://www.w3.org/1999/02/22-rdf-syntax-ns#" xmlns:svg="http://www.w3.org/2000/svg"
	 xmlns="http://www.w3.org/2000/svg" xmlns:xlink="http://www.w3.org/1999/xlink" x="0px" y="0px" viewBox="0 0 30 30"
	 style="enable-background:new 0 0 30 30;" xml:space="preserve">
<path d="M25.2,8.3c-0.5-2.2-1.6-4.1-3.3-5.6c-1.7-1.5-3.8-2.5-6.1-2.6c-1.3-0.1-2.6,0-3.9,0.4c-4.3,1.3-7.4,5.4-7.5,9.9
	c0,1.3,0.2,2.7,0.6,4c0.5,1.9,1.3,3.6,2.2,5.3c1,1.8,2,3.4,3.2,5c1.3,1.8,2.8,3.6,4.4,5.2c0,0,0.1,0.1,0.1,0.1
	c0-0.1,0.1-0.1,0.1-0.2c1.3-1.3,2.5-2.7,3.6-4.2c1.8-2.3,3.4-4.7,4.6-7.3c1-2.1,1.7-4.2,2-6.5C25.5,10.7,25.5,9.4,25.2,8.3z
	 M16.8,12.4l-1.2,0.4c-0.8-1.5,1.7-2.2,1-4.3C18.5,10.3,17.2,11.2,16.8,12.4z M14.2,6.1c4.6,2.9-0.7,5.1,0.6,7l-0.2,0.1
	C9.3,10,15.3,8.4,14.2,6.1z M19.2,15.7c-0.1,0.2-0.3,0.3-0.4,0.2L15,14.5l-3.7,1.4c-0.2,0.1-0.4,0-0.4-0.2c-0.1-0.2,0-0.4,0.2-0.4
	l3-1.1l-3-1.1c-0.1,0-0.2-0.2-0.2-0.3c0-0.2,0.1-0.4,0.3-0.4c0,0,0.1,0,0.1,0l3.7,1.4l3.7-1.4c0,0,0.1,0,0.1,0
	c0.1,0,0.3,0.1,0.3,0.2c0.1,0.2,0,0.4-0.2,0.4l-3,1.1l3,1.1C19.2,15.3,19.3,15.5,19.2,15.7z"/>
</svg>
