<?xml version="1.0" encoding="utf-8"?>
<!-- Generator: Adobe Illustrator 22.1.0, SVG Export Plug-In . SVG Version: 6.00 Build 0)  -->
<svg version="1.1" id="Layer_1" xmlns="http://www.w3.org/2000/svg" xmlns:xlink="http://www.w3.org/1999/xlink" x="0px" y="0px"
	 viewBox="0 0 30 30" style="enable-background:new 0 0 30 30;" xml:space="preserve">
<path d="M25.2,8.3c-0.5-2.2-1.6-4.1-3.3-5.6c-1.7-1.5-3.8-2.5-6.1-2.6c-1.3-0.1-2.6,0-3.9,0.4c-4.3,1.3-7.4,5.4-7.5,9.9
	c0,1.3,0.2,2.7,0.6,4c0.5,1.9,1.3,3.6,2.2,5.3c1,1.8,2,3.4,3.2,5c1.3,1.8,2.8,3.6,4.4,5.2c0,0,0.1,0.1,0.1,0.1
	c0-0.1,0.1-0.1,0.1-0.2c1.3-1.3,2.5-2.7,3.6-4.2c1.8-2.3,3.4-4.7,4.6-7.3c1-2.1,1.7-4.2,2-6.5C25.5,10.7,25.5,9.4,25.2,8.3z
	 M13.7,13.9l-0.8-1.1c0.2,1.4,0.4,3.1,0.4,3.1c-0.1,0-2.6,0-2.6,0h0l0.5-3l-0.7,1c-0.1,0.1-0.2,0.1-0.2,0l-0.7-0.7
	c-0.1-0.1-0.1-0.2,0-0.2l1.9-1.6l0-0.3L9.4,9.5c-0.1-0.1-0.1-0.2,0-0.2l0.7-0.7c0,0,0.1,0,0.1,0h0c0,0,0.1,0,0.1,0.1l1.4,1.9
	l0.3-0.2l0.3,0.2l1.4-1.9c0,0,0.1-0.1,0.1-0.1c0,0,0.1,0,0.1,0l0.7,0.7c0.1,0.1,0.1,0.2,0,0.2l-1.9,1.7c0,0.1,0,0.2,0,0.3l1.9,1.6
	c0.1,0.1,0.1,0.2,0,0.2l-0.7,0.7C13.8,14,13.7,14,13.7,13.9z M20.6,9.2c-0.1,0.1-0.2,0.2-0.3,0.2l-2.1,0.4L19,13c0,0.1,0,0.2,0,0.3
	l-0.4,2.7c0,0.1-0.1,0.2-0.2,0.3s-0.2,0.1-0.4,0.1c-0.1,0-0.2-0.1-0.3-0.2c-0.1-0.1-0.1-0.2-0.1-0.4l0.4-2.7l-0.1-0.5l-2.4,3.6
	c-0.1,0.2-0.3,0.3-0.4,0.3v0c-0.1,0-0.3,0-0.3-0.1c-0.1-0.1-0.1-0.2-0.1-0.3c0-0.1,0-0.2,0.1-0.2l2.3-3.4l-0.7-2.7
	c0-0.1,0-0.2,0.1-0.3c0.1-0.1,0.2-0.2,0.3-0.2l3.2-0.6l-4-2.6l-0.3,0.4c-0.1,0.1-0.2,0.2-0.4,0.1c-0.2-0.1-0.2-0.2-0.1-0.4l0.4-0.6
	l4.9,3.2c0.1,0.1,0.2,0.2,0.2,0.3C20.7,9,20.6,9.1,20.6,9.2z M15.6,8.1c0-0.2,0.1-0.4,0.2-0.6c0.2-0.2,0.4-0.2,0.6-0.2
	c0.2,0,0.4,0.1,0.6,0.2c0.2,0.2,0.2,0.3,0.2,0.6c0,0.2-0.1,0.4-0.2,0.6c-0.2,0.2-0.4,0.2-0.6,0.2c-0.2,0-0.4-0.1-0.6-0.2
	C15.7,8.5,15.6,8.4,15.6,8.1z"/>
</svg>
