<?xml version="1.0" encoding="utf-8"?>
<!-- Generator: Adobe Illustrator 22.1.0, SVG Export Plug-In . SVG Version: 6.00 Build 0)  -->
<svg version="1.1"
	 id="svg2" xmlns:cc="http://creativecommons.org/ns#" xmlns:dc="http://purl.org/dc/elements/1.1/" xmlns:rdf="http://www.w3.org/1999/02/22-rdf-syntax-ns#" xmlns:svg="http://www.w3.org/2000/svg"
	 xmlns="http://www.w3.org/2000/svg" xmlns:xlink="http://www.w3.org/1999/xlink" x="0px" y="0px" viewBox="0 0 30 30"
	 style="enable-background:new 0 0 30 30;" xml:space="preserve">
<path d="M25.2,8.3c-0.5-2.2-1.6-4.1-3.3-5.6c-1.7-1.5-3.8-2.5-6.1-2.6c-1.3-0.1-2.6,0-3.9,0.4c-4.3,1.3-7.4,5.4-7.5,9.9
	c0,1.3,0.2,2.7,0.6,4c0.5,1.9,1.3,3.6,2.2,5.3c1,1.8,2,3.4,3.2,5c1.3,1.8,2.8,3.6,4.4,5.2c0,0,0.1,0.1,0.1,0.1
	c0-0.1,0.1-0.1,0.1-0.2c1.3-1.3,2.5-2.7,3.6-4.2c1.8-2.3,3.4-4.7,4.6-7.3c1-2.1,1.7-4.2,2-6.5C25.5,10.7,25.5,9.4,25.2,8.3z
	 M18.4,7.8c0.6,0,1.2,0.5,1.2,1.2c0,0.6-0.6,1.2-1.2,1.2S17.3,9.6,17.3,9C17.3,8.4,17.8,7.8,18.4,7.8z M12.2,5.5
	c0.6,0,1.2,0.5,1.2,1.2c0,0.6-0.6,1.2-1.2,1.2c-0.6,0-1.2-0.6-1.2-1.2C11.1,6.1,11.6,5.5,12.2,5.5z M20.4,14.7l-4.6-1.6l0.7,2.4
	h-3.1l0.7-3l-4.6-1.6v-0.8l0.8,0.3c0.1-0.8,0.4-2.2,1.5-2.2c1.2,0,1,2.2,0.8,3.1l4.6,1.6c0-0.7,0.3-2.4,1.5-2.4
	c1.3,0,0.9,2.5,0.8,3.2l0.7,0.3V14.7z"/>
</svg>
