<?xml version="1.0" encoding="utf-8"?>
<!-- Generator: Adobe Illustrator 22.1.0, SVG Export Plug-In . SVG Version: 6.00 Build 0)  -->
<svg version="1.1"
	 id="Layer_1" xmlns:cc="http://creativecommons.org/ns#" xmlns:dc="http://purl.org/dc/elements/1.1/" xmlns:rdf="http://www.w3.org/1999/02/22-rdf-syntax-ns#"
	 xmlns="http://www.w3.org/2000/svg" xmlns:xlink="http://www.w3.org/1999/xlink" x="0px" y="0px" viewBox="0 0 30 30"
	 style="enable-background:new 0 0 30 30;" xml:space="preserve">
<path class="st0" d="M8,8v14h14v-3.1c-0.6-0.3-0.8-0.3-0.7-1c-0.2-0.6-0.4-1.3-0.5-1.9c0,0,0.1,0,0.1-0.1c0,0,0.1,0,0.1-0.1
	c0,0,0,0,0,0c0-0.1,0-0.1,0.1-0.2c0-0.1-0.1-0.2-0.1-0.3c0.2-0.1,0.4-0.3,0.6-0.4c0,0,0,0,0,0c0,0,0.1,0,0.2-0.1
	c0.1,0,0.2-0.1,0.2-0.1V8L8,8z"/>
<path class="st0" d="M21.1,15.9C21,16,21,16,21.1,15.9L21.1,15.9C21.1,15.9,21.1,15.9,21.1,15.9z"/>
<path class="st0" d="M22,17.9c-0.1,0.1-0.1,0.1-0.1,0c0,0,0,0,0,0c-0.1,0-0.1,0.1-0.2,0.1c0.1,0.1,0.2,0.3,0.3,0.4c0,0,0,0,0.1-0.1
	L22,17.9C22,18,22,17.9,22,17.9L22,17.9z"/>
<path d="M25.2,8.3c-0.5-2.2-1.6-4.1-3.3-5.6c-1.7-1.5-3.8-2.5-6.1-2.6c-1.3-0.1-2.6,0-3.9,0.4c-4.3,1.3-7.4,5.4-7.5,9.9
	c0,1.3,0.2,2.7,0.6,4c0.5,1.9,1.3,3.6,2.2,5.3c1,1.8,2,3.4,3.2,5c1.3,1.8,2.8,3.6,4.4,5.2c0,0,0.1,0.1,0.1,0.1
	c0-0.1,0.1-0.1,0.1-0.2c1.3-1.3,2.5-2.7,3.6-4.2c1.8-2.3,3.4-4.7,4.6-7.3c1-2.1,1.7-4.2,2-6.5C25.5,10.7,25.5,9.4,25.2,8.3z
	 M17.2,6.8c0.5,0,0.9,0.4,0.9,0.9s-0.4,0.9-0.9,0.9s-0.9-0.4-0.9-0.9S16.7,6.8,17.2,6.8z M10.4,10.5c3-2.1-1.9-2.4,0.8-4.2l0.7,0
	c-3,1.8,1.9,1.9-0.9,4.2L10.4,10.5z M12.8,15.8h-1.7l-0.3-2.7h2.3L12.8,15.8z M13,10.4l-0.6,0c3-2.1-1.9-2.4,0.8-4.2l0.7,0
	C10.9,8,15.9,8.2,13,10.4z M19.8,15h-2.3v-0.5h2.3V15z M19.8,13.2C19.8,13.2,19.8,13.2,19.8,13.2C19.8,13.2,19.8,13.2,19.8,13.2
	c0,0.2-0.1,0.4-0.3,0.4c0,0,0,0,0,0c0,0,0,0,0,0c0,0-0.1,0-0.1,0l-2.4,0l-1.7,2c-0.2,0.2-0.4,0.2-0.6,0c-0.2-0.2-0.2-0.5,0-0.7
	l1.7-2c0.1-0.1,0.2-0.2,0.4-0.2l2.1,0l-0.9-2.5l-0.5,1c0,0,0,0,0,0c0,0.1-0.1,0.2-0.2,0.2l-1.8,0.6c-0.2,0.1-0.4,0-0.4-0.2
	c-0.1-0.2,0-0.4,0.2-0.4l1.7-0.6l0.8-1.6c0,0,0,0,0,0c0-0.1,0.1-0.2,0.3-0.2c0.2-0.1,0.5,0,0.6,0.3l1.3,3.7
	C19.8,13,19.8,13.1,19.8,13.2C19.8,13.1,19.8,13.1,19.8,13.2L19.8,13.2z"/>
</svg>
