<?xml version="1.0" encoding="utf-8"?>
<!-- Generator: Adobe Illustrator 22.1.0, SVG Export Plug-In . SVG Version: 6.00 Build 0)  -->
<svg version="1.1"
	 id="svg4" xmlns:cc="http://creativecommons.org/ns#" xmlns:dc="http://purl.org/dc/elements/1.1/" xmlns:rdf="http://www.w3.org/1999/02/22-rdf-syntax-ns#" xmlns:svg="http://www.w3.org/2000/svg"
	 xmlns="http://www.w3.org/2000/svg" xmlns:xlink="http://www.w3.org/1999/xlink" x="0px" y="0px" viewBox="0 0 30 30"
	 style="enable-background:new 0 0 30 30;" xml:space="preserve">

<path d="M25.2,8.3c-0.5-2.2-1.6-4.1-3.3-5.6c-1.7-1.5-3.8-2.5-6.1-2.6c-1.3-0.1-2.6,0-3.9,0.4c-4.3,1.3-7.4,5.4-7.5,9.9
	c0,1.3,0.2,2.7,0.6,4c0.5,1.9,1.3,3.6,2.2,5.3c1,1.8,2,3.4,3.2,5c1.3,1.8,2.8,3.6,4.4,5.2c0,0,0.1,0.1,0.1,0.1
	c0-0.1,0.1-0.1,0.1-0.2c1.3-1.3,2.5-2.7,3.6-4.2c1.8-2.3,3.4-4.7,4.6-7.3c1-2.1,1.7-4.2,2-6.5C25.5,10.7,25.5,9.4,25.2,8.3z
	 M17.8,11.4c0,0.6-0.5,1.1-1.1,1.1c-0.6,0-1.1-0.5-1.1-1.1c0-0.6,0.5-1.1,1.1-1.1C17.4,10.3,17.8,10.8,17.8,11.4z M12.2,14.1
	c0,0.6-0.7,0.6-0.7,0V6.5c0-0.3,0.2-0.5,0.4-0.5s0.4,0.2,0.4,0.5V14.1z M12.5,9.7V6.5c0,0,0.9,0.9,2.3,0c0.5-0.3,1-0.4,1.3-0.4
	c0.6,0,1,0.4,1,0.4v3.2c0,0-0.9-0.9-2.3,0C13.4,10.6,12.5,9.7,12.5,9.7z M17.1,16l-0.4-2L16,14.7c0,0,0,0,0,0c0,0,0,0,0,0
	c0,0,0,0-0.1,0c0,0,0,0,0,0l-1.4,0.4c-0.2,0.1-0.4-0.1-0.4-0.2s0.1-0.4,0.2-0.4l1.3-0.4l1.2-1.2c0,0,0,0,0,0
	c0.1-0.1,0.2-0.1,0.3-0.2c0.1,0,0.2,0,0.3,0c0.3,0,0.5,0.2,0.6,0.5l0.6,2.7H17.1z"/>
</svg>
