<?xml version="1.0" encoding="utf-8"?>
<!-- Generator: Adobe Illustrator 22.1.0, SVG Export Plug-In . SVG Version: 6.00 Build 0)  -->
<svg version="1.1" id="Layer_1" xmlns="http://www.w3.org/2000/svg" xmlns:xlink="http://www.w3.org/1999/xlink" x="0px" y="0px"
	 viewBox="0 0 30 30" style="enable-background:new 0 0 30 30;" xml:space="preserve">

<g>
	<path d="M16.7,7.4c-1.1,0-2.2,0-3.3,0c0,0,0,0-0.1,0c-0.1,0-0.2,0.1-0.2,0.2c0,0.2,0,0.5,0,0.7c1.3,0,2.5,0,3.8,0
		c0-0.2,0-0.4,0-0.6C16.9,7.4,16.9,7.4,16.7,7.4z"/>
	<path d="M25.2,8.3c-0.5-2.2-1.6-4.1-3.3-5.6c-1.7-1.5-3.8-2.5-6.1-2.6c-1.3-0.1-2.6,0-3.9,0.4c-4.3,1.3-7.4,5.4-7.5,9.9
		c0,1.3,0.2,2.7,0.6,4c0.5,1.9,1.3,3.6,2.2,5.3c1,1.8,2,3.4,3.2,5c1.3,1.8,2.8,3.6,4.4,5.2c0,0,0.1,0.1,0.1,0.1
		c0-0.1,0.1-0.1,0.1-0.2c1.3-1.3,2.5-2.7,3.6-4.2c1.8-2.3,3.4-4.7,4.6-7.3c1-2.1,1.7-4.2,2-6.5C25.5,10.7,25.5,9.4,25.2,8.3z
		 M20.1,10.8c0,1.3,0,2.7,0,4c0,0.4-0.3,0.7-0.7,0.7c-2.9,0-5.9,0-8.8,0c-0.4,0-0.7-0.3-0.7-0.7c0-1.4,0-2.8,0-4.2
		c1.2,0.7,2.5,1.1,3.8,1.4c0,0.2,0,0.4,0,0.5c0,0.2,0.1,0.3,0.3,0.3c0.7,0,1.4,0,2.1,0c0.2,0,0.3-0.1,0.3-0.3c0-0.2,0-0.3,0-0.5
		c0-0.1,0-0.1,0.1-0.1c0.9-0.2,1.8-0.5,2.7-0.9C19.5,11,19.7,10.8,20.1,10.8c0-0.1,0-0.1,0-0.1C20.1,10.7,20.1,10.8,20.1,10.8z
		 M14.1,12.3c0-0.3,0-0.6,0-0.9c0-0.1,0.1-0.2,0.2-0.2c0.3,0,0.5,0,0.8,0c0.2,0,0.5,0,0.7,0c0.2,0,0.2,0.1,0.2,0.2
		c0,0.3,0,0.6,0,0.9c0,0.1-0.1,0.2-0.2,0.2c-0.5,0-1,0-1.5,0C14.1,12.6,14.1,12.5,14.1,12.3z M20,10.3c-0.4,0.2-0.8,0.4-1.2,0.6
		c-0.7,0.3-1.5,0.6-2.3,0.8c0,0,0,0-0.1,0c0-0.2,0-0.3,0-0.5c0-0.2-0.1-0.3-0.3-0.3c-0.7,0-1.4,0-2.1,0c-0.2,0-0.3,0.1-0.3,0.3
		c0,0.2,0,0.3,0,0.5c-0.2-0.1-0.5-0.1-0.7-0.2c-0.7-0.2-1.3-0.5-2-0.7c-0.4-0.1-0.7-0.3-1-0.5c-0.1,0-0.1-0.1-0.1-0.1
		c0-0.4,0-0.8,0-1.2c0-0.4,0.3-0.7,0.7-0.7c0.6,0,1.3,0,1.9,0c0,0,0.1,0,0.1,0c0-0.2,0-0.4,0-0.6c0-0.4,0.3-0.7,0.7-0.7
		c1.1,0,2.3,0,3.4,0c0.4,0,0.7,0.3,0.7,0.7c0,0.2,0,0.4,0,0.7c0,0,0.1,0,0.1,0c0.6,0,1.2,0,1.9,0c0.4,0,0.7,0.3,0.7,0.7
		c0,0.4,0,0.8,0,1.2C20.1,10.2,20.1,10.2,20,10.3z"/>
</g>
</svg>
