<?xml version="1.0" encoding="utf-8"?>
<!-- Generator: Adobe Illustrator 22.1.0, SVG Export Plug-In . SVG Version: 6.00 Build 0)  -->
<svg version="1.1"
	 id="svg2" xmlns:cc="http://creativecommons.org/ns#" xmlns:dc="http://purl.org/dc/elements/1.1/" xmlns:rdf="http://www.w3.org/1999/02/22-rdf-syntax-ns#" xmlns:svg="http://www.w3.org/2000/svg"
	 xmlns="http://www.w3.org/2000/svg" xmlns:xlink="http://www.w3.org/1999/xlink" x="0px" y="0px" viewBox="0 0 25 25"
	 style="enable-background:new 0 0 25 25;" xml:space="preserve">
<g>
	<path d="M15.3,7.1c-0.1,0-0.2,0-0.3,0c-0.3,0-0.7,0.2-1.1,0.6C14.6,7.8,15,8.4,15,9.5c0,0,0,0,0,0.1c0.2-0.2,0.4-0.5,0.5-0.7
		c0.3-0.4,0.4-0.7,0.4-1.1C15.9,7.4,15.7,7.1,15.3,7.1z"/>
	<path d="M9.7,7.1C9.3,7.1,9.1,7.4,9.1,7.8c0,0.4,0.1,0.7,0.4,1.1C9.7,9.1,9.8,9.3,10,9.6c0,0,0,0,0-0.1c0-1.1,0.4-1.7,1.1-1.8
		C10.5,7.1,10,7,9.7,7.1z"/>
	<path d="M21,6.9c-0.4-1.8-1.4-3.4-2.7-4.7c-1.4-1.2-3.2-2-5.1-2.2c-1.1-0.1-2.2,0-3.2,0.3C6.4,1.4,3.8,4.9,3.8,8.6
		c0,1.1,0.2,2.2,0.5,3.3c0.4,1.6,1.1,3,1.8,4.5c0.8,1.5,1.7,2.8,2.7,4.2c1.1,1.5,2.3,3,3.6,4.3c0,0,0.1,0.1,0.1,0.1
		c0-0.1,0.1-0.1,0.1-0.2c1.1-1.1,2-2.3,3-3.5c1.5-1.9,2.8-3.9,3.9-6.1c0.8-1.7,1.5-3.5,1.7-5.4C21.3,8.9,21.2,7.9,21,6.9z M16,9.3
		c-0.3,0.4-0.7,0.9-1.2,1.5c-0.2,0.8-0.6,1.6-1.1,2v0.5l0.6,0.3v0.3h-3.7v-0.3l0.6-0.3v-0.5c-0.4-0.4-0.8-1.2-1.1-2
		c-0.5-0.6-0.9-1-1.2-1.5C8.7,8.8,8.5,8.3,8.5,7.8c0-0.7,0.4-1.2,1.1-1.4c0.5-0.1,1.1,0.1,1.7,0.5c-0.1-0.5-0.2-1.2-0.6-1.2H10V5.2
		H15v0.6h-0.6c-0.4,0-0.5,0.6-0.6,1.2c0.6-0.5,1.2-0.6,1.7-0.5c0.6,0.1,1.1,0.7,1.1,1.4C16.5,8.3,16.3,8.8,16,9.3z"/>
</g>
</svg>
