<?xml version="1.0" encoding="utf-8"?>
<!-- Generator: Adobe Illustrator 22.1.0, SVG Export Plug-In . SVG Version: 6.00 Build 0)  -->
<svg version="1.1"
	 id="svg109" xmlns:cc="http://creativecommons.org/ns#" xmlns:dc="http://purl.org/dc/elements/1.1/" xmlns:rdf="http://www.w3.org/1999/02/22-rdf-syntax-ns#" xmlns:svg="http://www.w3.org/2000/svg"
	 xmlns="http://www.w3.org/2000/svg" xmlns:xlink="http://www.w3.org/1999/xlink" x="0px" y="0px" viewBox="0 0 25 25"
	 style="enable-background:new 0 0 25 25;" xml:space="preserve">
<path d="M21,6.9c-0.4-1.8-1.4-3.4-2.7-4.7c-1.4-1.2-3.2-2-5.1-2.2c-1.1-0.1-2.2,0-3.2,0.3C6.4,1.4,3.8,4.9,3.8,8.6
	c0,1.1,0.2,2.2,0.5,3.3c0.4,1.6,1.1,3,1.8,4.5c0.8,1.5,1.7,2.8,2.7,4.2c1.1,1.5,2.3,3,3.6,4.3c0,0,0.1,0.1,0.1,0.1
	c0-0.1,0.1-0.1,0.1-0.2c1.1-1.1,2-2.3,3-3.5c1.5-1.9,2.8-3.9,3.9-6.1c0.8-1.7,1.5-3.5,1.7-5.4C21.3,8.9,21.2,7.9,21,6.9z M12.5,5
	c0.7,0,1.3,0.6,1.3,1.3s-0.6,1.3-1.3,1.3S11.2,7,11.2,6.3S11.8,5,12.5,5z M15.1,14H9.9v-0.6h5.1V14z M11.2,12.7v-0.6h2.6v0.6H11.2z
	 M14.1,11.3h-3.3c0-1-0.7-1.7-1.6-2.3c1.1-0.7,2.1-1,3.2-1c1.1,0,2.2,0.3,3.2,1C15,9.6,14.1,10.3,14.1,11.3z"/>
</svg>
