<?xml version="1.0" encoding="utf-8"?>
<!-- Generator: Adobe Illustrator 22.1.0, SVG Export Plug-In . SVG Version: 6.00 Build 0)  -->
<svg version="1.1"
	 id="svg2" xmlns:cc="http://creativecommons.org/ns#" xmlns:dc="http://purl.org/dc/elements/1.1/" xmlns:rdf="http://www.w3.org/1999/02/22-rdf-syntax-ns#" xmlns:svg="http://www.w3.org/2000/svg"
	 xmlns="http://www.w3.org/2000/svg" xmlns:xlink="http://www.w3.org/1999/xlink" x="0px" y="0px" viewBox="0 0 30 30"
	 style="enable-background:new 0 0 30 30;" xml:space="preserve">

<g>
	<polygon points="11.6,11 12,11.7 12.3,11 12.3,10.3 11.6,10.3 	"/>
	<path d="M25.2,8.3c-0.5-2.2-1.6-4.1-3.3-5.6c-1.7-1.5-3.8-2.5-6.1-2.6c-1.3-0.1-2.6,0-3.9,0.4c-4.3,1.3-7.4,5.4-7.5,9.9
		c0,1.3,0.2,2.7,0.6,4c0.5,1.9,1.3,3.6,2.2,5.3c1,1.8,2,3.4,3.2,5c1.3,1.8,2.8,3.6,4.4,5.2c0,0,0.1,0.1,0.1,0.1
		c0-0.1,0.1-0.1,0.1-0.2c1.3-1.3,2.5-2.7,3.6-4.2c1.8-2.3,3.4-4.7,4.6-7.3c1-2.1,1.7-4.2,2-6.5C25.5,10.7,25.5,9.4,25.2,8.3z
		 M10.3,6.9h0.7v0.7h0.7V6.9h0.7v0.7H13V6.9h0.7v1.4h-3.4V6.9z M14.3,15.1c0-0.7,0-2,0.7-2s0.7,1.4,0.7,2H14.3z M19.7,15.1h-3.4
		c0-0.7,0-2.7-1.4-2.7s-1.4,2-1.4,2.7h-3.4V9h3.4v1.4H15h1.4V9h3.4V15.1z M19.7,8.3h-3.4V6.9H17v0.7h0.7V6.9h0.7v0.7h0.7V6.9h0.7
		V8.3z"/>
	<polygon points="18.4,11 18.4,10.3 17.7,10.3 17.7,11 18,11.7 	"/>
</g>
</svg>
