<?xml version="1.0" encoding="utf-8"?>
<!-- Generator: Adobe Illustrator 22.1.0, SVG Export Plug-In . SVG Version: 6.00 Build 0)  -->
<svg version="1.1"
	 id="svg109" inkscape:version="0.92.3 (2405546, 2018-03-11)" sodipodi:docname="obelisk.svg" xmlns:cc="http://creativecommons.org/ns#" xmlns:dc="http://purl.org/dc/elements/1.1/" xmlns:inkscape="http://www.inkscape.org/namespaces/inkscape" xmlns:rdf="http://www.w3.org/1999/02/22-rdf-syntax-ns#" xmlns:sodipodi="http://sodipodi.sourceforge.net/DTD/sodipodi-0.dtd" xmlns:svg="http://www.w3.org/2000/svg"
	 xmlns="http://www.w3.org/2000/svg" xmlns:xlink="http://www.w3.org/1999/xlink" x="0px" y="0px" viewBox="0 0 25 25"
	 style="enable-background:new 0 0 25 25;" xml:space="preserve">
<sodipodi:namedview  bordercolor="#666666" borderopacity="1" gridtolerance="10" guidetolerance="10" id="namedview7" inkscape:current-layer="svg109" inkscape:cx="9.275947" inkscape:cy="7.1459484" inkscape:pageopacity="0" inkscape:pageshadow="2" inkscape:window-height="525" inkscape:window-maximized="0" inkscape:window-width="872" inkscape:window-x="364" inkscape:window-y="191" inkscape:zoom="12.338855" objecttolerance="10" pagecolor="#ffffff" showgrid="false">
	</sodipodi:namedview>
<path d="M21,6.9c-0.4-1.8-1.4-3.4-2.7-4.7c-1.4-1.2-3.2-2-5.1-2.2c-1.1-0.1-2.2,0-3.2,0.3C6.4,1.4,3.8,4.9,3.8,8.6
	c0,1.1,0.2,2.2,0.5,3.3c0.4,1.6,1.1,3,1.8,4.5c0.8,1.5,1.7,2.8,2.7,4.2c1.1,1.5,2.3,3,3.6,4.3c0,0,0.1,0.1,0.1,0.1
	c0-0.1,0.1-0.1,0.1-0.2c1.1-1.1,2-2.3,3-3.5c1.5-1.9,2.8-3.9,3.9-6.1c0.8-1.7,1.5-3.5,1.7-5.4C21.3,8.9,21.2,7.9,21,6.9z M11.5,4.2
	l1-1.7l1,1.7l0.2,8.5h-2.5L11.5,4.2z M15.9,14.5H9.1v-0.9h6.8V14.5z"/>
</svg>
