<?xml version="1.0" encoding="utf-8"?>
<!-- Generator: Adobe Illustrator 22.1.0, SVG Export Plug-In . SVG Version: 6.00 Build 0)  -->
<svg version="1.1"
	 id="svg2" xmlns:cc="http://creativecommons.org/ns#" xmlns:dc="http://purl.org/dc/elements/1.1/" xmlns:rdf="http://www.w3.org/1999/02/22-rdf-syntax-ns#" xmlns:svg="http://www.w3.org/2000/svg"
	 xmlns="http://www.w3.org/2000/svg" xmlns:xlink="http://www.w3.org/1999/xlink" x="0px" y="0px" viewBox="0 0 30 30"
	 style="enable-background:new 0 0 30 30;" xml:space="preserve">

<g>
	<path d="M17.3,13.7l1.5,0c0-1,0-1.5-0.8-1.5C17.3,12.1,17.3,12.7,17.3,13.7z"/>
	<path d="M11.9,12.1c-0.8,0-0.8,0.8-0.8,1.5h1.5C12.7,12.9,12.7,12.1,11.9,12.1z"/>
	<path d="M25.2,8.3c-0.5-2.2-1.6-4.1-3.3-5.6c-1.7-1.5-3.8-2.5-6.1-2.6c-1.3-0.1-2.6,0-3.9,0.4c-4.3,1.3-7.4,5.4-7.5,9.9
		c0,1.3,0.2,2.7,0.6,4c0.5,1.9,1.3,3.6,2.2,5.3c1,1.8,2,3.4,3.2,5c1.3,1.8,2.8,3.6,4.4,5.2c0,0,0.1,0.1,0.1,0.1
		c0-0.1,0.1-0.1,0.1-0.2c1.3-1.3,2.5-2.7,3.6-4.2c1.8-2.3,3.4-4.7,4.6-7.3c1-2.1,1.7-4.2,2-6.5C25.5,10.7,25.5,9.4,25.2,8.3z
		 M12.7,8.2L15,5.9l2.3,2.3V9h-4.6V8.2z M9.6,8.6l0.8-1.2h0.8l0.8,1.2V9H9.6V8.6z M20.4,16h-3.9c0-0.8,0-2.3-1.5-2.3
		s-1.5,1.5-1.5,2.3H9.6V9.8h2.3v0.8h0.8l0-0.8h4.6l0,0.8h0.8l0-0.8h2.3V16z M20.4,9h-2.3V8.6l0.8-1.2h0.8l0.8,1.2V9z"/>
</g>
</svg>
