<?xml version="1.0" encoding="utf-8"?>
<!-- Generator: Adobe Illustrator 22.1.0, SVG Export Plug-In . SVG Version: 6.00 Build 0)  -->
<svg version="1.1"
	 id="svg109" xmlns:cc="http://creativecommons.org/ns#" xmlns:dc="http://purl.org/dc/elements/1.1/" xmlns:rdf="http://www.w3.org/1999/02/22-rdf-syntax-ns#" xmlns:svg="http://www.w3.org/2000/svg"
	 xmlns="http://www.w3.org/2000/svg" xmlns:xlink="http://www.w3.org/1999/xlink" x="0px" y="0px" viewBox="0 0 25 25"
	 style="enable-background:new 0 0 25 25;" xml:space="preserve">
<g>
	<path d="M12.5,7.3c-0.4,0-0.7,0.3-0.7,0.7c0,0,0,0,0,0v2.2h1.5V8c0,0,0,0,0,0C13.2,7.6,12.9,7.3,12.5,7.3z"/>
	<path d="M21,6.9c-0.4-1.8-1.4-3.4-2.7-4.7c-1.4-1.2-3.2-2-5.1-2.2c-1.1-0.1-2.2,0-3.2,0.3C6.4,1.4,3.8,4.9,3.8,8.6
		c0,1.1,0.2,2.2,0.5,3.3c0.4,1.6,1.1,3,1.8,4.5c0.8,1.5,1.7,2.8,2.7,4.2c1.1,1.5,2.3,3,3.6,4.3c0,0,0.1,0.1,0.1,0.1
		c0-0.1,0.1-0.1,0.1-0.2c1.1-1.1,2-2.3,3-3.5c1.5-1.9,2.8-3.9,3.9-6.1c0.8-1.7,1.5-3.5,1.7-5.4C21.3,8.9,21.2,7.9,21,6.9z M11,6.5
		l1.5-2.2L14,6.5v6.7h-3V6.5z M14.7,14.7h-4.5V14h4.5V14.7z"/>
</g>
</svg>
